v -1.500000 -1.500000 1.400000
v -1.500000 -1.500000 -1.600000
v -1.500000 -0.300000 1.400000
v -1.500000 -0.300000 -1.600000
v -1.500000 0.900000 1.400000
v -1.500000 0.900000 -1.600000
v -1.500000 -0.900000 1.400000
v -1.500000 -0.900000 -1.600000
v -1.500000 0.300000 1.400000
v -1.500000 0.300000 -1.600000
v -1.500000 1.500000 1.400000
v -1.500000 1.500000 -1.600000
v -0.300000 -1.500000 1.400000
v -0.300000 -1.500000 -1.600000
v -0.300000 1.500000 1.400000
v -0.300000 1.500000 -1.600000
v 0.900000 -1.500000 1.400000
v 0.900000 -1.500000 -1.600000
v 0.900000 1.500000 1.400000
v 0.900000 1.500000 -1.600000
v -0.900000 -1.500000 1.400000
v -0.900000 -1.500000 -1.600000
v -0.900000 1.500000 1.400000
v -0.900000 1.500000 -1.600000
v 0.300000 -1.500000 1.400000
v 0.300000 -1.500000 -1.600000
v 0.300000 1.500000 1.400000
v 0.300000 1.500000 -1.600000
v 1.500000 -1.500000 1.400000
v 1.500000 -1.500000 -1.600000
v 1.500000 -0.300000 1.400000
v 1.500000 -0.300000 -1.600000
v 1.500000 0.900000 1.400000
v 1.500000 0.900000 -1.600000
v 1.500000 -0.900000 1.400000
v 1.500000 -0.900000 -1.600000
v 1.500000 0.300000 1.400000
v 1.500000 0.300000 -1.600000
v 1.500000 1.500000 1.400000
v 1.500000 1.500000 -1.600000
v -1.500000 -1.500000 -0.100000
v -1.500000 -1.200000 1.400000
v -1.200000 -1.500000 1.400000
v -1.200000 -1.500000 -0.100000
v -1.500000 -1.200000 -0.100000
v -1.500000 -1.200000 -1.600000
v -1.200000 -1.500000 -1.600000
v -1.500000 -0.300000 -0.100000
v -1.500000 -0.600000 1.400000
v -1.500000 -0.600000 -0.100000
v -1.500000 0.000000 1.400000
v -0.900000 -0.900000 1.400000
v -0.900000 0.600000 1.400000
v -1.200000 -0.900000 1.400000
v -1.500000 -0.600000 -1.600000
v -1.500000 0.000000 -0.100000
v -1.500000 0.000000 -1.600000
v -0.900000 -0.900000 -1.600000
v -0.900000 0.600000 -1.600000
v -1.200000 -0.900000 -1.600000
v -1.500000 0.900000 -0.100000
v -1.500000 0.600000 1.400000
v -1.500000 0.600000 -0.100000
v -1.500000 1.200000 1.400000
v -0.900000 1.200000 1.400000
v -1.200000 1.200000 1.400000
v -1.500000 0.600000 -1.600000
v -1.500000 1.200000 -0.100000
v -1.500000 1.200000 -1.600000
v -0.900000 1.200000 -1.600000
v -1.200000 1.200000 -1.600000
v -1.500000 -0.900000 -0.100000
v -1.200000 -1.200000 1.400000
v -1.200000 -1.200000 -1.600000
v -1.500000 0.300000 -0.100000
v -0.900000 0.900000 1.400000
v -0.900000 0.900000 -1.600000
v -1.500000 1.500000 -0.100000
v -1.200000 1.500000 1.400000
v -1.200000 1.500000 -0.100000
v -1.200000 1.500000 -1.600000
v -0.300000 -1.500000 -0.100000
v -0.300000 0.000000 1.400000
v -0.600000 -1.500000 1.400000
v 0.000000 -1.500000 1.400000
v 0.000000 -1.500000 -0.100000
v -0.300000 0.000000 -1.600000
v -0.600000 -1.500000 -0.100000
v -0.600000 -1.500000 -1.600000
v 0.000000 -1.500000 -1.600000
v -0.300000 1.500000 -0.100000
v -0.600000 1.500000 1.400000
v -0.600000 1.500000 -0.100000
v 0.000000 0.000000 1.400000
v 0.000000 1.500000 1.400000
v -0.600000 1.500000 -1.600000
v 0.000000 0.000000 -1.600000
v 0.000000 1.500000 -0.100000
v 0.000000 1.500000 -1.600000
v 0.900000 -1.500000 -0.100000
v 0.600000 -1.500000 1.400000
v 1.200000 -1.500000 1.400000
v 1.200000 -1.500000 -0.100000
v 1.200000 -1.200000 1.400000
v 0.600000 -1.500000 -0.100000
v 0.600000 -1.500000 -1.600000
v 1.200000 -1.500000 -1.600000
v 1.200000 -1.200000 -1.600000
v 0.900000 1.500000 -0.100000
v 0.600000 1.500000 1.400000
v 0.600000 1.500000 -0.100000
v 1.200000 1.200000 1.400000
v 1.200000 0.900000 1.400000
v 1.200000 1.500000 1.400000
v 0.600000 1.500000 -1.600000
v 1.200000 1.200000 -1.600000
v 1.200000 0.900000 -1.600000
v 1.200000 1.500000 -0.100000
v 1.200000 1.500000 -1.600000
v -0.900000 -1.500000 -0.100000
v -0.900000 1.500000 -0.100000
v 0.300000 -1.500000 -0.100000
v 0.300000 0.000000 1.400000
v 0.900000 -0.900000 1.400000
v 0.900000 -1.200000 1.400000
v 0.900000 -0.600000 1.400000
v 0.300000 0.000000 -1.600000
v 0.900000 -0.900000 -1.600000
v 0.900000 -1.200000 -1.600000
v 0.900000 -0.600000 -1.600000
v 0.300000 1.500000 -0.100000
v 0.900000 0.900000 1.400000
v 0.900000 0.900000 -1.600000
v 1.500000 -1.500000 -0.100000
v 1.500000 -1.200000 1.400000
v 1.500000 -1.200000 -0.100000
v 1.500000 -1.200000 -1.600000
v 1.500000 -0.300000 -0.100000
v 1.500000 -0.600000 1.400000
v 1.500000 0.000000 1.400000
v 1.500000 0.000000 -0.100000
v 1.500000 -0.600000 -0.100000
v 1.500000 -0.600000 -1.600000
v 1.500000 0.000000 -1.600000
v 1.500000 0.900000 -0.100000
v 1.500000 0.600000 1.400000
v 1.500000 1.200000 1.400000
v 1.500000 1.200000 -0.100000
v 1.500000 0.600000 -0.100000
v 1.500000 0.600000 -1.600000
v 1.500000 1.200000 -1.600000
v 1.500000 -0.900000 -0.100000
v 1.500000 0.300000 -0.100000
v 1.500000 1.500000 -0.100000
f 22 47 74
f 14 89 58
f 8 55 74
f 16 87 59
f 16 77 70
f 6 69 71
f 6 71 70
f 16 59 77
f 16 97 87
f 36 108 129
f 18 108 107
f 26 128 129
f 38 144 130
f 38 133 117
f 20 116 117
f 20 119 116
f 38 130 133
f 16 99 97
f 7 42 73
f 3 54 52
f 21 54 73
f 3 52 53
f 5 62 65
f 23 79 66
f 15 92 65
f 9 51 76
f 13 85 83
f 25 101 125
f 29 135 102
f 35 139 125
f 25 124 126
f 19 110 113
f 37 146 113
f 33 147 112
f 27 123 132
f 25 123 94
f 1 42 41
f 2 45 46
f 7 49 72
f 8 50 55
f 3 51 48
f 4 56 57
f 9 62 75
f 10 63 67
f 5 64 61
f 6 68 69
f 11 79 78
f 12 80 81
f 23 92 121
f 24 93 96
f 15 95 91
f 16 98 99
f 27 110 131
f 28 111 115
f 19 114 109
f 20 118 119
f 39 147 154
f 40 148 151
f 33 146 145
f 34 149 150
f 37 140 153
f 38 141 144
f 31 139 138
f 32 142 143
f 35 135 152
f 36 136 137
f 29 102 134
f 30 103 107
f 17 101 100
f 18 105 106
f 25 85 122
f 26 86 90
f 21 43 120
f 22 44 47
f 13 84 82
f 14 88 89
f 2 46 47
f 22 60 89
f 4 60 55
f 14 58 87
f 10 67 77
f 12 81 69
f 24 96 71
f 4 57 59
f 26 90 97
f 18 106 108
f 36 137 108
f 32 143 128
f 32 128 144
f 28 115 133
f 34 150 116
f 40 151 119
f 26 127 130
f 28 127 99
f 1 43 42
f 21 84 54
f 3 49 54
f 13 83 52
f 9 76 62
f 11 64 79
f 23 66 92
f 3 53 51
f 25 94 85
f 17 104 101
f 35 104 135
f 31 124 139
f 31 140 124
f 27 132 110
f 33 112 146
f 39 114 147
f 25 126 123
f 27 95 123
f 7 45 42
f 7 72 45
f 3 50 49
f 3 48 50
f 9 56 51
f 9 75 56
f 5 63 62
f 5 61 63
f 11 68 64
f 11 78 68
f 23 80 79
f 23 121 80
f 15 93 92
f 15 91 93
f 27 98 95
f 27 131 98
f 19 111 110
f 19 109 111
f 39 118 114
f 39 154 118
f 33 148 147
f 33 145 148
f 37 149 146
f 37 153 149
f 31 141 140
f 31 138 141
f 35 142 139
f 35 152 142
f 29 136 135
f 29 134 136
f 17 103 102
f 17 100 103
f 25 105 101
f 25 122 105
f 13 86 85
f 13 82 86
f 1 44 43
f 1 41 44
f 21 88 84
f 21 120 88
f 8 74 46
f 4 58 60
f 22 74 60
f 4 59 58
f 6 70 67
f 24 71 81
f 16 70 96
f 10 77 57
f 14 87 90
f 26 129 106
f 30 107 137
f 36 129 143
f 26 130 128
f 20 117 115
f 38 117 150
f 34 116 151
f 28 133 127
f 26 97 127
f 21 73 43
f 13 52 84
f 7 73 49
f 15 53 83
f 15 65 76
f 5 66 64
f 5 65 66
f 15 76 53
f 15 83 94
f 35 125 104
f 17 102 104
f 25 125 124
f 37 126 140
f 37 113 132
f 19 113 112
f 19 112 114
f 37 132 126
f 15 94 95
f 2 41 45
f 8 46 72
f 8 72 50
f 4 55 48
f 4 48 56
f 10 57 75
f 10 75 63
f 6 67 61
f 6 61 68
f 12 69 78
f 12 78 80
f 24 81 121
f 24 121 93
f 16 96 91
f 16 91 98
f 28 99 131
f 28 131 111
f 20 115 109
f 20 109 118
f 40 119 154
f 40 154 148
f 34 151 145
f 34 145 149
f 38 150 153
f 38 153 141
f 32 144 138
f 32 138 142
f 36 143 152
f 36 152 136
f 30 137 134
f 30 134 103
f 18 107 100
f 18 100 105
f 26 106 122
f 26 122 86
f 14 90 82
f 22 120 44
f 2 47 41
f 14 82 88
f 22 89 120
f 46 74 47
f 60 58 89
f 60 74 55
f 58 59 87
f 67 70 77
f 81 71 69
f 96 70 71
f 57 77 59
f 90 87 97
f 106 129 108
f 137 107 108
f 143 129 128
f 128 130 144
f 115 117 133
f 150 117 116
f 151 116 119
f 127 133 130
f 127 97 99
f 43 73 42
f 84 52 54
f 49 73 54
f 83 53 52
f 76 65 62
f 64 66 79
f 66 65 92
f 53 76 51
f 94 83 85
f 104 125 101
f 104 102 135
f 124 125 139
f 140 126 124
f 132 113 110
f 112 113 146
f 114 112 147
f 126 132 123
f 95 94 123
f 45 41 42
f 72 46 45
f 50 72 49
f 48 55 50
f 56 48 51
f 75 57 56
f 63 75 62
f 61 67 63
f 68 61 64
f 78 69 68
f 80 78 79
f 121 81 80
f 93 121 92
f 91 96 93
f 98 91 95
f 131 99 98
f 111 131 110
f 109 115 111
f 118 109 114
f 154 119 118
f 148 154 147
f 145 151 148
f 149 145 146
f 153 150 149
f 141 153 140
f 138 144 141
f 142 138 139
f 152 143 142
f 136 152 135
f 134 137 136
f 103 134 102
f 100 107 103
f 105 100 101
f 122 106 105
f 86 122 85
f 82 90 86
f 44 120 43
f 41 47 44
f 88 82 84
f 120 89 88