v -0.500000 -1.500000 1.400000
v -0.500000 -1.500000 -1.600000
v -0.500000 1.500000 1.400000
v -0.500000 1.500000 -1.600000
v -1.500000 -0.500000 1.400000
v -1.500000 -0.500000 -1.600000
v -1.500000 -1.500000 1.400000
v -1.500000 -1.500000 -1.600000
v -1.500000 1.500000 1.400000
v -1.500000 1.500000 -1.600000
v -1.500000 0.500000 1.400000
v -1.500000 0.500000 -1.600000
v 1.500000 -0.500000 1.400000
v 1.500000 -0.500000 -1.600000
v 1.500000 -1.500000 1.400000
v 1.500000 -1.500000 -1.600000
v 1.500000 1.500000 1.400000
v 1.500000 1.500000 -1.600000
v 1.500000 0.500000 1.400000
v 1.500000 0.500000 -1.600000
v 0.500000 -1.500000 1.400000
v 0.500000 -1.500000 -1.600000
v 0.500000 1.500000 1.400000
v 0.500000 1.500000 -1.600000
f 6 2 8
f 4 2 6
f 10 4 12
f 6 12 4
f 4 22 2
f 14 16 22
f 20 14 22
f 18 20 24
f 22 24 20
f 4 24 22
f 7 1 5
f 5 1 3
f 11 3 9
f 3 11 5
f 1 21 3
f 21 15 13
f 21 13 19
f 23 19 17
f 19 23 21
f 21 23 3
f 7 5 8
f 8 5 6
f 5 11 6
f 6 11 12
f 11 9 12
f 12 9 10
f 9 3 10
f 10 3 4
f 3 23 4
f 4 23 24
f 23 17 24
f 24 17 18
f 17 19 18
f 18 19 20
f 19 13 20
f 20 13 14
f 13 15 14
f 14 15 16
f 15 21 16
f 16 21 22
f 1 7 2
f 2 7 8
f 21 1 22
f 22 1 2