v -1.500000 0.000000 1.400000
v -1.500000 0.000000 -1.600000
v -1.500000 -1.500000 1.400000
v -1.500000 -1.500000 -1.600000
v -1.500000 1.500000 1.400000
v -1.500000 1.500000 -1.600000
v 1.500000 0.000000 1.400000
v 1.500000 0.000000 -1.600000
v 1.500000 -1.500000 1.400000
v 1.500000 -1.500000 -1.600000
v 1.500000 1.500000 1.400000
v 1.500000 1.500000 -1.600000
v -1.500000 0.000000 -0.100000
v -1.500000 -0.750000 1.400000
v -1.500000 -0.750000 -0.100000
v -1.500000 0.750000 1.400000
v 0.000000 0.000000 1.400000
v 0.000000 -0.750000 1.400000
v -1.500000 -0.750000 -1.600000
v -1.500000 0.750000 -0.100000
v -1.500000 0.750000 -1.600000
v 0.000000 0.000000 -1.600000
v 0.000000 -0.750000 -1.600000
v -1.500000 -1.500000 -0.100000
v 0.000000 -1.500000 1.400000
v 0.000000 -1.500000 -0.100000
v 0.000000 -1.500000 -1.600000
v -1.500000 1.500000 -0.100000
v 0.000000 0.750000 1.400000
v 0.000000 1.500000 1.400000
v 0.000000 0.750000 -1.600000
v 0.000000 1.500000 -0.100000
v 0.000000 1.500000 -1.600000
v 1.500000 0.000000 -0.100000
v 1.500000 -0.750000 1.400000
v 1.500000 0.750000 1.400000
v 1.500000 0.750000 -0.100000
v 1.500000 -0.750000 -0.100000
v 1.500000 -0.750000 -1.600000
v 1.500000 0.750000 -1.600000
v 1.500000 -1.500000 -0.100000
v 1.500000 1.500000 -0.100000
v -1.500000 0.000000 0.650000
v -1.500000 -0.375000 1.400000
v -1.500000 -0.375000 0.650000
v -1.500000 0.375000 1.400000
v -0.750000 0.000000 1.400000
v -0.750000 -0.375000 1.400000
v -1.500000 0.000000 -0.850000
v -1.500000 -0.375000 -1.600000
v -1.500000 0.375000 -0.850000
v -1.500000 0.375000 -1.600000
v -0.750000 0.000000 -1.600000
v -0.750000 -0.375000 -1.600000
v -1.500000 -1.125000 1.400000
v -1.500000 -1.500000 0.650000
v -0.750000 -1.500000 1.400000
v -0.750000 -1.500000 0.650000
v -1.500000 -1.125000 -0.850000
v -1.500000 -1.125000 -1.600000
v -1.500000 -1.500000 -0.850000
v -0.750000 -1.500000 -1.600000
v -1.500000 1.125000 1.400000
v -1.500000 1.125000 0.650000
v -1.500000 1.500000 0.650000
v -0.750000 1.125000 1.400000
v -0.750000 1.500000 1.400000
v -1.500000 1.125000 -1.600000
v -1.500000 1.500000 -0.850000
v -0.750000 1.125000 -1.600000
v -0.750000 1.500000 -0.850000
v -0.750000 1.500000 -1.600000
v 0.750000 0.000000 1.400000
v 0.750000 0.375000 1.400000
v 1.500000 0.000000 0.650000
v 1.500000 -0.375000 1.400000
v 1.500000 0.375000 1.400000
v 1.500000 0.375000 0.650000
v 0.750000 0.000000 -1.600000
v 0.750000 0.375000 -1.600000
v 1.500000 0.000000 -0.850000
v 1.500000 -0.375000 -0.850000
v 1.500000 -0.375000 -1.600000
v 1.500000 0.375000 -1.600000
v 0.750000 -1.125000 1.400000
v 0.750000 -1.500000 1.400000
v 1.500000 -1.125000 1.400000
v 1.500000 -1.125000 0.650000
v 1.500000 -1.500000 0.650000
v 0.750000 -1.125000 -1.600000
v 0.750000 -1.500000 -0.850000
v 0.750000 -1.500000 -1.600000
v 1.500000 -1.125000 -1.600000
v 1.500000 -1.500000 -0.850000
v 0.750000 1.500000 1.400000
v 0.750000 1.500000 0.650000
v 1.500000 1.125000 1.400000
v 1.500000 1.500000 0.650000
v 0.750000 1.500000 -1.600000
v 1.500000 1.125000 -0.850000
v 1.500000 1.125000 -1.600000
v 1.500000 1.500000 -0.850000
v -1.500000 -0.375000 -0.100000
v -1.500000 0.375000 0.650000
v -1.500000 -0.375000 -0.850000
v -1.500000 0.375000 -0.100000
v -1.500000 -0.750000 0.650000
v -0.750000 -0.750000 1.400000
v -1.500000 -1.125000 0.650000
v -0.750000 -1.125000 1.400000
v -1.500000 -0.750000 -0.850000
v -1.500000 -1.125000 -0.100000
v -0.750000 0.375000 1.400000
v -1.500000 0.750000 0.650000
v -0.750000 0.750000 1.400000
v 0.000000 -0.375000 1.400000
v 0.000000 0.375000 1.400000
v 0.750000 -0.375000 1.400000
v 0.000000 -1.125000 1.400000
v 0.750000 -0.750000 1.400000
v -0.750000 -0.750000 -1.600000
v -0.750000 -1.125000 -1.600000
v -1.500000 0.750000 -0.850000
v -1.500000 1.125000 -0.100000
v -0.750000 0.375000 -1.600000
v -1.500000 1.125000 -0.850000
v -0.750000 0.750000 -1.600000
v 0.000000 -0.375000 -1.600000
v 0.000000 0.375000 -1.600000
v 0.750000 -0.375000 -1.600000
v 0.000000 -1.125000 -1.600000
v 0.750000 -0.750000 -1.600000
v -0.750000 -1.500000 -0.100000
v -0.750000 -1.500000 -0.850000
v 0.000000 -1.500000 0.650000
v 0.750000 -1.500000 0.650000
v 0.000000 -1.500000 -0.850000
v 0.750000 -1.500000 -0.100000
v -0.750000 1.500000 0.650000
v -0.750000 1.500000 -0.100000
v 0.000000 1.125000 1.400000
v 0.750000 0.750000 1.400000
v 0.000000 1.500000 0.650000
v 0.750000 1.125000 1.400000
v 0.000000 1.125000 -1.600000
v 0.750000 0.750000 -1.600000
v 0.000000 1.500000 -0.850000
v 0.750000 1.500000 -0.100000
v 0.750000 1.125000 -1.600000
v 0.750000 1.500000 -0.850000
v 1.500000 -0.375000 0.650000
v 1.500000 0.375000 -0.100000
v 1.500000 -0.375000 -0.100000
v 1.500000 0.375000 -0.850000
v 1.500000 -0.750000 0.650000
v 1.500000 0.750000 0.650000
v 1.500000 1.125000 0.650000
v 1.500000 0.750000 -0.850000
v 1.500000 1.125000 -0.100000
v 1.500000 -0.750000 -0.850000
v 1.500000 -1.125000 -0.100000
v 1.500000 -1.125000 -0.850000
v -1.500000 0.000000 1.025000
v -1.500000 -0.187500 1.400000
v -1.500000 -0.187500 1.025000
v -1.500000 0.187500 1.400000
v -1.125000 0.000000 1.400000
v -1.125000 -0.187500 1.400000
v -1.500000 0.000000 -1.225000
v -1.500000 -0.187500 -1.600000
v -1.500000 0.187500 -1.225000
v -1.500000 0.187500 -1.600000
v -1.125000 0.000000 -1.600000
v -1.125000 -0.187500 -1.600000
v -1.500000 -1.312500 1.400000
v -1.500000 -1.500000 1.025000
v -1.125000 -1.500000 1.400000
v -1.125000 -1.500000 1.025000
v -1.500000 -1.312500 -1.225000
v -1.500000 -1.312500 -1.600000
v -1.500000 -1.500000 -1.225000
v -1.125000 -1.500000 -1.600000
v -1.500000 1.312500 1.400000
v -1.500000 1.312500 1.025000
v -1.500000 1.500000 1.025000
v -1.125000 1.312500 1.400000
v -1.125000 1.500000 1.400000
v -1.500000 1.312500 -1.600000
v -1.500000 1.500000 -1.225000
v -1.125000 1.312500 -1.600000
v -1.125000 1.500000 -1.225000
v -1.125000 1.500000 -1.600000
v 1.125000 0.000000 1.400000
v 1.125000 0.187500 1.400000
v 1.500000 0.000000 1.025000
v 1.500000 -0.187500 1.400000
v 1.500000 0.187500 1.400000
v 1.500000 0.187500 1.025000
v 1.125000 0.000000 -1.600000
v 1.125000 0.187500 -1.600000
v 1.500000 0.000000 -1.225000
v 1.500000 -0.187500 -1.225000
v 1.500000 -0.187500 -1.600000
v 1.500000 0.187500 -1.600000
v 1.125000 -1.312500 1.400000
v 1.125000 -1.500000 1.400000
v 1.500000 -1.312500 1.400000
v 1.500000 -1.312500 1.025000
v 1.500000 -1.500000 1.025000
v 1.125000 -1.312500 -1.600000
v 1.125000 -1.500000 -1.225000
v 1.125000 -1.500000 -1.600000
v 1.500000 -1.312500 -1.600000
v 1.500000 -1.500000 -1.225000
v 1.125000 1.500000 1.400000
v 1.125000 1.500000 1.025000
v 1.500000 1.312500 1.400000
v 1.500000 1.500000 1.025000
v 1.125000 1.500000 -1.600000
v 1.500000 1.312500 -1.225000
v 1.500000 1.312500 -1.600000
v 1.500000 1.500000 -1.225000
v -1.500000 0.000000 0.275000
v -1.500000 0.000000 -0.475000
v -1.500000 -0.187500 -0.100000
v -1.500000 0.187500 0.275000
v -1.500000 -0.187500 -0.475000
v -1.500000 0.187500 -0.100000
v -1.500000 -0.562500 1.400000
v -1.500000 -0.937500 1.400000
v -1.500000 -0.750000 1.025000
v -1.125000 -0.750000 1.400000
v -1.500000 -0.937500 1.025000
v -1.125000 -0.937500 1.400000
v -1.500000 -0.562500 0.275000
v -1.500000 -0.937500 -0.475000
v -1.500000 -0.562500 -0.100000
v -1.500000 -0.750000 0.275000
v -1.500000 -0.750000 -0.475000
v -1.500000 -0.937500 -0.100000
v -1.500000 0.562500 1.400000
v -1.500000 0.937500 1.400000
v -1.500000 0.562500 1.025000
v -1.125000 0.562500 1.400000
v -1.500000 0.750000 1.025000
v -1.125000 0.750000 1.400000
v -0.375000 0.000000 1.400000
v 0.375000 0.000000 1.400000
v -0.375000 0.187500 1.400000
v 0.000000 -0.187500 1.400000
v 0.000000 0.187500 1.400000
v 0.375000 -0.187500 1.400000
v -0.375000 -0.562500 1.400000
v 0.375000 -0.937500 1.400000
v -0.375000 -0.750000 1.400000
v 0.000000 -0.562500 1.400000
v 0.000000 -0.937500 1.400000
v 0.375000 -0.750000 1.400000
v -1.500000 -0.562500 -1.600000
v -1.500000 -0.937500 -1.600000
v -1.500000 -0.562500 -1.225000
v -1.500000 -0.750000 -1.225000
v -1.125000 -0.750000 -1.600000
v -1.125000 -0.937500 -1.600000
v -1.500000 0.562500 -0.475000
v -1.500000 0.937500 0.275000
v -1.500000 0.562500 -0.100000
v -1.500000 0.750000 0.275000
v -1.500000 0.750000 -0.475000
v -1.500000 0.937500 -0.100000
v -1.500000 0.562500 -1.600000
v -1.500000 0.937500 -1.600000
v -1.500000 0.750000 -1.225000
v -1.125000 0.562500 -1.600000
v -1.500000 0.937500 -1.225000
v -1.125000 0.750000 -1.600000
v -0.375000 0.000000 -1.600000
v 0.375000 0.000000 -1.600000
v -0.375000 0.187500 -1.600000
v 0.000000 -0.187500 -1.600000
v 0.000000 0.187500 -1.600000
v 0.375000 -0.187500 -1.600000
v -0.375000 -0.562500 -1.600000
v 0.375000 -0.937500 -1.600000
v -0.375000 -0.750000 -1.600000
v 0.000000 -0.562500 -1.600000
v 0.000000 -0.937500 -1.600000
v 0.375000 -0.750000 -1.600000
v -1.500000 -1.500000 0.275000
v -1.500000 -1.500000 -0.475000
v -1.500000 -1.312500 0.275000
v -1.500000 -1.312500 -0.100000
v -1.125000 -1.500000 -0.100000
v -1.125000 -1.500000 -0.475000
v -0.375000 -1.500000 1.400000
v 0.375000 -1.500000 1.400000
v -0.375000 -1.312500 1.400000
v 0.000000 -1.312500 1.400000
v 0.000000 -1.500000 1.025000
v 0.375000 -1.500000 1.025000
v -0.375000 -1.500000 0.275000
v 0.375000 -1.500000 -0.475000
v -0.375000 -1.500000 -0.100000
v 0.000000 -1.500000 0.275000
v 0.000000 -1.500000 -0.475000
v 0.375000 -1.500000 -0.100000
v -0.375000 -1.500000 -1.600000
v 0.375000 -1.500000 -1.600000
v -0.375000 -1.312500 -1.600000
v 0.000000 -1.312500 -1.600000
v -0.375000 -1.500000 -1.225000
v 0.000000 -1.500000 -1.225000
v -1.500000 1.500000 0.275000
v -1.500000 1.500000 -0.475000
v -1.500000 1.312500 -0.100000
v -1.500000 1.312500 -0.475000
v -1.125000 1.500000 0.275000
v -1.125000 1.500000 -0.100000
v -0.375000 0.937500 1.400000
v 0.375000 0.562500 1.400000
v -0.375000 0.750000 1.400000
v 0.000000 0.562500 1.400000
v 0.000000 0.937500 1.400000
v 0.375000 0.750000 1.400000
v -0.375000 1.500000 1.400000
v 0.375000 1.500000 1.400000
v -0.375000 1.500000 1.025000
v 0.000000 1.312500 1.400000
v 0.000000 1.500000 1.025000
v 0.375000 1.312500 1.400000
v -0.375000 0.937500 -1.600000
v 0.375000 0.562500 -1.600000
v -0.375000 0.750000 -1.600000
v 0.000000 0.562500 -1.600000
v 0.000000 0.937500 -1.600000
v 0.375000 0.750000 -1.600000
v -0.375000 1.500000 -0.475000
v 0.375000 1.500000 0.275000
v -0.375000 1.500000 -0.100000
v 0.000000 1.500000 0.275000
v 0.000000 1.500000 -0.475000
v 0.375000 1.500000 -0.100000
v -0.375000 1.500000 -1.600000
v 0.375000 1.500000 -1.600000
v 0.000000 1.312500 -1.600000
v 0.000000 1.500000 -1.225000
v 0.375000 1.312500 -1.600000
v 0.375000 1.500000 -1.225000
v 1.500000 0.000000 0.275000
v 1.500000 0.000000 -0.475000
v 1.500000 -0.187500 0.275000
v 1.500000 0.187500 -0.100000
v 1.500000 -0.187500 -0.100000
v 1.500000 0.187500 -0.475000
v 1.500000 -0.562500 1.400000
v 1.500000 -0.937500 1.400000
v 1.125000 -0.562500 1.400000
v 1.125000 -0.750000 1.400000
v 1.500000 -0.562500 1.025000
v 1.500000 -0.750000 1.025000
v 1.500000 0.562500 1.400000
v 1.500000 0.937500 1.400000
v 1.125000 0.750000 1.400000
v 1.125000 0.937500 1.400000
v 1.500000 0.750000 1.025000
v 1.500000 0.937500 1.025000
v 1.500000 0.562500 0.275000
v 1.500000 0.937500 -0.475000
v 1.500000 0.562500 -0.100000
v 1.500000 0.750000 0.275000
v 1.500000 0.750000 -0.475000
v 1.500000 0.937500 -0.100000
v 1.500000 -0.562500 -0.475000
v 1.500000 -0.937500 0.275000
v 1.500000 -0.562500 -0.100000
v 1.500000 -0.750000 0.275000
v 1.500000 -0.750000 -0.475000
v 1.500000 -0.937500 -0.100000
v 1.500000 -0.562500 -1.600000
v 1.500000 -0.937500 -1.600000
v 1.125000 -0.562500 -1.600000
v 1.125000 -0.750000 -1.600000
v 1.500000 -0.750000 -1.225000
v 1.500000 -0.937500 -1.225000
v 1.500000 0.562500 -1.600000
v 1.500000 0.937500 -1.600000
v 1.125000 0.750000 -1.600000
v 1.125000 0.937500 -1.600000
v 1.500000 0.562500 -1.225000
v 1.500000 0.750000 -1.225000
v 1.500000 -1.500000 0.275000
v 1.500000 -1.500000 -0.475000
v 1.125000 -1.500000 0.275000
v 1.125000 -1.500000 -0.100000
v 1.500000 -1.312500 -0.100000
v 1.500000 -1.312500 -0.475000
v 1.500000 1.500000 0.275000
v 1.500000 1.500000 -0.475000
v 1.125000 1.500000 -0.100000
v 1.125000 1.500000 -0.475000
v 1.500000 1.312500 0.275000
v 1.500000 1.312500 -0.100000
v -1.500000 -0.187500 0.650000
v -1.500000 0.187500 1.025000
v -1.500000 -0.187500 0.275000
v -1.500000 0.187500 0.650000
v -1.500000 -0.375000 1.025000
v -1.125000 -0.375000 1.400000
v -1.500000 -0.562500 1.025000
v -1.125000 -0.562500 1.400000
v -1.500000 -0.375000 0.275000
v -1.500000 -0.562500 0.650000
v -1.125000 0.187500 1.400000
v -1.500000 0.375000 1.025000
v -1.125000 0.375000 1.400000
v -0.750000 -0.187500 1.400000
v -0.750000 0.187500 1.400000
v -0.375000 -0.187500 1.400000
v -0.750000 -0.562500 1.400000
v -0.375000 -0.375000 1.400000
v -1.500000 -0.187500 -1.225000
v -1.500000 0.187500 -0.850000
v -1.500000 -0.187500 -0.850000
v -1.500000 0.187500 -0.475000
v -1.125000 -0.375000 -1.600000
v -1.500000 -0.375000 -1.225000
v -1.125000 -0.562500 -1.600000
v -1.500000 0.375000 -1.225000
v -1.500000 0.375000 -0.475000
v -1.500000 0.562500 -0.850000
v -1.125000 0.187500 -1.600000
v -1.500000 0.562500 -1.225000
v -1.125000 0.375000 -1.600000
v -0.750000 -0.187500 -1.600000
v -0.750000 0.187500 -1.600000
v -0.375000 -0.187500 -1.600000
v -0.750000 -0.562500 -1.600000
v -0.375000 -0.375000 -1.600000
v -1.500000 -1.312500 1.025000
v -1.125000 -1.312500 1.400000
v -1.500000 -1.125000 1.025000
v -1.125000 -1.125000 1.400000
v -1.125000 -1.500000 0.650000
v -1.500000 -1.312500 0.650000
v -1.125000 -1.500000 0.275000
v -0.750000 -1.500000 1.025000
v -0.750000 -1.312500 1.400000
v -0.375000 -1.500000 1.025000
v -0.750000 -1.500000 0.275000
v -0.375000 -1.500000 0.650000
v -1.500000 -1.125000 -1.225000
v -1.500000 -1.312500 -0.850000
v -1.500000 -0.937500 -0.850000
v -1.500000 -1.125000 -0.475000
v -1.125000 -1.312500 -1.600000
v -1.500000 -0.937500 -1.225000
v -1.125000 -1.125000 -1.600000
v -1.125000 -1.500000 -1.225000
v -1.500000 -1.312500 -0.475000
v -1.125000 -1.500000 -0.850000
v -0.750000 -1.312500 -1.600000
v -0.750000 -1.500000 -1.225000
v -1.500000 1.125000 1.025000
v -1.125000 1.125000 1.400000
v -1.500000 0.937500 1.025000
v -1.125000 0.937500 1.400000
v -1.500000 1.312500 0.650000
v -1.500000 0.937500 0.650000
v -1.500000 1.125000 0.275000
v -1.125000 1.500000 1.025000
v -1.500000 1.312500 0.275000
v -1.125000 1.500000 0.650000
v -0.750000 1.312500 1.400000
v -0.750000 0.937500 1.400000
v -0.375000 1.125000 1.400000
v -0.750000 1.500000 1.025000
v -0.375000 1.312500 1.400000
v -1.500000 1.312500 -1.225000
v -1.125000 1.125000 -1.600000
v -1.500000 1.125000 -1.225000
v -1.125000 0.937500 -1.600000
v -1.125000 1.500000 -0.850000
v -1.500000 1.312500 -0.850000
v -1.125000 1.500000 -0.475000
v -0.750000 1.312500 -1.600000
v -0.750000 0.937500 -1.600000
v -0.375000 1.125000 -1.600000
v -0.750000 1.500000 -1.225000
v -0.750000 1.500000 -0.475000
v -0.375000 1.500000 -0.850000
v -0.375000 1.312500 -1.600000
v -0.375000 1.500000 -1.225000
v 0.750000 0.187500 1.400000
v 1.125000 -0.187500 1.400000
v 0.375000 0.187500 1.400000
v 0.750000 -0.187500 1.400000
v 1.125000 0.375000 1.400000
v 0.375000 0.375000 1.400000
v 0.750000 0.562500 1.400000
v 1.500000 -0.187500 1.025000
v 1.500000 0.187500 0.650000
v 1.500000 -0.187500 0.650000
v 1.500000 0.187500 0.275000
v 1.125000 -0.375000 1.400000
v 1.500000 -0.375000 1.025000
v 1.500000 0.375000 1.025000
v 1.125000 0.562500 1.400000
v 1.500000 0.562500 1.025000
v 1.500000 0.375000 0.275000
v 1.500000 0.562500 0.650000
v 0.750000 0.187500 -1.600000
v 1.125000 -0.187500 -1.600000
v 0.375000 0.187500 -1.600000
v 0.750000 -0.187500 -1.600000
v 1.125000 0.375000 -1.600000
v 0.375000 0.375000 -1.600000
v 0.750000 0.562500 -1.600000
v 1.500000 -0.187500 -0.850000
v 1.500000 0.187500 -1.225000
v 1.500000 -0.187500 -0.475000
v 1.500000 0.187500 -0.850000
v 1.500000 -0.375000 -1.225000
v 1.500000 -0.375000 -0.475000
v 1.500000 -0.562500 -0.850000
v 1.125000 -0.375000 -1.600000
v 1.500000 -0.562500 -1.225000
v 1.125000 0.562500 -1.600000
v 1.500000 0.375000 -1.225000
v 0.750000 -1.312500 1.400000
v 1.125000 -1.125000 1.400000
v 0.375000 -1.125000 1.400000
v 0.750000 -0.937500 1.400000
v 1.125000 -1.500000 1.025000
v 0.375000 -1.312500 1.400000
v 0.750000 -1.500000 1.025000
v 1.500000 -1.125000 1.025000
v 1.125000 -0.937500 1.400000
v 1.500000 -0.937500 1.025000
v 1.500000 -1.312500 0.650000
v 1.500000 -0.937500 0.650000
v 1.500000 -1.125000 0.275000
v 1.125000 -1.500000 0.650000
v 1.500000 -1.312500 0.275000
v 0.750000 -1.312500 -1.600000
v 1.125000 -1.125000 -1.600000
v 0.375000 -1.125000 -1.600000
v 0.750000 -0.937500 -1.600000
v 0.750000 -1.500000 -1.225000
v 1.125000 -1.500000 -0.850000
v 0.375000 -1.500000 -0.850000
v 0.750000 -1.500000 -0.475000
v 0.375000 -1.312500 -1.600000
v 0.375000 -1.500000 -1.225000
v 1.500000 -1.312500 -1.225000
v 1.125000 -0.937500 -1.600000
v 1.500000 -1.125000 -1.225000
v 1.125000 -1.500000 -0.475000
v 1.500000 -1.312500 -0.850000
v 0.750000 1.500000 1.025000
v 1.125000 1.312500 1.400000
v 0.375000 1.500000 1.025000
v 0.750000 1.312500 1.400000
v 1.125000 1.500000 0.650000
v 0.375000 1.500000 0.650000
v 0.750000 1.500000 0.275000
v 1.500000 1.312500 1.025000
v 1.125000 1.125000 1.400000
v 1.500000 1.125000 1.025000
v 1.125000 1.500000 0.275000
v 1.500000 1.312500 0.650000
v 1.125000 1.312500 -1.600000
v 1.125000 1.500000 -1.225000
v 0.750000 1.312500 -1.600000
v 0.750000 1.500000 -1.225000
v 1.500000 1.125000 -1.225000
v 1.500000 1.312500 -0.850000
v 1.500000 0.937500 -0.850000
v 1.500000 1.125000 -0.475000
v 1.125000 1.125000 -1.600000
v 1.500000 0.937500 -1.225000
v 1.125000 1.500000 -0.850000
v 1.500000 1.312500 -0.475000
v -1.500000 -0.375000 -0.475000
v -1.500000 -0.562500 -0.475000
v -1.500000 0.375000 0.275000
v -1.500000 0.562500 0.650000
v -1.500000 -0.562500 -0.850000
v -1.500000 0.562500 0.275000
v -1.500000 -0.937500 0.650000
v -1.500000 -0.937500 0.275000
v -0.750000 -0.937500 1.400000
v -0.375000 -0.937500 1.400000
v -1.500000 -1.125000 0.275000
v -0.375000 -1.125000 1.400000
v -0.750000 0.562500 1.400000
v -0.375000 0.375000 1.400000
v -0.375000 0.562500 1.400000
v 0.375000 -0.375000 1.400000
v 0.375000 -0.562500 1.400000
v 0.750000 -0.562500 1.400000
v -0.750000 -0.937500 -1.600000
v -0.375000 -0.937500 -1.600000
v -0.375000 -1.125000 -1.600000
v -1.500000 0.937500 -0.475000
v -1.500000 0.937500 -0.850000
v -1.500000 1.125000 -0.475000
v -0.750000 0.562500 -1.600000
v -0.375000 0.375000 -1.600000
v -0.375000 0.562500 -1.600000
v 0.375000 -0.375000 -1.600000
v 0.375000 -0.562500 -1.600000
v 0.750000 -0.562500 -1.600000
v -0.750000 -1.500000 -0.475000
v -0.375000 -1.500000 -0.475000
v -0.375000 -1.500000 -0.850000
v 0.375000 -1.500000 0.650000
v 0.375000 -1.500000 0.275000
v 0.750000 -1.500000 0.275000
v -0.750000 1.500000 0.275000
v -0.375000 1.500000 0.650000
v -0.375000 1.500000 0.275000
v 0.375000 0.937500 1.400000
v 0.375000 1.125000 1.400000
v 0.750000 0.937500 1.400000
v 0.375000 0.937500 -1.600000
v 0.375000 1.125000 -1.600000
v 0.750000 0.937500 -1.600000
v 0.375000 1.500000 -0.475000
v 0.375000 1.500000 -0.850000
v 0.750000 1.500000 -0.475000
v 1.500000 -0.375000 0.275000
v 1.500000 -0.562500 0.650000
v 1.500000 0.375000 -0.475000
v 1.500000 0.562500 -0.475000
v 1.500000 -0.562500 0.275000
v 1.500000 0.562500 -0.850000
v 1.500000 0.937500 0.650000
v 1.500000 0.937500 0.275000
v 1.500000 1.125000 0.275000
v 1.500000 -0.937500 -0.475000
v 1.500000 -0.937500 -0.850000
v 1.500000 -1.125000 -0.475000
f 10 212 210
f 8 199 200
f 2 173 174
f 6 192 190
f 1 164 168
f 5 183 186
f 9 207 205
f 7 197 194
f 3 175 176
f 4 179 180
f 1 166 163
f 2 171 172
f 5 187 185
f 6 191 192
f 11 217 218
f 12 220 221
f 9 206 209
f 10 211 212
f 7 196 195
f 8 202 203
f 4 180 182
f 2 172 173
f 8 203 199
f 12 221 219
f 3 177 175
f 1 167 166
f 7 193 196
f 11 215 217
f 1 165 164
f 1 163 165
f 5 184 183
f 5 185 184
f 11 216 215
f 11 218 216
f 7 198 197
f 7 195 198
f 3 178 177
f 3 176 178
f 9 208 207
f 9 209 208
f 2 174 170
f 6 190 188
f 10 210 213
f 8 200 204
f 9 205 206
f 7 194 193
f 1 168 167
f 5 186 187
f 4 181 179
f 2 170 169
f 2 169 171
f 6 188 189
f 6 189 191
f 12 219 222
f 12 222 220
f 8 204 201
f 10 214 211
f 4 182 181
f 8 201 202
f 10 213 214
f 19 263 264
f 21 276 274
f 39 382 381
f 40 387 388
f 25 298 297
f 17 251 249
f 17 250 252
f 30 328 330
f 15 240 238
f 13 227 225
f 20 267 268
f 28 316 315
f 32 339 340
f 42 400 399
f 37 372 370
f 34 354 352
f 26 306 304
f 24 294 293
f 38 375 376
f 41 396 395
f 27 310 308
f 22 281 278
f 22 280 277
f 33 345 343
f 14 232 229
f 16 246 242
f 35 358 356
f 36 363 361
f 14 233 230
f 15 239 236
f 16 243 241
f 20 269 265
f 30 327 325
f 32 341 337
f 36 366 362
f 37 371 368
f 25 300 296
f 26 305 302
f 35 359 355
f 38 377 373
f 19 264 260
f 21 274 271
f 39 381 379
f 40 388 386
f 25 297 295
f 17 249 247
f 17 252 248
f 30 330 326
f 15 238 235
f 13 225 223
f 20 268 266
f 28 315 313
f 32 340 338
f 42 399 397
f 37 370 367
f 34 352 349
f 26 304 301
f 24 293 289
f 38 376 374
f 41 395 391
f 23 285 283
f 31 333 331
f 23 288 284
f 31 336 332
f 18 257 254
f 29 322 320
f 18 256 253
f 29 323 319
f 24 292 290
f 19 261 259
f 13 228 224
f 21 275 272
f 28 318 314
f 33 348 344
f 42 402 398
f 40 389 385
f 41 394 392
f 27 311 307
f 34 353 350
f 39 384 380
f 23 287 285
f 31 334 333
f 23 286 288
f 31 335 336
f 18 255 257
f 29 321 322
f 18 258 256
f 29 324 323
f 24 291 292
f 19 262 261
f 13 226 228
f 21 273 275
f 28 317 318
f 33 346 348
f 42 401 402
f 40 390 389
f 41 393 394
f 27 312 311
f 34 351 353
f 39 383 384
f 23 284 287
f 31 332 334
f 23 283 286
f 31 331 335
f 18 253 255
f 29 319 321
f 18 254 258
f 29 320 324
f 24 289 291
f 19 260 262
f 13 223 226
f 21 271 273
f 28 313 317
f 33 343 346
f 42 397 401
f 40 386 390
f 41 391 393
f 27 308 312
f 34 349 351
f 39 379 383
f 27 307 309
f 22 277 279
f 22 278 282
f 33 344 347
f 14 230 234
f 16 241 244
f 35 355 357
f 36 362 364
f 14 229 231
f 15 235 237
f 16 242 245
f 20 266 270
f 30 326 329
f 32 338 342
f 36 361 365
f 37 367 369
f 25 295 299
f 26 301 303
f 35 356 360
f 38 374 378
f 19 259 263
f 21 272 276
f 39 380 382
f 40 385 387
f 25 296 298
f 17 248 251
f 17 247 250
f 30 325 328
f 15 236 240
f 13 224 227
f 20 265 267
f 28 314 316
f 32 337 339
f 42 398 400
f 37 368 372
f 34 350 354
f 26 302 306
f 24 290 294
f 38 373 375
f 41 392 396
f 27 309 310
f 22 279 281
f 22 282 280
f 33 347 345
f 14 234 232
f 16 244 246
f 35 357 358
f 36 364 363
f 14 231 233
f 15 237 239
f 16 245 243
f 20 270 269
f 30 329 327
f 32 342 341
f 36 365 366
f 37 369 371
f 25 299 300
f 26 303 305
f 35 360 359
f 38 378 377
f 131 546 552
f 129 516 513
f 128 438 436
f 145 487 491
f 108 419 410
f 115 474 466
f 120 532 537
f 142 499 507
f 109 444 441
f 111 456 453
f 104 406 414
f 123 432 430
f 139 472 476
f 147 492 490
f 157 570 568
f 158 580 577
f 136 542 535
f 137 553 550
f 151 502 505
f 160 526 524
f 122 461 457
f 125 435 433
f 130 514 525
f 149 573 579
f 110 442 447
f 113 415 417
f 118 504 496
f 144 567 562
f 107 409 412
f 103 411 405
f 114 465 468
f 124 469 471
f 143 561 564
f 148 565 569
f 156 508 510
f 152 509 503
f 135 448 450
f 133 449 445
f 155 538 540
f 161 541 543
f 121 427 437
f 127 481 486
f 132 555 547
f 146 527 517
f 119 534 531
f 117 495 498
f 116 418 420
f 141 477 475
f 112 454 459
f 105 423 426
f 106 429 424
f 126 483 480
f 140 489 484
f 150 581 574
f 159 578 582
f 154 521 528
f 138 551 557
f 134 460 462
f 153 523 520
f 162 558 556
f 131 603 602
f 129 608 609
f 128 610 611
f 145 626 625
f 108 591 592
f 115 595 597
f 120 600 599
f 142 624 622
f 109 589 593
f 111 584 587
f 104 586 585
f 123 604 605
f 139 620 619
f 147 628 629
f 157 637 639
f 158 634 636
f 136 616 618
f 137 614 615
f 151 632 631
f 160 640 641
f 92 544 212
f 79 511 199
f 53 434 173
f 72 485 192
f 44 408 164
f 63 464 183
f 87 530 207
f 77 497 197
f 55 439 175
f 59 451 179
f 46 404 166
f 51 428 171
f 67 470 187
f 71 488 191
f 97 566 217
f 100 575 220
f 86 533 206
f 91 548 211
f 76 500 196
f 82 522 202
f 60 455 180
f 52 431 172
f 83 512 203
f 101 571 221
f 57 440 177
f 47 413 167
f 73 494 193
f 95 560 215
f 45 407 165
f 43 403 163
f 64 463 184
f 65 467 185
f 96 559 216
f 98 563 218
f 78 506 198
f 75 501 195
f 58 446 178
f 56 443 176
f 88 536 208
f 89 539 209
f 54 425 174
f 70 479 190
f 90 545 210
f 80 515 200
f 85 529 205
f 74 493 194
f 48 416 168
f 66 473 186
f 61 452 181
f 50 421 170
f 49 422 169
f 68 478 188
f 69 482 189
f 99 572 219
f 102 576 222
f 84 519 204
f 94 549 214
f 62 458 182
f 81 518 201
f 93 554 213
f 121 601 263
f 127 607 276
f 132 612 382
f 146 627 387
f 119 594 298
f 117 596 251
f 116 598 250
f 141 623 328
f 112 590 240
f 105 583 227
f 106 588 267
f 126 606 316
f 140 621 339
f 150 630 400
f 159 638 372
f 154 633 354
f 138 617 306
f 134 613 294
f 153 635 375
f 162 642 396
f 131 552 310
f 129 513 281
f 128 436 280
f 145 491 345
f 108 410 232
f 115 466 246
f 120 537 358
f 142 507 363
f 109 441 233
f 111 453 239
f 104 414 243
f 123 430 269
f 139 476 327
f 147 490 341
f 157 568 366
f 158 577 371
f 136 535 300
f 137 550 305
f 151 505 359
f 160 524 377
f 122 457 264
f 125 433 274
f 130 525 381
f 149 579 388
f 110 447 297
f 113 417 249
f 118 496 252
f 144 562 330
f 107 412 238
f 103 405 225
f 114 468 268
f 124 471 315
f 143 564 340
f 148 569 399
f 156 510 370
f 152 503 352
f 135 450 304
f 133 445 293
f 155 540 376
f 161 543 395
f 121 437 285
f 127 486 333
f 132 547 288
f 146 517 336
f 119 531 257
f 117 498 322
f 116 420 256
f 141 475 323
f 112 459 292
f 105 426 261
f 106 424 228
f 126 480 275
f 140 484 318
f 150 574 348
f 159 582 402
f 154 528 389
f 138 557 394
f 134 462 311
f 153 520 353
f 162 556 384
f 131 602 287
f 129 609 334
f 128 611 286
f 145 625 335
f 108 592 255
f 115 597 321
f 120 599 258
f 142 622 324
f 109 593 291
f 111 587 262
f 104 585 226
f 123 605 273
f 139 619 317
f 147 629 346
f 157 639 401
f 158 636 390
f 136 618 393
f 137 615 312
f 151 631 351
f 160 641 383
f 90 546 284
f 80 516 332
f 54 438 283
f 70 487 331
f 48 419 253
f 66 474 319
f 85 532 254
f 74 499 320
f 56 444 289
f 60 456 260
f 43 406 223
f 52 432 271
f 65 472 313
f 72 492 343
f 98 570 397
f 101 580 386
f 89 542 391
f 92 553 308
f 75 502 349
f 83 526 379
f 62 461 307
f 53 435 277
f 79 514 278
f 99 573 344
f 55 442 230
f 46 415 241
f 76 504 355
f 97 567 362
f 44 409 229
f 45 411 235
f 63 465 242
f 64 469 266
f 95 561 326
f 96 565 338
f 77 508 361
f 78 509 367
f 57 448 295
f 58 449 301
f 87 538 356
f 88 541 374
f 50 427 259
f 68 481 272
f 93 555 380
f 84 527 385
f 86 534 296
f 73 495 248
f 47 418 247
f 67 477 325
f 59 454 236
f 49 423 224
f 51 429 265
f 69 483 314
f 71 489 337
f 102 581 398
f 100 578 368
f 81 521 350
f 91 551 302
f 61 460 290
f 82 523 373
f 94 558 392
f 122 603 309
f 125 608 279
f 130 610 282
f 149 626 347
f 110 591 234
f 113 595 244
f 118 600 357
f 144 624 364
f 107 589 231
f 103 584 237
f 114 586 245
f 124 604 270
f 143 620 329
f 148 628 342
f 156 637 365
f 152 634 369
f 135 616 299
f 133 614 303
f 155 632 360
f 161 640 378
f 90 544 546
f 80 511 516
f 54 434 438
f 70 485 487
f 48 408 419
f 66 464 474
f 85 530 532
f 74 497 499
f 56 439 444
f 60 451 456
f 43 404 406
f 52 428 432
f 65 470 472
f 72 488 492
f 98 566 570
f 101 575 580
f 89 533 542
f 92 548 553
f 75 500 502
f 83 522 526
f 62 455 461
f 53 431 435
f 79 512 514
f 99 571 573
f 55 440 442
f 46 413 415
f 76 494 504
f 97 560 567
f 44 407 409
f 45 403 411
f 63 463 465
f 64 467 469
f 95 559 561
f 96 563 565
f 77 506 508
f 78 501 509
f 57 446 448
f 58 443 449
f 87 536 538
f 88 539 541
f 50 425 427
f 68 479 481
f 93 545 555
f 84 515 527
f 86 529 534
f 73 493 495
f 47 416 418
f 67 473 477
f 59 452 454
f 49 421 423
f 51 422 429
f 69 478 483
f 71 482 489
f 102 572 581
f 100 576 578
f 81 519 521
f 91 549 551
f 61 458 460
f 82 518 523
f 94 554 558
f 122 601 603
f 125 607 608
f 130 612 610
f 149 627 626
f 110 594 591
f 113 596 595
f 118 598 600
f 144 623 624
f 107 590 589
f 103 583 584
f 114 588 586
f 124 606 604
f 143 621 620
f 148 630 628
f 156 638 637
f 152 633 634
f 135 617 616
f 133 613 614
f 155 635 632
f 161 642 640
f 90 210 544
f 80 200 511
f 54 174 434
f 70 190 485
f 48 168 408
f 66 186 464
f 85 205 530
f 74 194 497
f 56 176 439
f 60 180 451
f 43 163 404
f 52 172 428
f 65 185 470
f 72 192 488
f 98 218 566
f 101 221 575
f 89 209 533
f 92 212 548
f 75 195 500
f 83 203 522
f 62 182 455
f 53 173 431
f 79 199 512
f 99 219 571
f 55 175 440
f 46 166 413
f 76 196 494
f 97 217 560
f 44 164 407
f 45 165 403
f 63 183 463
f 64 184 467
f 95 215 559
f 96 216 563
f 77 197 506
f 78 198 501
f 57 177 446
f 58 178 443
f 87 207 536
f 88 208 539
f 50 170 425
f 68 188 479
f 93 213 545
f 84 204 515
f 86 206 529
f 73 193 493
f 47 167 416
f 67 187 473
f 59 179 452
f 49 169 421
f 51 171 422
f 69 189 478
f 71 191 482
f 102 222 572
f 100 220 576
f 81 201 519
f 91 211 549
f 61 181 458
f 82 202 518
f 94 214 554
f 122 264 601
f 125 274 607
f 130 381 612
f 149 388 627
f 110 297 594
f 113 249 596
f 118 252 598
f 144 330 623
f 107 238 590
f 103 225 583
f 114 268 588
f 124 315 606
f 143 340 621
f 148 399 630
f 156 370 638
f 152 352 633
f 135 304 617
f 133 293 613
f 155 376 635
f 161 395 642
f 92 308 552
f 79 278 513
f 53 277 436
f 72 343 491
f 44 229 410
f 63 242 466
f 87 356 537
f 77 361 507
f 55 230 441
f 59 236 453
f 46 241 414
f 51 265 430
f 67 325 476
f 71 337 490
f 97 362 568
f 100 368 577
f 86 296 535
f 91 302 550
f 76 355 505
f 82 373 524
f 60 260 457
f 52 271 433
f 83 379 525
f 101 386 579
f 57 295 447
f 47 247 417
f 73 248 496
f 95 326 562
f 45 235 412
f 43 223 405
f 64 266 468
f 65 313 471
f 96 338 564
f 98 397 569
f 78 367 510
f 75 349 503
f 58 301 450
f 56 289 445
f 88 374 540
f 89 391 543
f 54 283 437
f 70 331 486
f 90 284 547
f 80 332 517
f 85 254 531
f 74 320 498
f 48 253 420
f 66 319 475
f 61 290 459
f 50 259 426
f 49 224 424
f 68 272 480
f 69 314 484
f 99 344 574
f 102 398 582
f 84 385 528
f 94 392 557
f 62 307 462
f 81 350 520
f 93 380 556
f 121 285 602
f 127 333 609
f 132 288 611
f 146 336 625
f 119 257 592
f 117 322 597
f 116 256 599
f 141 323 622
f 112 292 593
f 105 261 587
f 106 228 585
f 126 275 605
f 140 318 619
f 150 348 629
f 159 402 639
f 154 389 636
f 138 394 618
f 134 311 615
f 153 353 631
f 162 384 641
f 131 287 546
f 129 334 516
f 128 286 438
f 145 335 487
f 108 255 419
f 115 321 474
f 120 258 532
f 142 324 499
f 109 291 444
f 111 262 456
f 104 226 406
f 123 273 432
f 139 317 472
f 147 346 492
f 157 401 570
f 158 390 580
f 136 393 542
f 137 312 553
f 151 351 502
f 160 383 526
f 122 309 461
f 125 279 435
f 130 282 514
f 149 347 573
f 110 234 442
f 113 244 415
f 118 357 504
f 144 364 567
f 107 231 409
f 103 237 411
f 114 245 465
f 124 270 469
f 143 329 561
f 148 342 565
f 156 365 508
f 152 369 509
f 135 299 448
f 133 303 449
f 155 360 538
f 161 378 541
f 121 263 427
f 127 276 481
f 132 382 555
f 146 387 527
f 119 298 534
f 117 251 495
f 116 250 418
f 141 328 477
f 112 240 454
f 105 227 423
f 106 267 429
f 126 316 483
f 140 339 489
f 150 400 581
f 159 372 578
f 154 354 521
f 138 306 551
f 134 294 460
f 153 375 523
f 162 396 558
f 131 310 603
f 129 281 608
f 128 280 610
f 145 345 626
f 108 232 591
f 115 246 595
f 120 358 600
f 142 363 624
f 109 233 589
f 111 239 584
f 104 243 586
f 123 269 604
f 139 327 620
f 147 341 628
f 157 366 637
f 158 371 634
f 136 300 616
f 137 305 614
f 151 359 632
f 160 377 640
f 92 552 544
f 79 513 511
f 53 436 434
f 72 491 485
f 44 410 408
f 63 466 464
f 87 537 530
f 77 507 497
f 55 441 439
f 59 453 451
f 46 414 404
f 51 430 428
f 67 476 470
f 71 490 488
f 97 568 566
f 100 577 575
f 86 535 533
f 91 550 548
f 76 505 500
f 82 524 522
f 60 457 455
f 52 433 431
f 83 525 512
f 101 579 571
f 57 447 440
f 47 417 413
f 73 496 494
f 95 562 560
f 45 412 407
f 43 405 403
f 64 468 463
f 65 471 467
f 96 564 559
f 98 569 563
f 78 510 506
f 75 503 501
f 58 450 446
f 56 445 443
f 88 540 536
f 89 543 539
f 54 437 425
f 70 486 479
f 90 547 545
f 80 517 515
f 85 531 529
f 74 498 493
f 48 420 416
f 66 475 473
f 61 459 452
f 50 426 421
f 49 424 422
f 68 480 478
f 69 484 482
f 99 574 572
f 102 582 576
f 84 528 519
f 94 557 549
f 62 462 458
f 81 520 518
f 93 556 554
f 121 602 601
f 127 609 607
f 132 611 612
f 146 625 627
f 119 592 594
f 117 597 596
f 116 599 598
f 141 622 623
f 112 593 590
f 105 587 583
f 106 585 588
f 126 605 606
f 140 619 621
f 150 629 630
f 159 639 638
f 154 636 633
f 138 618 617
f 134 615 613
f 153 631 635
f 162 641 642
f 544 210 212
f 511 200 199
f 434 174 173
f 485 190 192
f 408 168 164
f 464 186 183
f 530 205 207
f 497 194 197
f 439 176 175
f 451 180 179
f 404 163 166
f 428 172 171
f 470 185 187
f 488 192 191
f 566 218 217
f 575 221 220
f 533 209 206
f 548 212 211
f 500 195 196
f 522 203 202
f 455 182 180
f 431 173 172
f 512 199 203
f 571 219 221
f 440 175 177
f 413 166 167
f 494 196 193
f 560 217 215
f 407 164 165
f 403 165 163
f 463 183 184
f 467 184 185
f 559 215 216
f 563 216 218
f 506 197 198
f 501 198 195
f 446 177 178
f 443 178 176
f 536 207 208
f 539 208 209
f 425 170 174
f 479 188 190
f 545 213 210
f 515 204 200
f 529 206 205
f 493 193 194
f 416 167 168
f 473 187 186
f 452 179 181
f 421 169 170
f 422 171 169
f 478 189 188
f 482 191 189
f 572 222 219
f 576 220 222
f 519 201 204
f 549 211 214
f 458 181 182
f 518 202 201
f 554 214 213
f 601 264 263
f 607 274 276
f 612 381 382
f 627 388 387
f 594 297 298
f 596 249 251
f 598 252 250
f 623 330 328
f 590 238 240
f 583 225 227
f 588 268 267
f 606 315 316
f 621 340 339
f 630 399 400
f 638 370 372
f 633 352 354
f 617 304 306
f 613 293 294
f 635 376 375
f 642 395 396
f 552 308 310
f 513 278 281
f 436 277 280
f 491 343 345
f 410 229 232
f 466 242 246
f 537 356 358
f 507 361 363
f 441 230 233
f 453 236 239
f 414 241 243
f 430 265 269
f 476 325 327
f 490 337 341
f 568 362 366
f 577 368 371
f 535 296 300
f 550 302 305
f 505 355 359
f 524 373 377
f 457 260 264
f 433 271 274
f 525 379 381
f 579 386 388
f 447 295 297
f 417 247 249
f 496 248 252
f 562 326 330
f 412 235 238
f 405 223 225
f 468 266 268
f 471 313 315
f 564 338 340
f 569 397 399
f 510 367 370
f 503 349 352
f 450 301 304
f 445 289 293
f 540 374 376
f 543 391 395
f 437 283 285
f 486 331 333
f 547 284 288
f 517 332 336
f 531 254 257
f 498 320 322
f 420 253 256
f 475 319 323
f 459 290 292
f 426 259 261
f 424 224 228
f 480 272 275
f 484 314 318
f 574 344 348
f 582 398 402
f 528 385 389
f 557 392 394
f 462 307 311
f 520 350 353
f 556 380 384
f 602 285 287
f 609 333 334
f 611 288 286
f 625 336 335
f 592 257 255
f 597 322 321
f 599 256 258
f 622 323 324
f 593 292 291
f 587 261 262
f 585 228 226
f 605 275 273
f 619 318 317
f 629 348 346
f 639 402 401
f 636 389 390
f 618 394 393
f 615 311 312
f 631 353 351
f 641 384 383
f 546 287 284
f 516 334 332
f 438 286 283
f 487 335 331
f 419 255 253
f 474 321 319
f 532 258 254
f 499 324 320
f 444 291 289
f 456 262 260
f 406 226 223
f 432 273 271
f 472 317 313
f 492 346 343
f 570 401 397
f 580 390 386
f 542 393 391
f 553 312 308
f 502 351 349
f 526 383 379
f 461 309 307
f 435 279 277
f 514 282 278
f 573 347 344
f 442 234 230
f 415 244 241
f 504 357 355
f 567 364 362
f 409 231 229
f 411 237 235
f 465 245 242
f 469 270 266
f 561 329 326
f 565 342 338
f 508 365 361
f 509 369 367
f 448 299 295
f 449 303 301
f 538 360 356
f 541 378 374
f 427 263 259
f 481 276 272
f 555 382 380
f 527 387 385
f 534 298 296
f 495 251 248
f 418 250 247
f 477 328 325
f 454 240 236
f 423 227 224
f 429 267 265
f 483 316 314
f 489 339 337
f 581 400 398
f 578 372 368
f 521 354 350
f 551 306 302
f 460 294 290
f 523 375 373
f 558 396 392
f 603 310 309
f 608 281 279
f 610 280 282
f 626 345 347
f 591 232 234
f 595 246 244
f 600 358 357
f 624 363 364
f 589 233 231
f 584 239 237
f 586 243 245
f 604 269 270
f 620 327 329
f 628 341 342
f 637 366 365
f 634 371 369
f 616 300 299
f 614 305 303
f 632 359 360
f 640 377 378
f 544 552 546
f 511 513 516
f 434 436 438
f 485 491 487
f 408 410 419
f 464 466 474
f 530 537 532
f 497 507 499
f 439 441 444
f 451 453 456
f 404 414 406
f 428 430 432
f 470 476 472
f 488 490 492
f 566 568 570
f 575 577 580
f 533 535 542
f 548 550 553
f 500 505 502
f 522 524 526
f 455 457 461
f 431 433 435
f 512 525 514
f 571 579 573
f 440 447 442
f 413 417 415
f 494 496 504
f 560 562 567
f 407 412 409
f 403 405 411
f 463 468 465
f 467 471 469
f 559 564 561
f 563 569 565
f 506 510 508
f 501 503 509
f 446 450 448
f 443 445 449
f 536 540 538
f 539 543 541
f 425 437 427
f 479 486 481
f 545 547 555
f 515 517 527
f 529 531 534
f 493 498 495
f 416 420 418
f 473 475 477
f 452 459 454
f 421 426 423
f 422 424 429
f 478 480 483
f 482 484 489
f 572 574 581
f 576 582 578
f 519 528 521
f 549 557 551
f 458 462 460
f 518 520 523
f 554 556 558
f 601 602 603
f 607 609 608
f 612 611 610
f 627 625 626
f 594 592 591
f 596 597 595
f 598 599 600
f 623 622 624
f 590 593 589
f 583 587 584
f 588 585 586
f 606 605 604
f 621 619 620
f 630 629 628
f 638 639 637
f 633 636 634
f 617 618 616
f 613 615 614
f 635 631 632
f 642 641 640