v -1.500000 0.000000 1.400000
v -1.500000 0.000000 -1.600000
v -1.500000 -1.500000 1.400000
v -1.500000 -1.500000 -1.600000
v -1.500000 1.500000 1.400000
v -1.500000 1.500000 -1.600000
v 1.500000 0.000000 1.400000
v 1.500000 0.000000 -1.600000
v 1.500000 -1.500000 1.400000
v 1.500000 -1.500000 -1.600000
v 1.500000 1.500000 1.400000
v 1.500000 1.500000 -1.600000
v -1.500000 0.000000 -0.100000
v -1.500000 -0.750000 1.400000
v -1.500000 -0.750000 -0.100000
v -1.500000 0.750000 1.400000
v 0.000000 0.000000 1.400000
v 0.000000 -0.750000 1.400000
v -1.500000 -0.750000 -1.600000
v -1.500000 0.750000 -0.100000
v -1.500000 0.750000 -1.600000
v 0.000000 0.000000 -1.600000
v 0.000000 -0.750000 -1.600000
v -1.500000 -1.500000 -0.100000
v 0.000000 -1.500000 1.400000
v 0.000000 -1.500000 -0.100000
v 0.000000 -1.500000 -1.600000
v -1.500000 1.500000 -0.100000
v 0.000000 0.750000 1.400000
v 0.000000 1.500000 1.400000
v 0.000000 0.750000 -1.600000
v 0.000000 1.500000 -0.100000
v 0.000000 1.500000 -1.600000
v 1.500000 0.000000 -0.100000
v 1.500000 -0.750000 1.400000
v 1.500000 0.750000 1.400000
v 1.500000 0.750000 -0.100000
v 1.500000 -0.750000 -0.100000
v 1.500000 -0.750000 -1.600000
v 1.500000 0.750000 -1.600000
v 1.500000 -1.500000 -0.100000
v 1.500000 1.500000 -0.100000
f 10 27 23
f 8 22 31
f 2 22 23
f 6 33 31
f 1 14 18
f 5 16 29
f 9 35 18
f 7 36 29
f 3 14 24
f 4 15 19
f 1 16 13
f 2 20 21
f 5 30 28
f 6 32 33
f 11 36 42
f 12 37 40
f 9 25 41
f 10 26 27
f 7 35 34
f 8 38 39
f 4 19 27
f 2 21 22
f 8 39 22
f 12 40 33
f 3 25 14
f 1 17 16
f 7 17 35
f 11 30 36
f 1 15 14
f 1 13 15
f 5 20 16
f 5 28 20
f 11 32 30
f 11 42 32
f 7 37 36
f 7 34 37
f 3 26 25
f 3 24 26
f 9 38 35
f 9 41 38
f 2 23 19
f 6 31 21
f 10 23 39
f 8 31 40
f 9 18 25
f 7 29 17
f 1 18 17
f 5 29 30
f 4 24 15
f 2 19 13
f 2 13 20
f 6 21 28
f 6 28 32
f 12 33 42
f 12 42 37
f 8 40 34
f 10 41 26
f 4 27 24
f 8 34 38
f 10 39 41
f 19 23 27
f 21 31 22
f 39 23 22
f 40 31 33
f 25 18 14
f 17 29 16
f 17 18 35
f 30 29 36
f 15 24 14
f 13 19 15
f 20 13 16
f 28 21 20
f 32 28 30
f 42 33 32
f 37 42 36
f 34 40 37
f 26 41 25
f 24 27 26
f 38 34 35
f 41 39 38