v -1.500000 0.000000 1.400000
v -1.500000 0.000000 -1.600000
v -1.500000 -1.500000 1.400000
v -1.500000 -1.500000 -1.600000
v -1.500000 1.500000 1.400000
v -1.500000 1.500000 -1.600000
v 1.500000 0.000000 1.400000
v 1.500000 0.000000 -1.600000
v 1.500000 -1.500000 1.400000
v 1.500000 -1.500000 -1.600000
v 1.500000 1.500000 1.400000
v 1.500000 1.500000 -1.600000
v -1.500000 0.000000 -0.100000
v -1.500000 -0.750000 1.400000
v -1.500000 -0.750000 -0.100000
v -1.500000 0.750000 1.400000
v 0.000000 0.000000 1.400000
v 0.000000 -0.750000 1.400000
v -1.500000 -0.750000 -1.600000
v -1.500000 0.750000 -0.100000
v -1.500000 0.750000 -1.600000
v 0.000000 0.000000 -1.600000
v 0.000000 -0.750000 -1.600000
v -1.500000 -1.500000 -0.100000
v 0.000000 -1.500000 1.400000
v 0.000000 -1.500000 -0.100000
v 0.000000 -1.500000 -1.600000
v -1.500000 1.500000 -0.100000
v 0.000000 0.750000 1.400000
v 0.000000 1.500000 1.400000
v 0.000000 0.750000 -1.600000
v 0.000000 1.500000 -0.100000
v 0.000000 1.500000 -1.600000
v 1.500000 0.000000 -0.100000
v 1.500000 -0.750000 1.400000
v 1.500000 0.750000 1.400000
v 1.500000 0.750000 -0.100000
v 1.500000 -0.750000 -0.100000
v 1.500000 -0.750000 -1.600000
v 1.500000 0.750000 -1.600000
v 1.500000 -1.500000 -0.100000
v 1.500000 1.500000 -0.100000
v -1.500000 0.000000 0.650000
v -1.500000 -0.375000 1.400000
v -1.500000 -0.375000 0.650000
v -1.500000 0.375000 1.400000
v -0.750000 0.000000 1.400000
v -0.750000 -0.375000 1.400000
v -1.500000 0.000000 -0.850000
v -1.500000 -0.375000 -1.600000
v -1.500000 0.375000 -0.850000
v -1.500000 0.375000 -1.600000
v -0.750000 0.000000 -1.600000
v -0.750000 -0.375000 -1.600000
v -1.500000 -1.125000 1.400000
v -1.500000 -1.500000 0.650000
v -0.750000 -1.500000 1.400000
v -0.750000 -1.500000 0.650000
v -1.500000 -1.125000 -0.850000
v -1.500000 -1.125000 -1.600000
v -1.500000 -1.500000 -0.850000
v -0.750000 -1.500000 -1.600000
v -1.500000 1.125000 1.400000
v -1.500000 1.125000 0.650000
v -1.500000 1.500000 0.650000
v -0.750000 1.125000 1.400000
v -0.750000 1.500000 1.400000
v -1.500000 1.125000 -1.600000
v -1.500000 1.500000 -0.850000
v -0.750000 1.125000 -1.600000
v -0.750000 1.500000 -0.850000
v -0.750000 1.500000 -1.600000
v 0.750000 0.000000 1.400000
v 0.750000 0.375000 1.400000
v 1.500000 0.000000 0.650000
v 1.500000 -0.375000 1.400000
v 1.500000 0.375000 1.400000
v 1.500000 0.375000 0.650000
v 0.750000 0.000000 -1.600000
v 0.750000 0.375000 -1.600000
v 1.500000 0.000000 -0.850000
v 1.500000 -0.375000 -0.850000
v 1.500000 -0.375000 -1.600000
v 1.500000 0.375000 -1.600000
v 0.750000 -1.125000 1.400000
v 0.750000 -1.500000 1.400000
v 1.500000 -1.125000 1.400000
v 1.500000 -1.125000 0.650000
v 1.500000 -1.500000 0.650000
v 0.750000 -1.125000 -1.600000
v 0.750000 -1.500000 -0.850000
v 0.750000 -1.500000 -1.600000
v 1.500000 -1.125000 -1.600000
v 1.500000 -1.500000 -0.850000
v 0.750000 1.500000 1.400000
v 0.750000 1.500000 0.650000
v 1.500000 1.125000 1.400000
v 1.500000 1.500000 0.650000
v 0.750000 1.500000 -1.600000
v 1.500000 1.125000 -0.850000
v 1.500000 1.125000 -1.600000
v 1.500000 1.500000 -0.850000
v -1.500000 -0.375000 -0.100000
v -1.500000 0.375000 0.650000
v -1.500000 -0.375000 -0.850000
v -1.500000 0.375000 -0.100000
v -1.500000 -0.750000 0.650000
v -0.750000 -0.750000 1.400000
v -1.500000 -1.125000 0.650000
v -0.750000 -1.125000 1.400000
v -1.500000 -0.750000 -0.850000
v -1.500000 -1.125000 -0.100000
v -0.750000 0.375000 1.400000
v -1.500000 0.750000 0.650000
v -0.750000 0.750000 1.400000
v 0.000000 -0.375000 1.400000
v 0.000000 0.375000 1.400000
v 0.750000 -0.375000 1.400000
v 0.000000 -1.125000 1.400000
v 0.750000 -0.750000 1.400000
v -0.750000 -0.750000 -1.600000
v -0.750000 -1.125000 -1.600000
v -1.500000 0.750000 -0.850000
v -1.500000 1.125000 -0.100000
v -0.750000 0.375000 -1.600000
v -1.500000 1.125000 -0.850000
v -0.750000 0.750000 -1.600000
v 0.000000 -0.375000 -1.600000
v 0.000000 0.375000 -1.600000
v 0.750000 -0.375000 -1.600000
v 0.000000 -1.125000 -1.600000
v 0.750000 -0.750000 -1.600000
v -0.750000 -1.500000 -0.100000
v -0.750000 -1.500000 -0.850000
v 0.000000 -1.500000 0.650000
v 0.750000 -1.500000 0.650000
v 0.000000 -1.500000 -0.850000
v 0.750000 -1.500000 -0.100000
v -0.750000 1.500000 0.650000
v -0.750000 1.500000 -0.100000
v 0.000000 1.125000 1.400000
v 0.750000 0.750000 1.400000
v 0.000000 1.500000 0.650000
v 0.750000 1.125000 1.400000
v 0.000000 1.125000 -1.600000
v 0.750000 0.750000 -1.600000
v 0.000000 1.500000 -0.850000
v 0.750000 1.500000 -0.100000
v 0.750000 1.125000 -1.600000
v 0.750000 1.500000 -0.850000
v 1.500000 -0.375000 0.650000
v 1.500000 0.375000 -0.100000
v 1.500000 -0.375000 -0.100000
v 1.500000 0.375000 -0.850000
v 1.500000 -0.750000 0.650000
v 1.500000 0.750000 0.650000
v 1.500000 1.125000 0.650000
v 1.500000 0.750000 -0.850000
v 1.500000 1.125000 -0.100000
v 1.500000 -0.750000 -0.850000
v 1.500000 -1.125000 -0.100000
v 1.500000 -1.125000 -0.850000
f 10 92 90
f 8 79 80
f 2 53 54
f 6 72 70
f 1 44 48
f 5 63 66
f 9 87 85
f 7 77 74
f 3 55 56
f 4 59 60
f 1 46 43
f 2 51 52
f 5 67 65
f 6 71 72
f 11 97 98
f 12 100 101
f 9 86 89
f 10 91 92
f 7 76 75
f 8 82 83
f 4 60 62
f 2 52 53
f 8 83 79
f 12 101 99
f 3 57 55
f 1 47 46
f 7 73 76
f 11 95 97
f 1 45 44
f 1 43 45
f 5 64 63
f 5 65 64
f 11 96 95
f 11 98 96
f 7 78 77
f 7 75 78
f 3 58 57
f 3 56 58
f 9 88 87
f 9 89 88
f 2 54 50
f 6 70 68
f 10 90 93
f 8 80 84
f 9 85 86
f 7 74 73
f 1 48 47
f 5 66 67
f 4 61 59
f 2 50 49
f 2 49 51
f 6 68 69
f 6 69 71
f 12 99 102
f 12 102 100
f 8 84 81
f 10 94 91
f 4 62 61
f 8 81 82
f 10 93 94
f 19 121 122
f 21 127 125
f 39 132 130
f 40 146 149
f 25 119 110
f 17 117 113
f 17 116 118
f 30 141 144
f 15 112 107
f 13 105 103
f 20 106 114
f 28 126 124
f 32 140 143
f 42 150 148
f 37 159 156
f 34 154 152
f 26 138 135
f 24 134 133
f 38 153 155
f 41 162 161
f 27 131 92
f 22 129 79
f 22 128 53
f 33 145 72
f 14 108 44
f 16 115 63
f 35 120 87
f 36 142 77
f 14 109 55
f 15 111 59
f 16 104 46
f 20 123 51
f 30 139 67
f 32 147 71
f 36 157 97
f 37 158 100
f 25 136 86
f 26 137 91
f 35 151 76
f 38 160 82
f 19 122 60
f 21 125 52
f 39 130 83
f 40 149 101
f 25 110 57
f 17 113 47
f 17 118 73
f 30 144 95
f 15 107 45
f 13 103 43
f 20 114 64
f 28 124 65
f 32 143 96
f 42 148 98
f 37 156 78
f 34 152 75
f 26 135 58
f 24 133 56
f 38 155 88
f 41 161 89
f 23 121 54
f 31 127 70
f 23 132 90
f 31 146 80
f 18 119 85
f 29 117 74
f 18 116 48
f 29 141 66
f 24 112 61
f 19 105 50
f 13 106 49
f 21 126 68
f 28 140 69
f 33 150 99
f 42 159 102
f 40 154 84
f 41 138 94
f 27 134 62
f 34 153 81
f 39 162 93
f 23 131 121
f 31 129 127
f 23 128 132
f 31 145 146
f 18 108 119
f 29 115 117
f 18 120 116
f 29 142 141
f 24 109 112
f 19 111 105
f 13 104 106
f 21 123 126
f 28 139 140
f 33 147 150
f 42 157 159
f 40 158 154
f 41 136 138
f 27 137 134
f 34 151 153
f 39 160 162
f 23 90 131
f 31 80 129
f 23 54 128
f 31 70 145
f 18 48 108
f 29 66 115
f 18 85 120
f 29 74 142
f 24 56 109
f 19 60 111
f 13 43 104
f 21 52 123
f 28 65 139
f 33 72 147
f 42 98 157
f 40 101 158
f 41 89 136
f 27 92 137
f 34 75 151
f 39 83 160
f 27 62 122
f 22 53 125
f 22 79 130
f 33 99 149
f 14 55 110
f 16 46 113
f 35 76 118
f 36 97 144
f 14 44 107
f 15 45 103
f 16 63 114
f 20 64 124
f 30 95 143
f 32 96 148
f 36 77 156
f 37 78 152
f 25 57 135
f 26 58 133
f 35 87 155
f 38 88 161
f 19 50 121
f 21 68 127
f 39 93 132
f 40 84 146
f 25 86 119
f 17 73 117
f 17 47 116
f 30 67 141
f 15 59 112
f 13 49 105
f 20 51 106
f 28 69 126
f 32 71 140
f 42 102 150
f 37 100 159
f 34 81 154
f 26 91 138
f 24 61 134
f 38 82 153
f 41 94 162
f 27 122 131
f 22 125 129
f 22 130 128
f 33 149 145
f 14 110 108
f 16 113 115
f 35 118 120
f 36 144 142
f 14 107 109
f 15 103 111
f 16 114 104
f 20 124 123
f 30 143 139
f 32 148 147
f 36 156 157
f 37 152 158
f 25 135 136
f 26 133 137
f 35 155 151
f 38 161 160
f 131 90 92
f 129 80 79
f 128 54 53
f 145 70 72
f 108 48 44
f 115 66 63
f 120 85 87
f 142 74 77
f 109 56 55
f 111 60 59
f 104 43 46
f 123 52 51
f 139 65 67
f 147 72 71
f 157 98 97
f 158 101 100
f 136 89 86
f 137 92 91
f 151 75 76
f 160 83 82
f 122 62 60
f 125 53 52
f 130 79 83
f 149 99 101
f 110 55 57
f 113 46 47
f 118 76 73
f 144 97 95
f 107 44 45
f 103 45 43
f 114 63 64
f 124 64 65
f 143 95 96
f 148 96 98
f 156 77 78
f 152 78 75
f 135 57 58
f 133 58 56
f 155 87 88
f 161 88 89
f 121 50 54
f 127 68 70
f 132 93 90
f 146 84 80
f 119 86 85
f 117 73 74
f 116 47 48
f 141 67 66
f 112 59 61
f 105 49 50
f 106 51 49
f 126 69 68
f 140 71 69
f 150 102 99
f 159 100 102
f 154 81 84
f 138 91 94
f 134 61 62
f 153 82 81
f 162 94 93
f 131 122 121
f 129 125 127
f 128 130 132
f 145 149 146
f 108 110 119
f 115 113 117
f 120 118 116
f 142 144 141
f 109 107 112
f 111 103 105
f 104 114 106
f 123 124 126
f 139 143 140
f 147 148 150
f 157 156 159
f 158 152 154
f 136 135 138
f 137 133 134
f 151 155 153
f 160 161 162