v 0.000000 -1.500000 1.400000
v 0.000000 -1.500000 -1.600000
v 0.000000 1.500000 1.400000
v 0.000000 1.500000 -1.600000
v -0.750000 -1.500000 1.400000
v -0.750000 -1.500000 -1.600000
v -0.750000 1.500000 1.400000
v -0.750000 1.500000 -1.600000
v -1.500000 0.000000 1.400000
v -1.500000 0.000000 -1.600000
v -1.500000 -0.750000 1.400000
v -1.500000 -0.750000 -1.600000
v -1.500000 -1.500000 1.400000
v -1.500000 -1.500000 -1.600000
v -1.500000 1.500000 1.400000
v -1.500000 1.500000 -1.600000
v -1.500000 0.750000 1.400000
v -1.500000 0.750000 -1.600000
v 1.500000 0.000000 1.400000
v 1.500000 0.000000 -1.600000
v 1.500000 -0.750000 1.400000
v 1.500000 -0.750000 -1.600000
v 1.500000 -1.500000 1.400000
v 1.500000 -1.500000 -1.600000
v 1.500000 1.500000 1.400000
v 1.500000 1.500000 -1.600000
v 1.500000 0.750000 1.400000
v 1.500000 0.750000 -1.600000
v 0.750000 -1.500000 1.400000
v 0.750000 -1.500000 -1.600000
v 0.750000 1.500000 1.400000
v 0.750000 1.500000 -1.600000
v 0.000000 -1.500000 -0.100000
v -0.375000 -1.500000 1.400000
v -0.750000 -0.750000 1.400000
v -0.750000 -1.125000 1.400000
v 0.750000 -0.750000 1.400000
v 0.375000 -1.500000 1.400000
v 0.375000 -1.500000 -0.100000
v -0.375000 -1.500000 -0.100000
v -0.375000 -1.500000 -1.600000
v -0.750000 -0.750000 -1.600000
v -0.750000 -1.125000 -1.600000
v 0.750000 -0.750000 -1.600000
v 0.375000 -1.500000 -1.600000
v 0.000000 1.500000 -0.100000
v -0.375000 1.500000 1.400000
v -0.375000 1.500000 -0.100000
v -0.750000 0.750000 1.400000
v 0.750000 0.750000 1.400000
v 0.750000 1.125000 1.400000
v 0.375000 1.500000 1.400000
v -0.375000 1.500000 -1.600000
v -0.750000 0.750000 -1.600000
v 0.750000 0.750000 -1.600000
v 0.750000 1.125000 -1.600000
v 0.375000 1.500000 -0.100000
v 0.375000 1.500000 -1.600000
v -0.750000 -1.500000 -0.100000
v -1.125000 -1.125000 1.400000
v -1.125000 -1.500000 1.400000
v -1.125000 -1.125000 -1.600000
v -1.125000 -1.500000 -0.100000
v -1.125000 -1.500000 -1.600000
v -0.750000 1.500000 -0.100000
v -1.125000 0.750000 1.400000
v -1.125000 1.500000 1.400000
v -1.125000 1.500000 -0.100000
v -1.125000 1.125000 1.400000
v -1.125000 0.750000 -1.600000
v -1.125000 1.500000 -1.600000
v -1.125000 1.125000 -1.600000
v -1.500000 0.000000 -0.100000
v -1.500000 -0.375000 1.400000
v -1.500000 -0.375000 -0.100000
v -1.500000 0.375000 1.400000
v 0.000000 0.000000 1.400000
v -1.500000 -0.375000 -1.600000
v -1.500000 0.375000 -0.100000
v -1.500000 0.375000 -1.600000
v 0.000000 0.000000 -1.600000
v -1.500000 -0.750000 -0.100000
v -1.500000 -1.125000 1.400000
v -1.500000 -1.125000 -0.100000
v -1.500000 -1.125000 -1.600000
v -1.500000 -1.500000 -0.100000
v -1.500000 1.500000 -0.100000
v -1.500000 1.125000 1.400000
v -1.500000 1.125000 -0.100000
v -1.500000 1.125000 -1.600000
v -1.500000 0.750000 -0.100000
v 1.500000 0.000000 -0.100000
v 1.500000 -0.375000 1.400000
v 1.500000 0.375000 1.400000
v 1.500000 0.375000 -0.100000
v 1.125000 -0.750000 1.400000
v 1.500000 -0.375000 -0.100000
v 1.500000 -0.375000 -1.600000
v 1.500000 0.375000 -1.600000
v 1.125000 -0.750000 -1.600000
v 1.500000 -0.750000 -0.100000
v 1.500000 -1.125000 1.400000
v 1.125000 -1.125000 1.400000
v 1.500000 -1.125000 -0.100000
v 1.500000 -1.125000 -1.600000
v 1.125000 -1.125000 -1.600000
v 1.500000 -1.500000 -0.100000
v 1.125000 -1.500000 1.400000
v 1.125000 -1.500000 -0.100000
v 1.125000 -1.500000 -1.600000
v 1.500000 1.500000 -0.100000
v 1.500000 1.125000 1.400000
v 1.125000 1.500000 1.400000
v 1.125000 1.500000 -0.100000
v 1.500000 1.125000 -0.100000
v 1.500000 1.125000 -1.600000
v 1.125000 1.500000 -1.600000
v 1.500000 0.750000 -0.100000
v 1.125000 1.125000 1.400000
v 1.125000 1.125000 -1.600000
v 0.750000 -1.500000 -0.100000
v 0.750000 1.500000 -0.100000
f 6 64 62
f 12 43 62
f 10 42 78
f 8 70 72
f 18 90 72
f 4 54 53
f 20 44 81
f 22 105 106
f 30 100 106
f 10 54 81
f 28 56 120
f 32 117 120
f 28 99 56
f 30 45 100
f 11 83 60
f 5 34 60
f 11 36 74
f 17 76 69
f 7 67 69
f 7 66 47
f 9 35 77
f 29 108 103
f 21 93 103
f 19 50 77
f 31 52 119
f 27 112 119
f 3 50 51
f 19 37 96
f 13 83 86
f 14 84 85
f 11 74 82
f 12 75 78
f 9 76 73
f 10 79 80
f 17 88 91
f 18 89 90
f 15 67 87
f 16 68 71
f 7 47 65
f 8 48 53
f 3 52 46
f 4 57 58
f 31 113 122
f 32 114 117
f 25 112 111
f 26 115 116
f 27 94 118
f 28 95 99
f 19 93 92
f 20 97 98
f 21 102 101
f 22 104 105
f 23 108 107
f 24 109 110
f 29 38 121
f 30 39 45
f 5 61 59
f 6 63 64
f 1 34 33
f 2 40 41
f 14 85 64
f 2 41 43
f 2 43 42
f 10 80 70
f 16 71 90
f 10 70 54
f 2 42 44
f 24 110 105
f 20 98 100
f 4 55 54
f 4 58 56
f 26 116 117
f 20 55 99
f 2 44 45
f 13 61 83
f 1 36 34
f 1 35 36
f 9 66 76
f 15 88 67
f 9 49 66
f 1 37 35
f 23 102 108
f 19 96 93
f 3 49 50
f 3 51 52
f 25 113 112
f 19 94 50
f 1 38 37
f 11 84 83
f 11 82 84
f 9 75 74
f 9 73 75
f 17 79 76
f 17 91 79
f 15 89 88
f 15 87 89
f 7 68 67
f 7 65 68
f 3 48 47
f 3 46 48
f 31 57 52
f 31 122 57
f 25 114 113
f 25 111 114
f 27 115 112
f 27 118 115
f 19 95 94
f 19 92 95
f 21 97 93
f 21 101 97
f 23 104 102
f 23 107 104
f 29 109 108
f 29 121 109
f 1 39 38
f 1 33 39
f 13 63 61
f 13 86 63
f 5 40 34
f 5 59 40
f 12 62 85
f 6 62 41
f 12 78 43
f 18 72 80
f 8 72 71
f 8 53 70
f 10 81 42
f 30 106 110
f 22 106 98
f 20 81 55
f 32 120 58
f 28 120 116
f 4 56 55
f 20 100 44
f 5 60 61
f 11 60 36
f 9 74 35
f 7 69 66
f 17 69 88
f 3 47 49
f 19 77 37
f 21 103 102
f 29 103 96
f 9 77 49
f 27 119 51
f 31 119 113
f 27 51 94
f 29 96 38
f 14 86 84
f 12 85 82
f 12 82 75
f 10 78 73
f 10 73 79
f 18 80 91
f 18 91 89
f 16 90 87
f 16 87 68
f 8 71 65
f 8 65 48
f 4 53 46
f 4 46 57
f 32 58 122
f 32 122 114
f 26 117 111
f 26 111 115
f 28 116 118
f 28 118 95
f 20 99 92
f 20 92 97
f 22 98 101
f 22 101 104
f 24 105 107
f 24 107 109
f 30 110 121
f 30 121 39
f 2 45 33
f 6 59 63
f 14 64 86
f 2 33 40
f 6 41 59
f 85 62 64
f 41 62 43
f 43 78 42
f 80 72 70
f 71 72 90
f 70 53 54
f 42 81 44
f 110 106 105
f 98 106 100
f 55 81 54
f 58 120 56
f 116 120 117
f 55 56 99
f 44 100 45
f 61 60 83
f 36 60 34
f 35 74 36
f 66 69 76
f 88 69 67
f 49 47 66
f 37 77 35
f 102 103 108
f 96 103 93
f 49 77 50
f 51 119 52
f 113 119 112
f 94 51 50
f 38 96 37
f 84 86 83
f 82 85 84
f 75 82 74
f 73 78 75
f 79 73 76
f 91 80 79
f 89 91 88
f 87 90 89
f 68 87 67
f 65 71 68
f 48 65 47
f 46 53 48
f 57 46 52
f 122 58 57
f 114 122 113
f 111 117 114
f 115 111 112
f 118 116 115
f 95 118 94
f 92 99 95
f 97 92 93
f 101 98 97
f 104 101 102
f 107 105 104
f 109 107 108
f 121 110 109
f 39 121 38
f 33 45 39
f 63 59 61
f 86 64 63
f 40 33 34
f 59 41 40