v -1.500000 -1.500000 1.400000
v -1.500000 -1.500000 -1.600000
v -1.500000 -0.300000 1.400000
v -1.500000 -0.300000 -1.600000
v -1.500000 0.900000 1.400000
v -1.500000 0.900000 -1.600000
v -1.500000 -0.900000 1.400000
v -1.500000 -0.900000 -1.600000
v -1.500000 0.300000 1.400000
v -1.500000 0.300000 -1.600000
v -1.500000 1.500000 1.400000
v -1.500000 1.500000 -1.600000
v -0.300000 -1.500000 1.400000
v -0.300000 -1.500000 -1.600000
v -0.300000 1.500000 1.400000
v -0.300000 1.500000 -1.600000
v 0.900000 -1.500000 1.400000
v 0.900000 -1.500000 -1.600000
v 0.900000 1.500000 1.400000
v 0.900000 1.500000 -1.600000
v -0.900000 -1.500000 1.400000
v -0.900000 -1.500000 -1.600000
v -0.900000 1.500000 1.400000
v -0.900000 1.500000 -1.600000
v 0.300000 -1.500000 1.400000
v 0.300000 -1.500000 -1.600000
v 0.300000 1.500000 1.400000
v 0.300000 1.500000 -1.600000
v 1.500000 -1.500000 1.400000
v 1.500000 -1.500000 -1.600000
v 1.500000 -0.300000 1.400000
v 1.500000 -0.300000 -1.600000
v 1.500000 0.900000 1.400000
v 1.500000 0.900000 -1.600000
v 1.500000 -0.900000 1.400000
v 1.500000 -0.900000 -1.600000
v 1.500000 0.300000 1.400000
v 1.500000 0.300000 -1.600000
v 1.500000 1.500000 1.400000
v 1.500000 1.500000 -1.600000
v -1.500000 -1.500000 -0.100000
v -1.500000 -1.200000 1.400000
v -1.200000 -1.500000 1.400000
v -1.200000 -1.500000 -0.100000
v -1.500000 -1.200000 -0.100000
v -1.500000 -1.200000 -1.600000
v -1.200000 -1.500000 -1.600000
v -1.500000 -0.300000 -0.100000
v -1.500000 -0.600000 1.400000
v -1.500000 -0.600000 -0.100000
v -1.500000 0.000000 1.400000
v -0.900000 -0.900000 1.400000
v -0.900000 0.600000 1.400000
v -1.200000 -0.900000 1.400000
v -1.500000 -0.600000 -1.600000
v -1.500000 0.000000 -0.100000
v -1.500000 0.000000 -1.600000
v -0.900000 -0.900000 -1.600000
v -0.900000 0.600000 -1.600000
v -1.200000 -0.900000 -1.600000
v -1.500000 0.900000 -0.100000
v -1.500000 0.600000 1.400000
v -1.500000 0.600000 -0.100000
v -1.500000 1.200000 1.400000
v -0.900000 1.200000 1.400000
v -1.200000 1.200000 1.400000
v -1.500000 0.600000 -1.600000
v -1.500000 1.200000 -0.100000
v -1.500000 1.200000 -1.600000
v -0.900000 1.200000 -1.600000
v -1.200000 1.200000 -1.600000
v -1.500000 -0.900000 -0.100000
v -1.200000 -1.200000 1.400000
v -1.200000 -1.200000 -1.600000
v -1.500000 0.300000 -0.100000
v -0.900000 0.900000 1.400000
v -0.900000 0.900000 -1.600000
v -1.500000 1.500000 -0.100000
v -1.200000 1.500000 1.400000
v -1.200000 1.500000 -0.100000
v -1.200000 1.500000 -1.600000
v -0.300000 -1.500000 -0.100000
v -0.300000 0.000000 1.400000
v -0.600000 -1.500000 1.400000
v 0.000000 -1.500000 1.400000
v 0.000000 -1.500000 -0.100000
v -0.300000 0.000000 -1.600000
v -0.600000 -1.500000 -0.100000
v -0.600000 -1.500000 -1.600000
v 0.000000 -1.500000 -1.600000
v -0.300000 1.500000 -0.100000
v -0.600000 1.500000 1.400000
v -0.600000 1.500000 -0.100000
v 0.000000 0.000000 1.400000
v 0.000000 1.500000 1.400000
v -0.600000 1.500000 -1.600000
v 0.000000 0.000000 -1.600000
v 0.000000 1.500000 -0.100000
v 0.000000 1.500000 -1.600000
v 0.900000 -1.500000 -0.100000
v 0.600000 -1.500000 1.400000
v 1.200000 -1.500000 1.400000
v 1.200000 -1.500000 -0.100000
v 1.200000 -1.200000 1.400000
v 0.600000 -1.500000 -0.100000
v 0.600000 -1.500000 -1.600000
v 1.200000 -1.500000 -1.600000
v 1.200000 -1.200000 -1.600000
v 0.900000 1.500000 -0.100000
v 0.600000 1.500000 1.400000
v 0.600000 1.500000 -0.100000
v 1.200000 1.200000 1.400000
v 1.200000 0.900000 1.400000
v 1.200000 1.500000 1.400000
v 0.600000 1.500000 -1.600000
v 1.200000 1.200000 -1.600000
v 1.200000 0.900000 -1.600000
v 1.200000 1.500000 -0.100000
v 1.200000 1.500000 -1.600000
v -0.900000 -1.500000 -0.100000
v -0.900000 1.500000 -0.100000
v 0.300000 -1.500000 -0.100000
v 0.300000 0.000000 1.400000
v 0.900000 -0.900000 1.400000
v 0.900000 -1.200000 1.400000
v 0.900000 -0.600000 1.400000
v 0.300000 0.000000 -1.600000
v 0.900000 -0.900000 -1.600000
v 0.900000 -1.200000 -1.600000
v 0.900000 -0.600000 -1.600000
v 0.300000 1.500000 -0.100000
v 0.900000 0.900000 1.400000
v 0.900000 0.900000 -1.600000
v 1.500000 -1.500000 -0.100000
v 1.500000 -1.200000 1.400000
v 1.500000 -1.200000 -0.100000
v 1.500000 -1.200000 -1.600000
v 1.500000 -0.300000 -0.100000
v 1.500000 -0.600000 1.400000
v 1.500000 0.000000 1.400000
v 1.500000 0.000000 -0.100000
v 1.500000 -0.600000 -0.100000
v 1.500000 -0.600000 -1.600000
v 1.500000 0.000000 -1.600000
v 1.500000 0.900000 -0.100000
v 1.500000 0.600000 1.400000
v 1.500000 1.200000 1.400000
v 1.500000 1.200000 -0.100000
v 1.500000 0.600000 -0.100000
v 1.500000 0.600000 -1.600000
v 1.500000 1.200000 -1.600000
v 1.500000 -0.900000 -0.100000
v 1.500000 0.300000 -0.100000
v 1.500000 1.500000 -0.100000
v -1.500000 -1.500000 0.650000
v -1.500000 -1.350000 1.400000
v -1.350000 -1.500000 1.400000
v -1.350000 -1.500000 0.650000
v -1.500000 -1.500000 -0.850000
v -1.500000 -1.350000 -0.850000
v -1.500000 -1.350000 -1.600000
v -1.350000 -1.500000 -1.600000
v -1.500000 -0.300000 0.650000
v -1.500000 -0.450000 1.400000
v -1.500000 -0.450000 0.650000
v -1.500000 -0.150000 1.400000
v -1.200000 -0.600000 1.400000
v -1.200000 0.150000 1.400000
v -1.350000 -0.600000 1.400000
v -1.500000 -0.300000 -0.850000
v -1.500000 -0.450000 -1.600000
v -1.500000 -0.150000 -0.850000
v -1.500000 -0.150000 -1.600000
v -1.200000 -0.600000 -1.600000
v -1.200000 0.150000 -1.600000
v -1.350000 -0.600000 -1.600000
v -1.500000 0.900000 0.650000
v -1.500000 0.750000 1.400000
v -1.500000 0.750000 0.650000
v -1.500000 1.050000 1.400000
v -1.200000 1.050000 1.400000
v -1.350000 1.050000 1.400000
v -1.500000 0.900000 -0.850000
v -1.500000 0.750000 -1.600000
v -1.500000 1.050000 -0.850000
v -1.500000 1.050000 -1.600000
v -1.200000 1.050000 -1.600000
v -1.350000 1.050000 -1.600000
v -1.500000 -1.050000 1.400000
v -1.500000 -1.050000 0.650000
v -1.500000 -0.750000 1.400000
v -1.500000 -0.900000 0.650000
v -1.350000 -1.050000 1.400000
v -1.500000 -1.050000 -1.600000
v -1.500000 -0.750000 -0.850000
v -1.500000 -0.750000 -1.600000
v -1.500000 -0.900000 -0.850000
v -1.350000 -1.050000 -1.600000
v -1.500000 0.150000 1.400000
v -1.500000 0.150000 0.650000
v -1.500000 0.450000 1.400000
v -1.500000 0.300000 0.650000
v -1.200000 0.600000 1.400000
v -1.500000 0.150000 -1.600000
v -1.500000 0.450000 -0.850000
v -1.500000 0.450000 -1.600000
v -1.500000 0.300000 -0.850000
v -1.200000 0.600000 -1.600000
v -1.500000 1.350000 1.400000
v -1.500000 1.350000 0.650000
v -1.500000 1.500000 0.650000
v -1.350000 1.500000 1.400000
v -1.500000 1.350000 -1.600000
v -1.500000 1.500000 -0.850000
v -1.350000 1.500000 -0.850000
v -1.350000 1.500000 -1.600000
v -0.600000 -1.200000 1.400000
v -0.300000 -1.500000 0.650000
v -0.300000 -0.750000 1.400000
v -0.450000 -1.500000 1.400000
v -0.150000 -1.500000 1.400000
v -0.150000 -1.500000 0.650000
v -0.600000 -1.200000 -1.600000
v -0.300000 -1.500000 -0.850000
v -0.300000 -0.750000 -1.600000
v -0.450000 -1.500000 -0.850000
v -0.450000 -1.500000 -1.600000
v -0.150000 -1.500000 -1.600000
v -0.600000 1.050000 1.400000
v -0.600000 1.350000 1.400000
v -0.600000 1.200000 1.400000
v -0.300000 0.750000 1.400000
v -0.300000 1.500000 0.650000
v -0.450000 1.500000 1.400000
v -0.450000 1.500000 0.650000
v -0.150000 0.750000 1.400000
v -0.150000 1.500000 1.400000
v -0.600000 1.050000 -1.600000
v -0.600000 1.350000 -1.600000
v -0.600000 1.200000 -1.600000
v -0.300000 0.750000 -1.600000
v -0.300000 1.500000 -0.850000
v -0.450000 1.500000 -1.600000
v -0.150000 0.750000 -1.600000
v -0.150000 1.500000 -0.850000
v -0.150000 1.500000 -1.600000
v 0.900000 -1.500000 0.650000
v 0.750000 -1.500000 1.400000
v 1.050000 -1.500000 1.400000
v 1.050000 -1.500000 0.650000
v 1.050000 -1.350000 1.400000
v 0.900000 -1.500000 -0.850000
v 0.750000 -1.500000 -0.850000
v 0.750000 -1.500000 -1.600000
v 1.050000 -1.500000 -1.600000
v 1.050000 -1.350000 -1.600000
v 0.900000 1.500000 0.650000
v 0.750000 1.500000 1.400000
v 0.750000 1.500000 0.650000
v 1.050000 1.350000 1.400000
v 1.050000 1.200000 1.400000
v 1.050000 1.500000 1.400000
v 0.900000 1.500000 -0.850000
v 0.750000 1.500000 -1.600000
v 1.050000 1.350000 -1.600000
v 1.050000 1.200000 -1.600000
v 1.050000 1.500000 -0.850000
v 1.050000 1.500000 -1.600000
v -1.050000 -1.500000 1.400000
v -1.050000 -1.200000 1.400000
v -1.050000 -1.350000 1.400000
v -0.750000 -1.500000 1.400000
v -0.750000 -1.500000 0.650000
v -0.900000 -1.500000 0.650000
v -1.050000 -1.500000 -0.850000
v -1.050000 -1.500000 -1.600000
v -1.050000 -1.200000 -1.600000
v -1.050000 -1.350000 -1.600000
v -0.750000 -1.500000 -1.600000
v -0.900000 -1.500000 -0.850000
v -1.050000 1.350000 1.400000
v -1.050000 1.500000 1.400000
v -1.050000 1.500000 0.650000
v -0.750000 1.500000 1.400000
v -0.900000 1.500000 0.650000
v -1.050000 1.350000 -1.600000
v -1.050000 1.500000 -1.600000
v -0.750000 1.500000 -0.850000
v -0.750000 1.500000 -1.600000
v -0.900000 1.500000 -0.850000
v 0.150000 -1.500000 1.400000
v 0.150000 -0.750000 1.400000
v 0.450000 -1.500000 1.400000
v 0.450000 -1.500000 0.650000
v 0.300000 -1.500000 0.650000
v 0.300000 -0.750000 1.400000
v 0.600000 -1.200000 1.400000
v 0.600000 -1.350000 1.400000
v 0.600000 -1.050000 1.400000
v 0.150000 -1.500000 -0.850000
v 0.150000 -1.500000 -1.600000
v 0.150000 -0.750000 -1.600000
v 0.450000 -1.500000 -1.600000
v 0.300000 -1.500000 -0.850000
v 0.300000 -0.750000 -1.600000
v 0.600000 -1.200000 -1.600000
v 0.600000 -1.350000 -1.600000
v 0.600000 -1.050000 -1.600000
v 0.150000 1.500000 1.400000
v 0.150000 1.500000 0.650000
v 0.450000 1.500000 1.400000
v 0.300000 0.750000 1.400000
v 0.300000 1.500000 0.650000
v 0.600000 1.200000 1.400000
v 0.150000 1.500000 -1.600000
v 0.450000 1.500000 -0.850000
v 0.450000 1.500000 -1.600000
v 0.300000 0.750000 -1.600000
v 0.300000 1.500000 -0.850000
v 0.600000 1.200000 -1.600000
v 1.350000 -1.500000 1.400000
v 1.500000 -1.500000 0.650000
v 1.500000 -1.350000 1.400000
v 1.500000 -1.350000 0.650000
v 1.350000 -1.500000 -0.850000
v 1.350000 -1.500000 -1.600000
v 1.500000 -1.500000 -0.850000
v 1.500000 -1.350000 -1.600000
v 1.200000 -0.600000 1.400000
v 1.500000 -0.300000 0.650000
v 1.500000 -0.450000 1.400000
v 1.500000 -0.150000 1.400000
v 1.500000 -0.150000 0.650000
v 1.200000 -0.600000 -1.600000
v 1.500000 -0.300000 -0.850000
v 1.500000 -0.450000 -0.850000
v 1.500000 -0.450000 -1.600000
v 1.500000 -0.150000 -1.600000
v 1.350000 1.050000 1.400000
v 1.500000 0.900000 0.650000
v 1.500000 0.750000 1.400000
v 1.500000 1.050000 1.400000
v 1.500000 1.050000 0.650000
v 1.350000 1.050000 -1.600000
v 1.500000 0.900000 -0.850000
v 1.500000 0.750000 -0.850000
v 1.500000 0.750000 -1.600000
v 1.500000 1.050000 -1.600000
v 1.350000 -1.050000 1.400000
v 1.200000 -1.050000 1.400000
v 1.500000 -1.050000 1.400000
v 1.500000 -0.750000 1.400000
v 1.500000 -0.750000 0.650000
v 1.500000 -0.900000 0.650000
v 1.350000 -1.050000 -1.600000
v 1.200000 -1.050000 -1.600000
v 1.500000 -1.050000 -0.850000
v 1.500000 -1.050000 -1.600000
v 1.500000 -0.750000 -1.600000
v 1.500000 -0.900000 -0.850000
v 1.350000 0.600000 1.400000
v 1.200000 -0.150000 1.400000
v 1.200000 0.600000 1.400000
v 1.500000 0.150000 1.400000
v 1.500000 0.450000 1.400000
v 1.500000 0.450000 0.650000
v 1.500000 0.300000 0.650000
v 1.350000 0.600000 -1.600000
v 1.200000 -0.150000 -1.600000
v 1.200000 0.600000 -1.600000
v 1.500000 0.150000 -0.850000
v 1.500000 0.150000 -1.600000
v 1.500000 0.450000 -1.600000
v 1.500000 0.300000 -0.850000
v 1.350000 1.500000 1.400000
v 1.350000 1.500000 0.650000
v 1.500000 1.350000 1.400000
v 1.500000 1.500000 0.650000
v 1.350000 1.500000 -1.600000
v 1.500000 1.350000 -0.850000
v 1.500000 1.350000 -1.600000
v 1.500000 1.500000 -0.850000
v -1.500000 -1.350000 0.650000
v -1.350000 -1.500000 -0.100000
v -1.500000 -1.350000 -0.100000
v -1.350000 -1.500000 -0.850000
v -1.350000 -1.350000 1.400000
v -1.500000 -1.200000 0.650000
v -1.350000 -1.200000 1.400000
v -1.200000 -1.500000 0.650000
v -1.200000 -1.350000 1.400000
v -1.050000 -1.500000 0.650000
v -1.200000 -1.500000 -0.850000
v -1.050000 -1.500000 -0.100000
v -1.500000 -1.200000 -0.850000
v -1.500000 -1.050000 -0.100000
v -1.350000 -1.350000 -1.600000
v -1.500000 -1.050000 -0.850000
v -1.350000 -1.200000 -1.600000
v -1.200000 -1.350000 -1.600000
v -1.500000 -0.450000 -0.100000
v -1.500000 -0.150000 0.650000
v -1.500000 -0.450000 -0.850000
v -1.500000 -0.150000 -0.100000
v -1.500000 -0.600000 0.650000
v -1.350000 -0.750000 1.400000
v -1.500000 -0.750000 0.650000
v -1.350000 -0.900000 1.400000
v -1.500000 -0.600000 -0.850000
v -1.500000 -0.750000 -0.100000
v -1.200000 0.300000 1.400000
v -1.500000 0.000000 0.650000
v -1.200000 0.450000 1.400000
v -0.900000 -0.150000 1.400000
v -1.050000 -0.900000 1.400000
v -0.600000 -0.450000 1.400000
v -0.750000 -1.200000 1.400000
v -0.900000 0.750000 1.400000
v -0.600000 0.300000 1.400000
v -1.200000 -1.050000 1.400000
v -0.900000 -1.200000 1.400000
v -1.350000 -0.750000 -1.600000
v -1.350000 -0.900000 -1.600000
v -1.500000 0.000000 -0.850000
v -1.500000 0.150000 -0.100000
v -1.200000 0.300000 -1.600000
v -1.500000 0.150000 -0.850000
v -1.200000 0.450000 -1.600000
v -0.900000 -0.150000 -1.600000
v -1.050000 -0.900000 -1.600000
v -0.600000 -0.450000 -1.600000
v -0.750000 -1.200000 -1.600000
v -0.900000 0.750000 -1.600000
v -0.600000 0.300000 -1.600000
v -1.200000 -1.050000 -1.600000
v -0.900000 -1.200000 -1.600000
v -1.500000 0.750000 -0.100000
v -1.500000 1.050000 0.650000
v -1.500000 0.750000 -0.850000
v -1.500000 1.050000 -0.100000
v -1.500000 0.600000 0.650000
v -1.200000 0.900000 1.400000
v -1.500000 0.450000 0.650000
v -1.200000 0.750000 1.400000
v -1.500000 0.600000 -0.850000
v -1.500000 0.450000 -0.100000
v -1.350000 1.200000 1.400000
v -1.500000 1.200000 0.650000
v -1.350000 1.350000 1.400000
v -1.050000 1.200000 1.400000
v -0.900000 1.050000 1.400000
v -0.750000 1.350000 1.400000
v -1.200000 1.350000 1.400000
v -0.900000 1.350000 1.400000
v -1.200000 0.900000 -1.600000
v -1.200000 0.750000 -1.600000
v -1.500000 1.200000 -0.850000
v -1.500000 1.350000 -0.100000
v -1.350000 1.200000 -1.600000
v -1.500000 1.350000 -0.850000
v -1.350000 1.350000 -1.600000
v -1.050000 1.200000 -1.600000
v -0.900000 1.050000 -1.600000
v -0.750000 1.350000 -1.600000
v -1.200000 1.350000 -1.600000
v -0.900000 1.350000 -1.600000
v -1.350000 1.500000 0.650000
v -1.350000 1.500000 -0.100000
v -1.200000 1.500000 0.650000
v -1.200000 1.500000 -0.850000
v -1.050000 1.500000 -0.100000
v -1.050000 1.500000 -0.850000
v -0.450000 -1.500000 0.650000
v -0.150000 -1.500000 -0.100000
v -0.450000 -1.500000 -0.100000
v -0.150000 -1.500000 -0.850000
v -0.150000 -0.750000 1.400000
v -0.150000 0.000000 1.400000
v -0.600000 -1.500000 0.650000
v 0.000000 -1.500000 0.650000
v 0.000000 -0.750000 1.400000
v 0.150000 -1.500000 0.650000
v 0.000000 -1.500000 -0.850000
v 0.150000 -1.500000 -0.100000
v -0.150000 -0.750000 -1.600000
v -0.150000 0.000000 -1.600000
v -0.600000 -1.500000 -0.850000
v -0.750000 -1.500000 -0.100000
v -0.750000 -1.500000 -0.850000
v 0.000000 -0.750000 -1.600000
v -0.450000 1.500000 -0.100000
v -0.150000 1.500000 0.650000
v -0.450000 1.500000 -0.850000
v -0.150000 1.500000 -0.100000
v -0.600000 1.500000 0.650000
v -0.750000 1.500000 0.650000
v -0.600000 1.500000 -0.850000
v -0.750000 1.500000 -0.100000
v 0.000000 0.750000 1.400000
v 0.150000 0.000000 1.400000
v 0.000000 1.500000 0.650000
v 0.150000 0.750000 1.400000
v 0.000000 0.750000 -1.600000
v 0.150000 0.000000 -1.600000
v 0.000000 1.500000 -0.850000
v 0.150000 1.500000 -0.100000
v 0.150000 0.750000 -1.600000
v 0.150000 1.500000 -0.850000
v 0.750000 -1.500000 0.650000
v 1.050000 -1.500000 -0.100000
v 0.750000 -1.500000 -0.100000
v 1.050000 -1.500000 -0.850000
v 0.900000 -1.350000 1.400000
v 0.600000 -1.500000 0.650000
v 0.750000 -1.350000 1.400000
v 1.200000 -1.500000 0.650000
v 1.200000 -1.350000 1.400000
v 1.350000 -1.500000 0.650000
v 1.350000 -1.350000 1.400000
v 1.200000 -1.500000 -0.850000
v 1.350000 -1.500000 -0.100000
v 1.050000 -1.200000 1.400000
v 1.350000 -1.200000 1.400000
v 0.600000 -1.500000 -0.850000
v 0.450000 -1.500000 -0.100000
v 0.900000 -1.350000 -1.600000
v 0.450000 -1.500000 -0.850000
v 0.750000 -1.350000 -1.600000
v 1.200000 -1.350000 -1.600000
v 1.350000 -1.350000 -1.600000
v 1.050000 -1.200000 -1.600000
v 1.350000 -1.200000 -1.600000
v 0.750000 1.500000 -0.100000
v 1.050000 1.500000 0.650000
v 0.750000 1.500000 -0.850000
v 1.050000 1.500000 -0.100000
v 0.600000 1.500000 0.650000
v 0.900000 1.200000 1.400000
v 0.450000 1.500000 0.650000
v 0.750000 1.200000 1.400000
v 0.600000 1.500000 -0.850000
v 0.450000 1.500000 -0.100000
v 1.200000 1.050000 1.400000
v 1.200000 1.350000 1.400000
v 1.350000 0.900000 1.400000
v 1.350000 1.200000 1.400000
v 1.050000 0.900000 1.400000
v 1.350000 0.750000 1.400000
v 1.200000 1.500000 0.650000
v 1.350000 1.350000 1.400000
v 0.900000 1.200000 -1.600000
v 0.750000 1.200000 -1.600000
v 1.200000 1.050000 -1.600000
v 1.200000 1.350000 -1.600000
v 1.350000 0.900000 -1.600000
v 1.350000 1.200000 -1.600000
v 1.050000 0.900000 -1.600000
v 1.350000 0.750000 -1.600000
v 1.200000 1.500000 -0.850000
v 1.350000 1.500000 -0.100000
v 1.350000 1.350000 -1.600000
v 1.350000 1.500000 -0.850000
v 0.600000 -0.300000 1.400000
v 0.600000 0.450000 1.400000
v 0.900000 -1.050000 1.400000
v 0.900000 -0.750000 1.400000
v 1.200000 -0.750000 1.400000
v 1.200000 -0.450000 1.400000
v 1.200000 -0.900000 1.400000
v 0.900000 0.150000 1.400000
v 1.200000 -0.300000 1.400000
v 0.600000 -0.300000 -1.600000
v 0.600000 0.450000 -1.600000
v 0.900000 -1.050000 -1.600000
v 0.900000 -0.750000 -1.600000
v 1.200000 -0.750000 -1.600000
v 1.200000 -0.450000 -1.600000
v 1.200000 -0.900000 -1.600000
v 0.900000 0.150000 -1.600000
v 1.200000 -0.300000 -1.600000
v 1.500000 -1.350000 -0.100000
v 1.500000 -1.350000 -0.850000
v 1.500000 -1.200000 0.650000
v 1.500000 -1.050000 0.650000
v 1.500000 -1.200000 -0.850000
v 1.500000 -1.050000 -0.100000
v 1.500000 -0.450000 0.650000
v 1.500000 -0.150000 -0.100000
v 1.500000 -0.450000 -0.100000
v 1.500000 -0.150000 -0.850000
v 1.500000 -0.600000 0.650000
v 1.500000 0.000000 0.650000
v 1.500000 0.150000 0.650000
v 1.500000 0.000000 -0.850000
v 1.500000 0.150000 -0.100000
v 1.500000 -0.600000 -0.850000
v 1.500000 -0.750000 -0.100000
v 1.500000 -0.750000 -0.850000
v 1.500000 0.750000 0.650000
v 1.500000 1.050000 -0.100000
v 1.500000 0.750000 -0.100000
v 1.500000 1.050000 -0.850000
v 1.500000 0.600000 0.650000
v 1.500000 1.200000 0.650000
v 1.500000 1.350000 0.650000
v 1.500000 1.200000 -0.850000
v 1.500000 1.350000 -0.100000
v 1.500000 0.600000 -0.850000
v 1.500000 0.450000 -0.100000
v 1.500000 0.450000 -0.850000
f 22 276 278
f 14 227 223
f 8 196 198
f 16 241 238
f 16 240 239
f 6 186 188
f 6 188 187
f 16 238 240
f 16 244 241
f 36 355 356
f 18 256 255
f 26 306 307
f 38 372 369
f 38 370 368
f 20 265 266
f 20 268 265
f 38 369 370
f 16 246 244
f 7 189 193
f 3 169 167
f 21 270 271
f 3 167 168
f 5 178 181
f 23 282 281
f 15 234 230
f 9 199 203
f 13 221 219
f 25 293 298
f 29 323 321
f 35 352 350
f 25 297 299
f 19 258 261
f 37 365 361
f 33 342 339
f 27 312 314
f 25 296 292
f 1 156 155
f 2 160 161
f 7 191 192
f 8 195 196
f 3 166 163
f 4 172 173
f 9 201 202
f 10 205 206
f 5 180 177
f 6 185 186
f 11 212 211
f 12 215 216
f 23 284 285
f 24 288 289
f 15 237 233
f 16 245 246
f 27 311 313
f 28 316 317
f 19 262 257
f 20 267 268
f 39 377 378
f 40 380 381
f 33 341 340
f 34 346 347
f 37 364 367
f 38 371 372
f 31 331 330
f 32 336 337
f 35 351 354
f 36 357 358
f 29 321 322
f 30 325 326
f 17 248 247
f 18 253 254
f 25 291 295
f 26 300 301
f 21 269 274
f 22 275 276
f 13 220 218
f 14 226 227
f 2 161 162
f 22 277 279
f 4 176 171
f 14 223 225
f 10 206 208
f 12 216 213
f 24 289 286
f 4 173 175
f 26 301 302
f 18 254 256
f 36 358 355
f 32 337 334
f 32 334 338
f 28 317 320
f 34 347 344
f 40 381 379
f 26 305 308
f 28 318 315
f 1 157 156
f 21 272 270
f 3 164 169
f 13 219 217
f 9 203 201
f 11 209 212
f 23 281 284
f 3 168 166
f 25 292 291
f 17 251 248
f 35 349 351
f 31 329 331
f 31 332 329
f 27 314 311
f 33 339 341
f 39 375 377
f 25 299 296
f 27 309 312
f 7 190 189
f 7 192 190
f 3 165 164
f 3 163 165
f 9 200 199
f 9 202 200
f 5 179 178
f 5 177 179
f 11 210 209
f 11 211 210
f 23 283 282
f 23 285 283
f 15 235 234
f 15 233 235
f 27 310 309
f 27 313 310
f 19 259 258
f 19 257 259
f 39 376 375
f 39 378 376
f 33 343 342
f 33 340 343
f 37 366 365
f 37 367 366
f 31 333 332
f 31 330 333
f 35 353 352
f 35 354 353
f 29 324 323
f 29 322 324
f 17 250 249
f 17 247 250
f 25 294 293
f 25 295 294
f 13 222 221
f 13 218 222
f 1 158 157
f 1 155 158
f 21 273 272
f 21 274 273
f 8 198 194
f 4 174 176
f 22 278 277
f 4 175 174
f 6 187 184
f 24 286 287
f 16 239 243
f 10 208 204
f 14 225 228
f 26 307 303
f 30 326 328
f 36 356 359
f 26 308 306
f 20 266 264
f 38 368 373
f 34 344 348
f 28 320 318
f 26 302 305
f 21 271 269
f 13 217 220
f 7 193 191
f 15 229 232
f 15 230 231
f 5 182 180
f 5 181 182
f 15 231 229
f 15 232 236
f 35 350 349
f 17 249 251
f 25 298 297
f 37 362 364
f 37 361 363
f 19 261 260
f 19 260 262
f 37 363 362
f 15 236 237
f 2 159 160
f 8 194 197
f 8 197 195
f 4 171 170
f 4 170 172
f 10 204 207
f 10 207 205
f 6 184 183
f 6 183 185
f 12 213 214
f 12 214 215
f 24 287 290
f 24 290 288
f 16 243 242
f 16 242 245
f 28 315 319
f 28 319 316
f 20 264 263
f 20 263 267
f 40 379 382
f 40 382 380
f 34 348 345
f 34 345 346
f 38 373 374
f 38 374 371
f 32 338 335
f 32 335 336
f 36 359 360
f 36 360 357
f 30 328 327
f 30 327 325
f 18 255 252
f 18 252 253
f 26 303 304
f 26 304 300
f 14 228 224
f 22 280 275
f 2 162 159
f 14 224 226
f 22 279 280
f 46 399 397
f 60 430 436
f 60 435 422
f 58 429 431
f 67 455 456
f 81 465 461
f 96 464 466
f 57 428 426
f 90 485 490
f 106 528 526
f 137 530 532
f 143 578 576
f 128 575 577
f 115 551 552
f 150 558 555
f 151 556 561
f 127 573 572
f 127 504 507
f 43 391 387
f 84 417 421
f 49 408 406
f 83 419 416
f 76 451 444
f 64 447 449
f 66 450 454
f 53 418 411
f 94 478 481
f 104 522 513
f 104 517 523
f 124 565 567
f 140 571 568
f 132 547 540
f 112 543 545
f 114 544 550
f 126 570 563
f 95 499 502
f 45 385 388
f 72 398 396
f 50 410 405
f 48 403 401
f 56 404 412
f 75 427 425
f 63 446 441
f 61 439 437
f 68 440 448
f 78 460 458
f 80 468 469
f 121 472 471
f 93 498 495
f 91 493 491
f 98 494 501
f 131 508 506
f 111 542 537
f 109 535 533
f 118 536 549
f 154 562 560
f 148 607 604
f 145 602 600
f 149 601 603
f 153 610 609
f 141 595 592
f 138 590 588
f 142 589 591
f 152 598 597
f 136 586 583
f 134 582 581
f 103 521 516
f 100 512 510
f 105 511 514
f 122 527 525
f 86 484 480
f 82 476 474
f 44 394 390
f 41 386 384
f 88 475 479
f 120 489 488
f 47 400 276
f 89 432 227
f 55 423 196
f 87 434 241
f 77 463 240
f 69 459 186
f 71 462 188
f 59 433 238
f 97 486 244
f 108 531 355
f 108 529 256
f 128 574 306
f 144 580 372
f 133 557 370
f 116 553 265
f 119 554 268
f 130 579 369
f 99 503 246
f 42 389 189
f 54 415 169
f 54 420 270
f 52 414 167
f 62 442 178
f 79 453 282
f 92 452 234
f 51 413 199
f 85 477 221
f 101 515 293
f 135 519 323
f 139 569 352
f 124 566 297
f 110 538 258
f 146 548 365
f 147 546 342
f 123 564 312
f 123 500 296
f 42 383 156
f 45 395 160
f 49 407 191
f 50 409 195
f 51 402 166
f 56 424 172
f 62 443 201
f 63 445 205
f 64 438 180
f 68 457 185
f 79 467 212
f 80 470 215
f 92 496 284
f 93 497 288
f 95 492 237
f 98 505 245
f 110 539 311
f 111 541 316
f 114 534 262
f 118 559 267
f 147 605 377
f 148 606 380
f 146 599 341
f 149 608 346
f 140 593 364
f 141 594 371
f 139 587 331
f 142 596 336
f 135 584 351
f 136 585 357
f 102 518 321
f 103 520 325
f 101 509 248
f 105 524 253
f 85 482 291
f 86 483 300
f 43 392 269
f 44 393 275
f 84 473 220
f 88 487 226
f 46 397 161
f 60 436 277
f 60 422 176
f 58 431 223
f 67 456 206
f 81 461 216
f 96 466 289
f 57 426 173
f 90 490 301
f 106 526 254
f 137 532 358
f 143 576 337
f 128 577 334
f 115 552 317
f 150 555 347
f 151 561 381
f 127 572 305
f 127 507 318
f 43 387 157
f 84 421 272
f 49 406 164
f 83 416 219
f 76 444 203
f 64 449 209
f 66 454 281
f 53 411 168
f 94 481 292
f 104 513 251
f 104 523 349
f 124 567 329
f 140 568 332
f 132 540 314
f 112 545 339
f 114 550 375
f 126 563 299
f 95 502 309
f 45 388 190
f 72 396 192
f 50 405 165
f 48 401 163
f 56 412 200
f 75 425 202
f 63 441 179
f 61 437 177
f 68 448 210
f 78 458 211
f 80 469 283
f 121 471 285
f 93 495 235
f 91 491 233
f 98 501 310
f 131 506 313
f 111 537 259
f 109 533 257
f 118 549 376
f 154 560 378
f 148 604 343
f 145 600 340
f 149 603 366
f 153 609 367
f 141 592 333
f 138 588 330
f 142 591 353
f 152 597 354
f 136 583 324
f 134 581 322
f 103 516 250
f 100 510 247
f 105 514 294
f 122 525 295
f 86 480 222
f 82 474 218
f 44 390 158
f 41 384 155
f 88 479 273
f 120 488 274
f 74 399 198
f 58 430 174
f 74 435 278
f 59 429 175
f 70 455 187
f 71 465 286
f 70 464 239
f 77 428 208
f 87 485 225
f 129 528 307
f 107 530 326
f 129 578 356
f 130 575 308
f 117 551 266
f 117 558 368
f 116 556 344
f 133 573 320
f 97 504 302
f 73 391 271
f 52 417 217
f 73 408 193
f 53 419 229
f 65 451 230
f 66 447 182
f 65 450 181
f 76 418 231
f 83 478 232
f 125 522 350
f 102 517 249
f 125 565 298
f 126 571 362
f 113 547 361
f 113 543 261
f 112 544 260
f 132 570 363
f 94 499 236
f 41 385 159
f 46 398 194
f 72 410 197
f 55 403 171
f 48 404 170
f 57 427 204
f 75 446 207
f 67 439 184
f 61 440 183
f 69 460 213
f 78 468 214
f 81 472 287
f 121 498 290
f 96 493 243
f 91 494 242
f 99 508 315
f 131 542 319
f 115 535 264
f 109 536 263
f 119 562 379
f 154 607 382
f 151 602 348
f 145 601 345
f 150 610 373
f 153 595 374
f 144 590 338
f 138 589 335
f 143 598 359
f 152 586 360
f 137 582 328
f 134 521 327
f 107 512 255
f 100 511 252
f 106 527 303
f 122 484 304
f 90 476 228
f 120 394 280
f 47 386 162
f 82 475 224
f 89 489 279
f 74 400 399
f 58 432 430
f 74 423 435
f 59 434 429
f 70 463 455
f 71 459 465
f 70 462 464
f 77 433 428
f 87 486 485
f 129 531 528
f 107 529 530
f 129 574 578
f 130 580 575
f 117 557 551
f 117 553 558
f 116 554 556
f 133 579 573
f 97 503 504
f 73 389 391
f 52 415 417
f 73 420 408
f 53 414 419
f 65 442 451
f 66 453 447
f 65 452 450
f 76 413 418
f 83 477 478
f 125 515 522
f 102 519 517
f 125 569 565
f 126 566 571
f 113 538 547
f 113 548 543
f 112 546 544
f 132 564 570
f 94 500 499
f 41 383 385
f 46 395 398
f 72 407 410
f 55 409 403
f 48 402 404
f 57 424 427
f 75 443 446
f 67 445 439
f 61 438 440
f 69 457 460
f 78 467 468
f 81 470 472
f 121 496 498
f 96 497 493
f 91 492 494
f 99 505 508
f 131 539 542
f 115 541 535
f 109 534 536
f 119 559 562
f 154 605 607
f 151 606 602
f 145 599 601
f 150 608 610
f 153 593 595
f 144 594 590
f 138 587 589
f 143 596 598
f 152 584 586
f 137 585 582
f 134 518 521
f 107 520 512
f 100 509 511
f 106 524 527
f 122 482 484
f 90 483 476
f 120 392 394
f 47 393 386
f 82 473 475
f 89 487 489
f 74 278 400
f 58 223 432
f 74 198 423
f 59 238 434
f 70 239 463
f 71 188 459
f 70 187 462
f 77 240 433
f 87 241 486
f 129 356 531
f 107 255 529
f 129 307 574
f 130 369 580
f 117 368 557
f 117 266 553
f 116 265 554
f 133 370 579
f 97 244 503
f 73 193 389
f 52 167 415
f 73 271 420
f 53 168 414
f 65 181 442
f 66 281 453
f 65 230 452
f 76 203 413
f 83 219 477
f 125 298 515
f 102 321 519
f 125 350 569
f 126 299 566
f 113 261 538
f 113 361 548
f 112 339 546
f 132 314 564
f 94 292 500
f 41 155 383
f 46 161 395
f 72 192 407
f 55 196 409
f 48 163 402
f 57 173 424
f 75 202 443
f 67 206 445
f 61 177 438
f 69 186 457
f 78 211 467
f 81 216 470
f 121 285 496
f 96 289 497
f 91 233 492
f 99 246 505
f 131 313 539
f 115 317 541
f 109 257 534
f 119 268 559
f 154 378 605
f 151 381 606
f 145 340 599
f 150 347 608
f 153 367 593
f 144 372 594
f 138 330 587
f 143 337 596
f 152 354 584
f 137 358 585
f 134 322 518
f 107 326 520
f 100 247 509
f 106 254 524
f 122 295 482
f 90 301 483
f 120 274 392
f 47 276 393
f 82 218 473
f 89 227 487
f 47 162 397
f 89 279 436
f 55 171 422
f 87 225 431
f 77 208 456
f 69 213 461
f 71 286 466
f 59 175 426
f 97 302 490
f 108 256 526
f 108 355 532
f 128 334 576
f 144 338 577
f 133 320 552
f 116 344 555
f 119 379 561
f 130 308 572
f 99 315 507
f 42 156 387
f 54 270 421
f 54 169 406
f 52 217 416
f 62 201 444
f 79 212 449
f 92 284 454
f 51 166 411
f 85 291 481
f 101 248 513
f 135 351 523
f 139 331 567
f 124 329 568
f 110 311 540
f 146 341 545
f 147 377 550
f 123 296 563
f 123 312 502
f 42 189 388
f 45 190 396
f 49 164 405
f 50 165 401
f 51 199 412
f 56 200 425
f 62 178 441
f 63 179 437
f 64 209 448
f 68 210 458
f 79 282 469
f 80 283 471
f 92 234 495
f 93 235 491
f 95 309 501
f 98 310 506
f 110 258 537
f 111 259 533
f 114 375 549
f 118 376 560
f 147 342 604
f 148 343 600
f 146 365 603
f 149 366 609
f 140 332 592
f 141 333 588
f 139 352 591
f 142 353 597
f 135 323 583
f 136 324 581
f 102 249 516
f 103 250 510
f 101 293 514
f 105 294 525
f 85 221 480
f 86 222 474
f 43 157 390
f 44 158 384
f 84 272 479
f 88 273 488
f 46 194 399
f 60 176 430
f 60 277 435
f 58 174 429
f 67 184 455
f 81 287 465
f 96 243 464
f 57 204 428
f 90 228 485
f 106 303 528
f 137 328 530
f 143 359 578
f 128 306 575
f 115 264 551
f 150 373 558
f 151 348 556
f 127 318 573
f 127 305 504
f 43 269 391
f 84 220 417
f 49 191 408
f 83 232 419
f 76 231 451
f 64 180 447
f 66 182 450
f 53 229 418
f 94 236 478
f 104 349 522
f 104 251 517
f 124 297 565
f 140 364 571
f 132 363 547
f 112 260 543
f 114 262 544
f 126 362 570
f 95 237 499
f 45 160 385
f 72 197 398
f 50 195 410
f 48 170 403
f 56 172 404
f 75 207 427
f 63 205 446
f 61 183 439
f 68 185 440
f 78 214 460
f 80 215 468
f 121 290 472
f 93 288 498
f 91 242 493
f 98 245 494
f 131 319 508
f 111 316 542
f 109 263 535
f 118 267 536
f 154 382 562
f 148 380 607
f 145 345 602
f 149 346 601
f 153 374 610
f 141 371 595
f 138 335 590
f 142 336 589
f 152 360 598
f 136 357 586
f 134 327 582
f 103 325 521
f 100 252 512
f 105 253 511
f 122 304 527
f 86 300 484
f 82 224 476
f 44 275 394
f 41 159 386
f 88 226 475
f 120 280 489
f 47 397 400
f 89 436 432
f 55 422 423
f 87 431 434
f 77 456 463
f 69 461 459
f 71 466 462
f 59 426 433
f 97 490 486
f 108 526 531
f 108 532 529
f 128 576 574
f 144 577 580
f 133 552 557
f 116 555 553
f 119 561 554
f 130 572 579
f 99 507 503
f 42 387 389
f 54 421 415
f 54 406 420
f 52 416 414
f 62 444 442
f 79 449 453
f 92 454 452
f 51 411 413
f 85 481 477
f 101 513 515
f 135 523 519
f 139 567 569
f 124 568 566
f 110 540 538
f 146 545 548
f 147 550 546
f 123 563 564
f 123 502 500
f 42 388 383
f 45 396 395
f 49 405 407
f 50 401 409
f 51 412 402
f 56 425 424
f 62 441 443
f 63 437 445
f 64 448 438
f 68 458 457
f 79 469 467
f 80 471 470
f 92 495 496
f 93 491 497
f 95 501 492
f 98 506 505
f 110 537 539
f 111 533 541
f 114 549 534
f 118 560 559
f 147 604 605
f 148 600 606
f 146 603 599
f 149 609 608
f 140 592 593
f 141 588 594
f 139 591 587
f 142 597 596
f 135 583 584
f 136 581 585
f 102 516 518
f 103 510 520
f 101 514 509
f 105 525 524
f 85 480 482
f 86 474 483
f 43 390 392
f 44 384 393
f 84 479 473
f 88 488 487
f 400 278 276
f 432 223 227
f 423 198 196
f 434 238 241
f 463 239 240
f 459 188 186
f 462 187 188
f 433 240 238
f 486 241 244
f 531 356 355
f 529 255 256
f 574 307 306
f 580 369 372
f 557 368 370
f 553 266 265
f 554 265 268
f 579 370 369
f 503 244 246
f 389 193 189
f 415 167 169
f 420 271 270
f 414 168 167
f 442 181 178
f 453 281 282
f 452 230 234
f 413 203 199
f 477 219 221
f 515 298 293
f 519 321 323
f 569 350 352
f 566 299 297
f 538 261 258
f 548 361 365
f 546 339 342
f 564 314 312
f 500 292 296
f 383 155 156
f 395 161 160
f 407 192 191
f 409 196 195
f 402 163 166
f 424 173 172
f 443 202 201
f 445 206 205
f 438 177 180
f 457 186 185
f 467 211 212
f 470 216 215
f 496 285 284
f 497 289 288
f 492 233 237
f 505 246 245
f 539 313 311
f 541 317 316
f 534 257 262
f 559 268 267
f 605 378 377
f 606 381 380
f 599 340 341
f 608 347 346
f 593 367 364
f 594 372 371
f 587 330 331
f 596 337 336
f 584 354 351
f 585 358 357
f 518 322 321
f 520 326 325
f 509 247 248
f 524 254 253
f 482 295 291
f 483 301 300
f 392 274 269
f 393 276 275
f 473 218 220
f 487 227 226
f 397 162 161
f 436 279 277
f 422 171 176
f 431 225 223
f 456 208 206
f 461 213 216
f 466 286 289
f 426 175 173
f 490 302 301
f 526 256 254
f 532 355 358
f 576 334 337
f 577 338 334
f 552 320 317
f 555 344 347
f 561 379 381
f 572 308 305
f 507 315 318
f 387 156 157
f 421 270 272
f 406 169 164
f 416 217 219
f 444 201 203
f 449 212 209
f 454 284 281
f 411 166 168
f 481 291 292
f 513 248 251
f 523 351 349
f 567 331 329
f 568 329 332
f 540 311 314
f 545 341 339
f 550 377 375
f 563 296 299
f 502 312 309
f 388 189 190
f 396 190 192
f 405 164 165
f 401 165 163
f 412 199 200
f 425 200 202
f 441 178 179
f 437 179 177
f 448 209 210
f 458 210 211
f 469 282 283
f 471 283 285
f 495 234 235
f 491 235 233
f 501 309 310
f 506 310 313
f 537 258 259
f 533 259 257
f 549 375 376
f 560 376 378
f 604 342 343
f 600 343 340
f 603 365 366
f 609 366 367
f 592 332 333
f 588 333 330
f 591 352 353
f 597 353 354
f 583 323 324
f 581 324 322
f 516 249 250
f 510 250 247
f 514 293 294
f 525 294 295
f 480 221 222
f 474 222 218
f 390 157 158
f 384 158 155
f 479 272 273
f 488 273 274
f 399 194 198
f 430 176 174
f 435 277 278
f 429 174 175
f 455 184 187
f 465 287 286
f 464 243 239
f 428 204 208
f 485 228 225
f 528 303 307
f 530 328 326
f 578 359 356
f 575 306 308
f 551 264 266
f 558 373 368
f 556 348 344
f 573 318 320
f 504 305 302
f 391 269 271
f 417 220 217
f 408 191 193
f 419 232 229
f 451 231 230
f 447 180 182
f 450 182 181
f 418 229 231
f 478 236 232
f 522 349 350
f 517 251 249
f 565 297 298
f 571 364 362
f 547 363 361
f 543 260 261
f 544 262 260
f 570 362 363
f 499 237 236
f 385 160 159
f 398 197 194
f 410 195 197
f 403 170 171
f 404 172 170
f 427 207 204
f 446 205 207
f 439 183 184
f 440 185 183
f 460 214 213
f 468 215 214
f 472 290 287
f 498 288 290
f 493 242 243
f 494 245 242
f 508 319 315
f 542 316 319
f 535 263 264
f 536 267 263
f 562 382 379
f 607 380 382
f 602 345 348
f 601 346 345
f 610 374 373
f 595 371 374
f 590 335 338
f 589 336 335
f 598 360 359
f 586 357 360
f 582 327 328
f 521 325 327
f 512 252 255
f 511 253 252
f 527 304 303
f 484 300 304
f 476 224 228
f 394 275 280
f 386 159 162
f 475 226 224
f 489 280 279
f 400 397 399
f 432 436 430
f 423 422 435
f 434 431 429
f 463 456 455
f 459 461 465
f 462 466 464
f 433 426 428
f 486 490 485
f 531 526 528
f 529 532 530
f 574 576 578
f 580 577 575
f 557 552 551
f 553 555 558
f 554 561 556
f 579 572 573
f 503 507 504
f 389 387 391
f 415 421 417
f 420 406 408
f 414 416 419
f 442 444 451
f 453 449 447
f 452 454 450
f 413 411 418
f 477 481 478
f 515 513 522
f 519 523 517
f 569 567 565
f 566 568 571
f 538 540 547
f 548 545 543
f 546 550 544
f 564 563 570
f 500 502 499
f 383 388 385
f 395 396 398
f 407 405 410
f 409 401 403
f 402 412 404
f 424 425 427
f 443 441 446
f 445 437 439
f 438 448 440
f 457 458 460
f 467 469 468
f 470 471 472
f 496 495 498
f 497 491 493
f 492 501 494
f 505 506 508
f 539 537 542
f 541 533 535
f 534 549 536
f 559 560 562
f 605 604 607
f 606 600 602
f 599 603 601
f 608 609 610
f 593 592 595
f 594 588 590
f 587 591 589
f 596 597 598
f 584 583 586
f 585 581 582
f 518 516 521
f 520 510 512
f 509 514 511
f 524 525 527
f 482 480 484
f 483 474 476
f 392 390 394
f 393 384 386
f 473 479 475
f 487 488 489