v -0.500000 -1.500000 1.400000
v -0.500000 -1.500000 -1.600000
v -0.500000 1.500000 1.400000
v -0.500000 1.500000 -1.600000
v -1.500000 -0.500000 1.400000
v -1.500000 -0.500000 -1.600000
v -1.500000 -1.500000 1.400000
v -1.500000 -1.500000 -1.600000
v -1.500000 1.500000 1.400000
v -1.500000 1.500000 -1.600000
v -1.500000 0.500000 1.400000
v -1.500000 0.500000 -1.600000
v 1.500000 -0.500000 1.400000
v 1.500000 -0.500000 -1.600000
v 1.500000 -1.500000 1.400000
v 1.500000 -1.500000 -1.600000
v 1.500000 1.500000 1.400000
v 1.500000 1.500000 -1.600000
v 1.500000 0.500000 1.400000
v 1.500000 0.500000 -1.600000
v 0.500000 -1.500000 1.400000
v 0.500000 -1.500000 -1.600000
v 0.500000 1.500000 1.400000
v 0.500000 1.500000 -1.600000
v -0.500000 -1.500000 -0.100000
v -0.500000 0.000000 1.400000
v -1.000000 -1.000000 1.400000
v -1.000000 -1.500000 1.400000
v 0.000000 -1.500000 1.400000
v 0.000000 -1.500000 -0.100000
v -0.500000 0.000000 -1.600000
v -1.000000 -1.000000 -1.600000
v -1.000000 -1.500000 -0.100000
v -1.000000 -1.500000 -1.600000
v 0.000000 -1.500000 -1.600000
v -0.500000 1.500000 -0.100000
v -1.000000 0.500000 1.400000
v -1.000000 1.500000 1.400000
v -1.000000 1.500000 -0.100000
v -1.000000 1.000000 1.400000
v 0.000000 0.000000 1.400000
v 0.000000 1.500000 1.400000
v -1.000000 0.500000 -1.600000
v -1.000000 1.500000 -1.600000
v -1.000000 1.000000 -1.600000
v 0.000000 0.000000 -1.600000
v 0.000000 1.500000 -0.100000
v 0.000000 1.500000 -1.600000
v -1.500000 -0.500000 -0.100000
v -1.500000 -1.000000 1.400000
v -1.500000 -1.000000 -0.100000
v -1.500000 0.000000 1.400000
v -1.500000 -1.000000 -1.600000
v -1.500000 0.000000 -0.100000
v -1.500000 0.000000 -1.600000
v -1.500000 -1.500000 -0.100000
v -1.500000 1.500000 -0.100000
v -1.500000 1.000000 1.400000
v -1.500000 1.000000 -0.100000
v -1.500000 1.000000 -1.600000
v -1.500000 0.500000 -0.100000
v 1.500000 -0.500000 -0.100000
v 1.500000 -1.000000 1.400000
v 1.500000 0.000000 1.400000
v 1.500000 0.000000 -0.100000
v 1.000000 -1.000000 1.400000
v 1.500000 -1.000000 -0.100000
v 1.500000 -1.000000 -1.600000
v 1.500000 0.000000 -1.600000
v 1.000000 -1.000000 -1.600000
v 1.500000 -1.500000 -0.100000
v 1.000000 -1.500000 1.400000
v 1.000000 -1.500000 -0.100000
v 1.000000 -1.500000 -1.600000
v 1.500000 1.500000 -0.100000
v 1.500000 1.000000 1.400000
v 1.000000 1.500000 1.400000
v 1.000000 1.500000 -0.100000
v 1.500000 1.000000 -0.100000
v 1.500000 1.000000 -1.600000
v 1.000000 1.500000 -1.600000
v 1.500000 0.500000 -0.100000
v 1.000000 -0.500000 1.400000
v 1.000000 1.000000 1.400000
v 1.000000 -0.500000 -1.600000
v 1.000000 1.000000 -1.600000
v 0.500000 -1.500000 -0.100000
v 0.500000 0.000000 1.400000
v 0.500000 0.000000 -1.600000
v 0.500000 1.500000 -0.100000
f 6 32 53
f 4 31 43
f 10 44 60
f 6 55 43
f 4 46 31
f 14 68 70
f 20 69 85
f 18 80 81
f 22 89 85
f 4 48 46
f 7 28 50
f 5 27 37
f 11 40 58
f 3 40 37
f 1 29 26
f 21 72 66
f 21 66 83
f 23 84 77
f 19 84 83
f 21 88 41
f 7 50 56
f 8 51 53
f 5 52 49
f 6 54 55
f 11 58 61
f 12 59 60
f 9 38 57
f 10 39 44
f 3 42 36
f 4 47 48
f 23 77 90
f 24 78 81
f 17 76 75
f 18 79 80
f 19 64 82
f 20 65 69
f 13 63 62
f 14 67 68
f 15 72 71
f 16 73 74
f 1 28 25
f 2 33 34
f 21 29 87
f 22 30 35
f 2 34 32
f 2 32 31
f 4 45 44
f 12 45 55
f 22 35 46
f 16 74 68
f 14 70 69
f 20 86 80
f 24 86 89
f 24 89 48
f 1 27 28
f 1 26 27
f 3 38 40
f 11 52 40
f 21 41 29
f 15 63 72
f 13 64 66
f 19 76 84
f 23 88 84
f 23 42 88
f 5 51 50
f 5 49 51
f 11 54 52
f 11 61 54
f 9 59 58
f 9 57 59
f 3 39 38
f 3 36 39
f 23 47 42
f 23 90 47
f 17 78 77
f 17 75 78
f 19 79 76
f 19 82 79
f 13 65 64
f 13 62 65
f 15 67 63
f 15 71 67
f 21 73 72
f 21 87 73
f 7 33 28
f 7 56 33
f 1 30 29
f 1 25 30
f 8 53 34
f 6 43 32
f 12 60 45
f 4 43 45
f 2 31 35
f 22 70 74
f 22 85 70
f 24 81 86
f 20 85 86
f 22 46 89
f 5 50 27
f 3 37 26
f 9 58 38
f 5 37 52
f 3 26 41
f 13 66 63
f 19 83 64
f 17 77 76
f 21 83 88
f 3 41 42
f 8 56 51
f 6 53 49
f 6 49 54
f 12 55 61
f 12 61 59
f 10 60 57
f 10 57 39
f 4 44 36
f 4 36 47
f 24 48 90
f 24 90 78
f 18 81 75
f 18 75 79
f 20 80 82
f 20 82 65
f 14 69 62
f 14 62 67
f 16 68 71
f 16 71 73
f 22 74 87
f 2 25 33
f 8 34 56
f 22 87 30
f 2 35 25
f 34 53 32
f 32 43 31
f 45 60 44
f 45 43 55
f 35 31 46
f 74 70 68
f 70 85 69
f 86 81 80
f 86 85 89
f 89 46 48
f 27 50 28
f 26 37 27
f 38 58 40
f 52 37 40
f 41 26 29
f 63 66 72
f 64 83 66
f 76 77 84
f 88 83 84
f 42 41 88
f 51 56 50
f 49 53 51
f 54 49 52
f 61 55 54
f 59 61 58
f 57 60 59
f 39 57 38
f 36 44 39
f 47 36 42
f 90 48 47
f 78 90 77
f 75 81 78
f 79 75 76
f 82 80 79
f 65 82 64
f 62 69 65
f 67 62 63
f 71 68 67
f 73 71 72
f 87 74 73
f 33 25 28
f 56 34 33
f 30 87 29
f 25 35 30