v 0.000000 -1.500000 1.400000
v 0.000000 -1.500000 -1.600000
v 0.000000 1.500000 1.400000
v 0.000000 1.500000 -1.600000
v -0.750000 -1.500000 1.400000
v -0.750000 -1.500000 -1.600000
v -0.750000 1.500000 1.400000
v -0.750000 1.500000 -1.600000
v -1.500000 0.000000 1.400000
v -1.500000 0.000000 -1.600000
v -1.500000 -0.750000 1.400000
v -1.500000 -0.750000 -1.600000
v -1.500000 -1.500000 1.400000
v -1.500000 -1.500000 -1.600000
v -1.500000 1.500000 1.400000
v -1.500000 1.500000 -1.600000
v -1.500000 0.750000 1.400000
v -1.500000 0.750000 -1.600000
v 1.500000 0.000000 1.400000
v 1.500000 0.000000 -1.600000
v 1.500000 -0.750000 1.400000
v 1.500000 -0.750000 -1.600000
v 1.500000 -1.500000 1.400000
v 1.500000 -1.500000 -1.600000
v 1.500000 1.500000 1.400000
v 1.500000 1.500000 -1.600000
v 1.500000 0.750000 1.400000
v 1.500000 0.750000 -1.600000
v 0.750000 -1.500000 1.400000
v 0.750000 -1.500000 -1.600000
v 0.750000 1.500000 1.400000
v 0.750000 1.500000 -1.600000
f 6 14 12
f 12 2 6
f 10 2 12
f 8 10 18
f 18 16 8
f 4 10 8
f 20 2 10
f 22 24 30
f 30 20 22
f 10 4 20
f 28 4 32
f 32 26 28
f 28 20 4
f 30 2 20
f 11 13 5
f 5 1 11
f 11 1 9
f 17 9 7
f 7 15 17
f 7 9 3
f 9 1 19
f 29 23 21
f 21 19 29
f 19 3 9
f 31 3 27
f 27 25 31
f 3 19 27
f 19 1 29
f 13 11 14
f 14 11 12
f 11 9 12
f 12 9 10
f 9 17 10
f 10 17 18
f 17 15 18
f 18 15 16
f 15 7 16
f 16 7 8
f 7 3 8
f 8 3 4
f 3 31 4
f 4 31 32
f 31 25 32
f 32 25 26
f 25 27 26
f 26 27 28
f 27 19 28
f 28 19 20
f 19 21 20
f 20 21 22
f 21 23 22
f 22 23 24
f 23 29 24
f 24 29 30
f 29 1 30
f 30 1 2
f 5 13 6
f 6 13 14
f 1 5 2
f 2 5 6