v -1.000000 0.000000 -1.000000
v -1.000000 0.000000 1.000000
v -1.000000 -1.000000 -1.000000
v -1.000000 -1.000000 1.000000
v -1.000000 1.000000 -1.000000
v -1.000000 1.000000 1.000000
v 1.000000 0.000000 -1.000000
v 1.000000 0.000000 1.000000
v 1.000000 -1.000000 -1.000000
v 1.000000 -1.000000 1.000000
v 1.000000 1.000000 -1.000000
v 1.000000 1.000000 1.000000
v -1.000000 0.000000 0.000000
v -1.000000 -0.500000 -1.000000
v -1.000000 0.500000 -1.000000
v -1.000000 0.500000 0.000000
v 0.000000 0.000000 -1.000000
v 0.000000 -0.500000 -1.000000
v -1.000000 -0.500000 0.000000
v -1.000000 -0.500000 1.000000
v -1.000000 0.500000 1.000000
v 0.000000 0.000000 1.000000
v 0.000000 -0.500000 1.000000
v -1.000000 -1.000000 0.000000
v 0.000000 -1.000000 -1.000000
v 0.000000 -1.000000 0.000000
v 0.000000 -1.000000 1.000000
v -1.000000 1.000000 0.000000
v 0.000000 0.500000 -1.000000
v 0.000000 1.000000 -1.000000
v 0.000000 1.000000 0.000000
v 0.000000 0.500000 1.000000
v 0.000000 1.000000 1.000000
v 1.000000 0.000000 0.000000
v 1.000000 -0.500000 -1.000000
v 1.000000 -0.500000 0.000000
v 1.000000 0.500000 -1.000000
v 1.000000 -0.500000 1.000000
v 1.000000 0.500000 0.000000
v 1.000000 0.500000 1.000000
v 1.000000 -1.000000 0.000000
v 1.000000 1.000000 0.000000
v -1.000000 0.000000 -0.500000
v -1.000000 -0.250000 -1.000000
v -1.000000 0.250000 -1.000000
v -1.000000 0.250000 -0.500000
v -0.500000 0.000000 -1.000000
v -0.500000 -0.250000 -1.000000
v -1.000000 0.000000 0.500000
v -1.000000 -0.250000 0.500000
v -1.000000 -0.250000 1.000000
v -1.000000 0.250000 1.000000
v -0.500000 0.000000 1.000000
v -0.500000 -0.250000 1.000000
v -1.000000 -0.750000 -1.000000
v -1.000000 -0.750000 -0.500000
v -1.000000 -1.000000 -0.500000
v -0.500000 -1.000000 -1.000000
v -1.000000 -0.750000 1.000000
v -1.000000 -1.000000 0.500000
v -0.500000 -1.000000 0.500000
v -0.500000 -1.000000 1.000000
v -1.000000 0.750000 -1.000000
v -1.000000 1.000000 -0.500000
v -0.500000 0.750000 -1.000000
v -0.500000 1.000000 -1.000000
v -0.500000 1.000000 -0.500000
v -1.000000 0.750000 0.500000
v -1.000000 0.750000 1.000000
v -1.000000 1.000000 0.500000
v -0.500000 0.750000 1.000000
v -0.500000 1.000000 1.000000
v 0.500000 0.000000 -1.000000
v 0.500000 0.250000 -1.000000
v 1.000000 0.000000 -0.500000
v 1.000000 -0.250000 -1.000000
v 1.000000 -0.250000 -0.500000
v 1.000000 0.250000 -1.000000
v 0.500000 0.000000 1.000000
v 0.500000 0.250000 1.000000
v 1.000000 0.000000 0.500000
v 1.000000 -0.250000 1.000000
v 1.000000 0.250000 0.500000
v 1.000000 0.250000 1.000000
v 0.500000 -0.750000 -1.000000
v 0.500000 -1.000000 -1.000000
v 0.500000 -1.000000 -0.500000
v 1.000000 -0.750000 -1.000000
v 1.000000 -1.000000 -0.500000
v 0.500000 -0.750000 1.000000
v 0.500000 -1.000000 1.000000
v 1.000000 -0.750000 0.500000
v 1.000000 -0.750000 1.000000
v 1.000000 -1.000000 0.500000
v 0.500000 1.000000 -1.000000
v 1.000000 0.750000 -1.000000
v 1.000000 0.750000 -0.500000
v 1.000000 1.000000 -0.500000
v 0.500000 1.000000 0.500000
v 0.500000 1.000000 1.000000
v 1.000000 0.750000 1.000000
v 1.000000 1.000000 0.500000
v -1.000000 -0.250000 -0.500000
v -1.000000 0.250000 0.000000
v -1.000000 -0.250000 0.000000
v -1.000000 0.250000 0.500000
v -0.500000 -0.500000 -1.000000
v -1.000000 -0.500000 -0.500000
v -0.500000 -0.750000 -1.000000
v -1.000000 0.500000 -0.500000
v -0.500000 0.250000 -1.000000
v -1.000000 0.750000 -0.500000
v -0.500000 0.500000 -1.000000
v -1.000000 0.500000 0.500000
v -1.000000 0.750000 0.000000
v 0.000000 -0.250000 -1.000000
v 0.000000 0.250000 -1.000000
v 0.500000 -0.250000 -1.000000
v 0.000000 -0.750000 -1.000000
v 0.500000 -0.500000 -1.000000
v -1.000000 -0.500000 0.500000
v -1.000000 -0.750000 0.000000
v -0.500000 -0.500000 1.000000
v -1.000000 -0.750000 0.500000
v -0.500000 -0.750000 1.000000
v -0.500000 0.250000 1.000000
v -0.500000 0.500000 1.000000
v 0.000000 -0.250000 1.000000
v 0.000000 0.250000 1.000000
v 0.500000 -0.250000 1.000000
v 0.000000 -0.750000 1.000000
v 0.500000 -0.500000 1.000000
v -0.500000 -1.000000 -0.500000
v -0.500000 -1.000000 0.000000
v 0.000000 -1.000000 -0.500000
v 0.000000 -1.000000 0.500000
v 0.500000 -1.000000 0.000000
v 0.500000 -1.000000 0.500000
v -0.500000 1.000000 0.000000
v -0.500000 1.000000 0.500000
v 0.000000 0.750000 -1.000000
v 0.500000 0.500000 -1.000000
v 0.000000 1.000000 -0.500000
v 0.500000 0.750000 -1.000000
v 0.500000 1.000000 -0.500000
v 0.000000 1.000000 0.500000
v 0.500000 1.000000 0.000000
v 0.000000 0.750000 1.000000
v 0.500000 0.500000 1.000000
v 0.500000 0.750000 1.000000
v 1.000000 -0.250000 0.000000
v 1.000000 0.250000 -0.500000
v 1.000000 -0.250000 0.500000
v 1.000000 0.250000 0.000000
v 1.000000 -0.500000 -0.500000
v 1.000000 -0.750000 -0.500000
v 1.000000 -0.500000 0.500000
v 1.000000 -0.750000 0.000000
v 1.000000 0.500000 -0.500000
v 1.000000 0.500000 0.500000
v 1.000000 0.750000 0.000000
v 1.000000 0.750000 0.500000
v -1.000000 0.000000 -0.750000
v -1.000000 -0.125000 -1.000000
v -1.000000 0.125000 -1.000000
v -1.000000 0.125000 -0.750000
v -0.750000 0.000000 -1.000000
v -0.750000 -0.125000 -1.000000
v -1.000000 0.000000 0.750000
v -1.000000 -0.125000 0.750000
v -1.000000 -0.125000 1.000000
v -1.000000 0.125000 1.000000
v -0.750000 0.000000 1.000000
v -0.750000 -0.125000 1.000000
v -1.000000 -0.875000 -1.000000
v -1.000000 -0.875000 -0.750000
v -1.000000 -1.000000 -0.750000
v -0.750000 -1.000000 -1.000000
v -1.000000 -0.875000 1.000000
v -1.000000 -1.000000 0.750000
v -0.750000 -1.000000 0.750000
v -0.750000 -1.000000 1.000000
v -1.000000 0.875000 -1.000000
v -1.000000 1.000000 -0.750000
v -0.750000 0.875000 -1.000000
v -0.750000 1.000000 -1.000000
v -0.750000 1.000000 -0.750000
v -1.000000 0.875000 0.750000
v -1.000000 0.875000 1.000000
v -1.000000 1.000000 0.750000
v -0.750000 0.875000 1.000000
v -0.750000 1.000000 1.000000
v 0.750000 0.000000 -1.000000
v 0.750000 0.125000 -1.000000
v 1.000000 0.000000 -0.750000
v 1.000000 -0.125000 -1.000000
v 1.000000 -0.125000 -0.750000
v 1.000000 0.125000 -1.000000
v 0.750000 0.000000 1.000000
v 0.750000 0.125000 1.000000
v 1.000000 0.000000 0.750000
v 1.000000 -0.125000 1.000000
v 1.000000 0.125000 0.750000
v 1.000000 0.125000 1.000000
v 0.750000 -0.875000 -1.000000
v 0.750000 -1.000000 -1.000000
v 0.750000 -1.000000 -0.750000
v 1.000000 -0.875000 -1.000000
v 1.000000 -1.000000 -0.750000
v 0.750000 -0.875000 1.000000
v 0.750000 -1.000000 1.000000
v 1.000000 -0.875000 0.750000
v 1.000000 -0.875000 1.000000
v 1.000000 -1.000000 0.750000
v 0.750000 1.000000 -1.000000
v 1.000000 0.875000 -1.000000
v 1.000000 0.875000 -0.750000
v 1.000000 1.000000 -0.750000
v 0.750000 1.000000 0.750000
v 0.750000 1.000000 1.000000
v 1.000000 0.875000 1.000000
v 1.000000 1.000000 0.750000
v -1.000000 0.000000 -0.250000
v -1.000000 0.000000 0.250000
v -1.000000 -0.125000 -0.250000
v -1.000000 0.125000 0.000000
v -1.000000 -0.125000 0.000000
v -1.000000 0.125000 0.250000
v -1.000000 -0.375000 -1.000000
v -1.000000 -0.625000 -1.000000
v -1.000000 -0.375000 -0.750000
v -0.750000 -0.500000 -1.000000
v -1.000000 -0.500000 -0.750000
v -0.750000 -0.625000 -1.000000
v -1.000000 0.375000 -1.000000
v -1.000000 0.625000 -1.000000
v -1.000000 0.500000 -0.750000
v -0.750000 0.375000 -1.000000
v -1.000000 0.625000 -0.750000
v -0.750000 0.500000 -1.000000
v -1.000000 0.375000 -0.250000
v -1.000000 0.625000 0.250000
v -1.000000 0.375000 0.000000
v -1.000000 0.500000 -0.250000
v -1.000000 0.500000 0.250000
v -1.000000 0.625000 0.000000
v -0.250000 0.000000 -1.000000
v 0.250000 0.000000 -1.000000
v -0.250000 0.125000 -1.000000
v 0.000000 -0.125000 -1.000000
v 0.000000 0.125000 -1.000000
v 0.250000 -0.125000 -1.000000
v -0.250000 -0.375000 -1.000000
v 0.250000 -0.625000 -1.000000
v -0.250000 -0.500000 -1.000000
v 0.000000 -0.375000 -1.000000
v 0.000000 -0.625000 -1.000000
v 0.250000 -0.500000 -1.000000
v -1.000000 -0.375000 0.250000
v -1.000000 -0.625000 -0.250000
v -1.000000 -0.375000 0.000000
v -1.000000 -0.500000 -0.250000
v -1.000000 -0.500000 0.250000
v -1.000000 -0.625000 0.000000
v -1.000000 -0.375000 1.000000
v -1.000000 -0.625000 1.000000
v -1.000000 -0.500000 0.750000
v -0.750000 -0.500000 1.000000
v -1.000000 -0.625000 0.750000
v -0.750000 -0.625000 1.000000
v -1.000000 0.375000 1.000000
v -1.000000 0.625000 1.000000
v -1.000000 0.375000 0.750000
v -1.000000 0.500000 0.750000
v -0.750000 0.375000 1.000000
v -0.750000 0.500000 1.000000
v -0.250000 0.000000 1.000000
v 0.250000 0.000000 1.000000
v -0.250000 0.125000 1.000000
v 0.000000 -0.125000 1.000000
v 0.000000 0.125000 1.000000
v 0.250000 -0.125000 1.000000
v -0.250000 -0.375000 1.000000
v 0.250000 -0.625000 1.000000
v -0.250000 -0.500000 1.000000
v 0.000000 -0.375000 1.000000
v 0.000000 -0.625000 1.000000
v 0.250000 -0.500000 1.000000
v -1.000000 -1.000000 -0.250000
v -1.000000 -1.000000 0.250000
v -1.000000 -0.875000 0.000000
v -1.000000 -0.875000 0.250000
v -0.750000 -1.000000 -0.250000
v -0.750000 -1.000000 0.000000
v -0.250000 -1.000000 -1.000000
v 0.250000 -1.000000 -1.000000
v -0.250000 -0.875000 -1.000000
v 0.000000 -0.875000 -1.000000
v -0.250000 -1.000000 -0.750000
v 0.000000 -1.000000 -0.750000
v -0.250000 -1.000000 0.250000
v 0.250000 -1.000000 -0.250000
v -0.250000 -1.000000 0.000000
v 0.000000 -1.000000 -0.250000
v 0.000000 -1.000000 0.250000
v 0.250000 -1.000000 0.000000
v -0.250000 -1.000000 1.000000
v 0.250000 -1.000000 1.000000
v -0.250000 -0.875000 1.000000
v 0.000000 -0.875000 1.000000
v 0.000000 -1.000000 0.750000
v 0.250000 -1.000000 0.750000
v -1.000000 1.000000 -0.250000
v -1.000000 1.000000 0.250000
v -1.000000 0.875000 -0.250000
v -1.000000 0.875000 0.000000
v -0.750000 1.000000 0.000000
v -0.750000 1.000000 0.250000
v -0.250000 0.625000 -1.000000
v 0.250000 0.375000 -1.000000
v -0.250000 0.500000 -1.000000
v 0.000000 0.375000 -1.000000
v 0.000000 0.625000 -1.000000
v 0.250000 0.500000 -1.000000
v -0.250000 1.000000 -1.000000
v 0.250000 1.000000 -1.000000
v 0.000000 0.875000 -1.000000
v 0.000000 1.000000 -0.750000
v 0.250000 0.875000 -1.000000
v 0.250000 1.000000 -0.750000
v -0.250000 1.000000 -0.250000
v 0.250000 1.000000 0.250000
v -0.250000 1.000000 0.000000
v 0.000000 1.000000 -0.250000
v 0.000000 1.000000 0.250000
v 0.250000 1.000000 0.000000
v -0.250000 0.625000 1.000000
v 0.250000 0.375000 1.000000
v -0.250000 0.500000 1.000000
v 0.000000 0.375000 1.000000
v 0.000000 0.625000 1.000000
v 0.250000 0.500000 1.000000
v -0.250000 1.000000 1.000000
v 0.250000 1.000000 1.000000
v -0.250000 1.000000 0.750000
v 0.000000 1.000000 0.750000
v 0.000000 0.875000 1.000000
v 0.250000 0.875000 1.000000
v 1.000000 0.000000 -0.250000
v 1.000000 0.000000 0.250000
v 1.000000 -0.125000 0.000000
v 1.000000 0.125000 -0.250000
v 1.000000 -0.125000 0.250000
v 1.000000 0.125000 0.000000
v 1.000000 -0.375000 -1.000000
v 1.000000 -0.625000 -1.000000
v 0.750000 -0.375000 -1.000000
v 0.750000 -0.500000 -1.000000
v 1.000000 -0.500000 -0.750000
v 1.000000 -0.625000 -0.750000
v 1.000000 -0.375000 -0.250000
v 1.000000 -0.625000 0.250000
v 1.000000 -0.375000 0.000000
v 1.000000 -0.500000 -0.250000
v 1.000000 -0.500000 0.250000
v 1.000000 -0.625000 0.000000
v 1.000000 0.375000 -1.000000
v 1.000000 0.625000 -1.000000
v 0.750000 0.500000 -1.000000
v 0.750000 0.625000 -1.000000
v 1.000000 0.375000 -0.750000
v 1.000000 0.500000 -0.750000
v 1.000000 -0.375000 1.000000
v 1.000000 -0.625000 1.000000
v 0.750000 -0.375000 1.000000
v 0.750000 -0.500000 1.000000
v 1.000000 -0.375000 0.750000
v 1.000000 -0.500000 0.750000
v 1.000000 0.375000 0.250000
v 1.000000 0.625000 -0.250000
v 1.000000 0.375000 0.000000
v 1.000000 0.500000 -0.250000
v 1.000000 0.500000 0.250000
v 1.000000 0.625000 0.000000
v 1.000000 0.375000 1.000000
v 1.000000 0.625000 1.000000
v 0.750000 0.500000 1.000000
v 0.750000 0.625000 1.000000
v 1.000000 0.500000 0.750000
v 1.000000 0.625000 0.750000
v 1.000000 -1.000000 -0.250000
v 1.000000 -1.000000 0.250000
v 0.750000 -1.000000 0.000000
v 0.750000 -1.000000 0.250000
v 1.000000 -0.875000 -0.250000
v 1.000000 -0.875000 0.000000
v 1.000000 1.000000 -0.250000
v 1.000000 1.000000 0.250000
v 0.750000 1.000000 -0.250000
v 0.750000 1.000000 0.000000
v 1.000000 0.875000 0.000000
v 1.000000 0.875000 0.250000
v -1.000000 -0.125000 -0.750000
v -1.000000 0.125000 -0.500000
v -1.000000 -0.125000 -0.500000
v -1.000000 0.125000 -0.250000
v -0.750000 -0.250000 -1.000000
v -1.000000 -0.250000 -0.750000
v -0.750000 -0.375000 -1.000000
v -1.000000 0.250000 -0.750000
v -0.750000 0.125000 -1.000000
v -1.000000 0.375000 -0.750000
v -0.750000 0.250000 -1.000000
v -1.000000 0.250000 -0.250000
v -1.000000 0.375000 -0.500000
v -0.500000 -0.125000 -1.000000
v -0.500000 0.125000 -1.000000
v -0.250000 -0.125000 -1.000000
v -0.500000 -0.375000 -1.000000
v -0.250000 -0.250000 -1.000000
v -1.000000 -0.125000 0.500000
v -1.000000 0.125000 0.750000
v -1.000000 -0.125000 0.250000
v -1.000000 0.125000 0.500000
v -1.000000 -0.250000 0.750000
v -1.000000 -0.250000 0.250000
v -1.000000 -0.375000 0.500000
v -0.750000 -0.250000 1.000000
v -1.000000 -0.375000 0.750000
v -0.750000 -0.375000 1.000000
v -0.750000 0.125000 1.000000
v -1.000000 0.250000 0.750000
v -0.750000 0.250000 1.000000
v -0.500000 -0.125000 1.000000
v -0.500000 0.125000 1.000000
v -0.250000 -0.125000 1.000000
v -0.500000 -0.375000 1.000000
v -0.250000 -0.250000 1.000000
v -1.000000 -0.750000 -0.750000
v -0.750000 -0.875000 -1.000000
v -1.000000 -0.625000 -0.750000
v -0.750000 -0.750000 -1.000000
v -1.000000 -0.875000 -0.500000
v -1.000000 -0.625000 -0.500000
v -1.000000 -0.750000 -0.250000
v -0.750000 -1.000000 -0.750000
v -1.000000 -0.875000 -0.250000
v -0.750000 -1.000000 -0.500000
v -0.500000 -0.875000 -1.000000
v -0.500000 -1.000000 -0.750000
v -1.000000 -0.875000 0.750000
v -0.750000 -0.875000 1.000000
v -1.000000 -0.750000 0.750000
v -0.750000 -0.750000 1.000000
v -0.750000 -1.000000 0.500000
v -1.000000 -0.875000 0.500000
v -0.750000 -1.000000 0.250000
v -0.500000 -1.000000 0.750000
v -0.500000 -1.000000 0.250000
v -0.250000 -1.000000 0.500000
v -0.500000 -0.875000 1.000000
v -0.250000 -1.000000 0.750000
v -1.000000 0.875000 -0.750000
v -0.750000 0.750000 -1.000000
v -1.000000 0.750000 -0.750000
v -0.750000 0.625000 -1.000000
v -0.750000 1.000000 -0.500000
v -1.000000 0.875000 -0.500000
v -0.750000 1.000000 -0.250000
v -0.500000 0.875000 -1.000000
v -0.500000 0.625000 -1.000000
v -0.250000 0.750000 -1.000000
v -0.500000 1.000000 -0.750000
v -0.250000 0.875000 -1.000000
v -0.250000 1.000000 -0.750000
v -0.500000 1.000000 -0.250000
v -0.250000 1.000000 -0.500000
v -1.000000 0.750000 0.750000
v -1.000000 0.875000 0.500000
v -1.000000 0.625000 0.500000
v -1.000000 0.750000 0.250000
v -0.750000 0.750000 1.000000
v -1.000000 0.625000 0.750000
v -0.750000 0.625000 1.000000
v -0.750000 1.000000 0.750000
v -1.000000 0.875000 0.250000
v -0.750000 1.000000 0.500000
v -0.500000 0.875000 1.000000
v -0.500000 0.625000 1.000000
v -0.250000 0.750000 1.000000
v -0.500000 1.000000 0.750000
v -0.250000 0.875000 1.000000
v 0.500000 0.125000 -1.000000
v 0.750000 -0.125000 -1.000000
v 0.250000 0.125000 -1.000000
v 0.500000 -0.125000 -1.000000
v 0.750000 0.250000 -1.000000
v 0.250000 0.250000 -1.000000
v 0.500000 0.375000 -1.000000
v 1.000000 -0.125000 -0.500000
v 1.000000 0.125000 -0.750000
v 1.000000 -0.125000 -0.250000
v 1.000000 0.125000 -0.500000
v 1.000000 -0.250000 -0.750000
v 0.750000 -0.250000 -1.000000
v 1.000000 -0.375000 -0.750000
v 1.000000 -0.250000 -0.250000
v 1.000000 -0.375000 -0.500000
v 0.750000 0.375000 -1.000000
v 1.000000 0.250000 -0.750000
v 0.500000 0.125000 1.000000
v 0.750000 -0.125000 1.000000
v 0.250000 0.125000 1.000000
v 0.500000 -0.125000 1.000000
v 0.750000 0.250000 1.000000
v 0.250000 0.250000 1.000000
v 0.500000 0.375000 1.000000
v 1.000000 -0.125000 0.750000
v 1.000000 0.125000 0.500000
v 1.000000 -0.125000 0.500000
v 1.000000 0.125000 0.250000
v 0.750000 -0.250000 1.000000
v 1.000000 -0.250000 0.750000
v 1.000000 0.250000 0.750000
v 1.000000 0.250000 0.250000
v 1.000000 0.375000 0.500000
v 0.750000 0.375000 1.000000
v 1.000000 0.375000 0.750000
v 0.500000 -0.875000 -1.000000
v 0.750000 -0.750000 -1.000000
v 0.250000 -0.750000 -1.000000
v 0.500000 -0.625000 -1.000000
v 0.500000 -1.000000 -0.750000
v 0.250000 -0.875000 -1.000000
v 0.250000 -1.000000 -0.750000
v 0.750000 -1.000000 -0.500000
v 0.250000 -1.000000 -0.500000
v 0.500000 -1.000000 -0.250000
v 1.000000 -0.875000 -0.750000
v 0.750000 -0.625000 -1.000000
v 1.000000 -0.750000 -0.750000
v 0.750000 -1.000000 -0.250000
v 1.000000 -0.875000 -0.500000
v 0.500000 -0.875000 1.000000
v 0.750000 -0.750000 1.000000
v 0.250000 -0.750000 1.000000
v 0.500000 -0.625000 1.000000
v 0.750000 -1.000000 0.750000
v 0.250000 -0.875000 1.000000
v 0.500000 -1.000000 0.750000
v 1.000000 -0.750000 0.750000
v 1.000000 -0.875000 0.500000
v 1.000000 -0.625000 0.500000
v 1.000000 -0.750000 0.250000
v 0.750000 -0.625000 1.000000
v 1.000000 -0.625000 0.750000
v 0.750000 -1.000000 0.500000
v 1.000000 -0.875000 0.250000
v 0.750000 0.875000 -1.000000
v 0.750000 1.000000 -0.750000
v 0.500000 0.875000 -1.000000
v 0.500000 1.000000 -0.750000
v 1.000000 0.750000 -0.750000
v 0.750000 0.750000 -1.000000
v 1.000000 0.625000 -0.750000
v 1.000000 0.875000 -0.500000
v 1.000000 0.625000 -0.500000
v 1.000000 0.750000 -0.250000
v 0.750000 1.000000 -0.500000
v 1.000000 0.875000 -0.250000
v 0.500000 1.000000 0.750000
v 0.750000 1.000000 0.500000
v 0.250000 1.000000 0.500000
v 0.500000 1.000000 0.250000
v 0.750000 0.875000 1.000000
v 0.250000 1.000000 0.750000
v 0.500000 0.875000 1.000000
v 1.000000 0.875000 0.750000
v 0.750000 0.750000 1.000000
v 1.000000 0.750000 0.750000
v 0.750000 1.000000 0.250000
v 1.000000 0.875000 0.500000
v -1.000000 -0.250000 -0.250000
v -1.000000 -0.375000 -0.500000
v -1.000000 0.250000 0.250000
v -1.000000 0.375000 0.250000
v -1.000000 -0.375000 -0.250000
v -1.000000 0.375000 0.500000
v -0.500000 -0.625000 -1.000000
v -0.250000 -0.625000 -1.000000
v -0.250000 -0.750000 -1.000000
v -1.000000 0.625000 -0.500000
v -1.000000 0.625000 -0.250000
v -0.500000 0.375000 -1.000000
v -0.250000 0.250000 -1.000000
v -1.000000 0.750000 -0.250000
v -0.250000 0.375000 -1.000000
v 0.250000 -0.250000 -1.000000
v 0.250000 -0.375000 -1.000000
v 0.500000 -0.375000 -1.000000
v -1.000000 -0.625000 0.250000
v -1.000000 -0.625000 0.500000
v -1.000000 -0.750000 0.250000
v -0.500000 -0.625000 1.000000
v -0.250000 -0.625000 1.000000
v -0.250000 -0.750000 1.000000
v -0.500000 0.375000 1.000000
v -0.250000 0.250000 1.000000
v -0.250000 0.375000 1.000000
v 0.250000 -0.250000 1.000000
v 0.250000 -0.375000 1.000000
v 0.500000 -0.375000 1.000000
v -0.500000 -1.000000 -0.250000
v -0.250000 -1.000000 -0.500000
v -0.250000 -1.000000 -0.250000
v 0.250000 -1.000000 0.250000
v 0.250000 -1.000000 0.500000
v 0.500000 -1.000000 0.250000
v -0.500000 1.000000 0.250000
v -0.250000 1.000000 0.250000
v -0.250000 1.000000 0.500000
v 0.250000 0.625000 -1.000000
v 0.250000 0.750000 -1.000000
v 0.500000 0.625000 -1.000000
v 0.250000 1.000000 -0.500000
v 0.250000 1.000000 -0.250000
v 0.500000 1.000000 -0.250000
v 0.250000 0.625000 1.000000
v 0.250000 0.750000 1.000000
v 0.500000 0.625000 1.000000
v 1.000000 -0.250000 0.250000
v 1.000000 -0.375000 0.250000
v 1.000000 0.250000 -0.250000
v 1.000000 0.375000 -0.500000
v 1.000000 -0.375000 0.500000
v 1.000000 0.375000 -0.250000
v 1.000000 -0.625000 -0.500000
v 1.000000 -0.625000 -0.250000
v 1.000000 -0.750000 -0.250000
v 1.000000 0.625000 0.250000
v 1.000000 0.625000 0.500000
v 1.000000 0.750000 0.250000
f 9 206 205
f 7 193 194
f 1 167 168
f 5 186 185
f 2 171 174
f 6 189 191
f 10 213 210
f 8 204 200
f 4 179 180
f 3 176 175
f 2 172 169
f 1 166 165
f 6 192 190
f 5 187 186
f 12 221 222
f 11 217 216
f 10 211 214
f 9 207 206
f 8 202 201
f 7 197 196
f 3 175 178
f 1 165 167
f 7 196 193
f 11 216 215
f 4 182 179
f 2 173 172
f 8 199 202
f 12 220 221
f 2 170 171
f 2 169 170
f 6 188 189
f 6 190 188
f 12 219 220
f 12 222 219
f 8 203 204
f 8 201 203
f 4 181 182
f 4 180 181
f 10 212 213
f 10 214 212
f 1 168 164
f 5 185 183
f 9 205 208
f 7 194 198
f 10 210 211
f 8 200 199
f 2 174 173
f 6 191 192
f 3 177 176
f 1 164 163
f 1 163 166
f 5 183 184
f 5 184 187
f 11 215 218
f 11 218 217
f 7 198 195
f 9 209 207
f 3 178 177
f 7 195 197
f 9 208 209
f 14 232 234
f 15 240 238
f 35 358 357
f 37 369 370
f 27 310 309
f 22 281 279
f 22 280 282
f 33 347 348
f 19 264 263
f 13 225 227
f 16 243 245
f 28 315 316
f 31 333 335
f 42 399 400
f 39 384 383
f 34 352 354
f 26 306 305
f 24 293 294
f 36 363 365
f 41 395 396
f 25 298 296
f 17 251 248
f 17 250 247
f 30 327 325
f 20 268 265
f 21 276 272
f 38 376 374
f 40 387 385
f 20 269 266
f 19 262 260
f 21 273 271
f 16 244 241
f 33 345 343
f 31 334 331
f 40 390 386
f 39 382 380
f 27 312 308
f 26 304 302
f 38 377 373
f 36 364 361
f 14 234 230
f 15 238 235
f 35 357 355
f 37 370 368
f 27 309 307
f 22 279 277
f 22 282 278
f 33 348 344
f 19 263 259
f 13 227 224
f 16 245 242
f 28 316 314
f 31 335 332
f 42 400 398
f 39 383 379
f 34 354 350
f 26 305 301
f 24 294 290
f 36 365 362
f 41 396 392
f 18 255 253
f 29 321 319
f 18 258 254
f 29 324 320
f 23 287 284
f 32 340 338
f 23 286 283
f 32 341 337
f 24 291 289
f 14 231 229
f 13 226 223
f 15 239 236
f 28 317 313
f 30 330 326
f 42 401 397
f 37 371 367
f 41 393 391
f 25 299 295
f 34 351 349
f 35 360 356
f 18 257 255
f 29 322 321
f 18 256 258
f 29 323 324
f 23 285 287
f 32 339 340
f 23 288 286
f 32 342 341
f 24 292 291
f 14 233 231
f 13 228 226
f 15 237 239
f 28 318 317
f 30 328 330
f 42 402 401
f 37 372 371
f 41 394 393
f 25 300 299
f 34 353 351
f 35 359 360
f 18 254 257
f 29 320 322
f 18 253 256
f 29 319 323
f 23 283 285
f 32 337 339
f 23 284 288
f 32 338 342
f 24 290 292
f 14 230 233
f 13 224 228
f 15 235 237
f 28 314 318
f 30 325 328
f 42 398 402
f 37 368 372
f 41 392 394
f 25 296 300
f 34 350 353
f 35 355 359
f 25 295 297
f 17 247 249
f 17 248 252
f 30 326 329
f 20 266 270
f 21 271 275
f 38 373 375
f 40 386 388
f 20 265 267
f 19 259 261
f 21 272 274
f 16 242 246
f 33 344 346
f 31 332 336
f 40 385 389
f 39 379 381
f 27 307 311
f 26 301 303
f 38 374 378
f 36 362 366
f 14 229 232
f 15 236 240
f 35 356 358
f 37 367 369
f 27 308 310
f 22 278 281
f 22 277 280
f 33 343 347
f 19 260 264
f 13 223 225
f 16 241 243
f 28 313 315
f 31 331 333
f 42 397 399
f 39 380 384
f 34 349 352
f 26 302 306
f 24 289 293
f 36 361 363
f 41 391 395
f 25 297 298
f 17 249 251
f 17 252 250
f 30 329 327
f 20 270 268
f 21 275 276
f 38 375 376
f 40 388 387
f 20 267 269
f 19 261 262
f 21 274 273
f 16 246 244
f 33 346 345
f 31 336 334
f 40 389 390
f 39 381 382
f 27 311 312
f 26 303 304
f 38 378 377
f 36 366 364
f 119 531 534
f 117 498 495
f 116 420 418
f 141 472 474
f 123 437 430
f 127 489 484
f 132 547 555
f 149 517 527
f 124 456 453
f 108 441 444
f 106 424 432
f 110 412 415
f 140 487 491
f 143 475 477
f 162 582 580
f 159 565 567
f 138 557 550
f 135 535 537
f 153 520 523
f 155 506 508
f 109 449 442
f 111 417 413
f 118 496 505
f 144 561 564
f 125 454 461
f 126 433 435
f 130 522 514
f 150 579 577
f 121 429 427
f 105 426 423
f 114 483 480
f 115 481 486
f 146 576 573
f 147 574 581
f 160 528 526
f 154 525 521
f 136 462 460
f 134 459 457
f 157 556 553
f 158 554 558
f 107 409 419
f 113 466 471
f 120 540 532
f 142 509 499
f 131 549 546
f 129 513 516
f 128 436 438
f 148 492 490
f 122 445 447
f 103 405 408
f 104 414 406
f 112 468 465
f 139 476 469
f 145 569 562
f 161 568 570
f 152 503 510
f 137 538 542
f 133 448 450
f 151 507 502
f 156 543 541
f 119 591 590
f 117 595 597
f 116 598 599
f 141 623 622
f 123 604 605
f 127 607 609
f 132 612 611
f 149 630 628
f 124 602 603
f 108 587 584
f 106 588 585
f 110 593 592
f 140 621 619
f 143 626 625
f 162 641 642
f 159 636 634
f 138 617 618
f 135 615 614
f 153 635 631
f 155 638 637
f 86 529 206
f 73 493 193
f 47 416 167
f 66 470 186
f 51 428 171
f 69 482 189
f 93 545 213
f 84 515 204
f 59 451 179
f 56 439 176
f 52 422 172
f 46 410 166
f 72 485 192
f 67 473 187
f 101 578 221
f 97 563 217
f 91 548 211
f 87 533 207
f 82 518 202
f 77 504 197
f 55 440 175
f 45 411 165
f 76 494 196
f 96 559 216
f 62 452 182
f 53 431 173
f 79 512 199
f 100 575 220
f 50 425 170
f 49 421 169
f 68 478 188
f 70 479 190
f 99 571 219
f 102 572 222
f 83 524 203
f 81 519 201
f 61 458 181
f 60 455 180
f 92 551 212
f 94 552 214
f 48 407 168
f 65 464 185
f 85 530 205
f 74 497 194
f 90 544 210
f 80 511 200
f 54 434 174
f 71 488 191
f 57 443 177
f 44 403 164
f 43 404 163
f 63 463 183
f 64 467 184
f 95 560 215
f 98 566 218
f 78 501 198
f 89 536 209
f 58 446 178
f 75 500 195
f 88 539 208
f 107 589 232
f 113 594 240
f 120 600 358
f 142 624 369
f 131 606 310
f 129 608 281
f 128 610 280
f 148 629 347
f 122 601 264
f 103 583 225
f 104 586 243
f 112 596 315
f 139 620 333
f 145 627 399
f 161 640 384
f 152 633 352
f 137 616 306
f 133 613 293
f 151 632 363
f 156 639 395
f 119 534 298
f 117 495 251
f 116 418 250
f 141 474 327
f 123 430 268
f 127 484 276
f 132 555 376
f 149 527 387
f 124 453 269
f 108 444 262
f 106 432 273
f 110 415 244
f 140 491 345
f 143 477 334
f 162 580 390
f 159 567 382
f 138 550 312
f 135 537 304
f 153 523 377
f 155 508 364
f 109 442 234
f 111 413 238
f 118 505 357
f 144 564 370
f 125 461 309
f 126 435 279
f 130 514 282
f 150 577 348
f 121 427 263
f 105 423 227
f 114 480 245
f 115 486 316
f 146 573 335
f 147 581 400
f 160 526 383
f 154 521 354
f 136 460 305
f 134 457 294
f 157 553 365
f 158 558 396
f 107 419 255
f 113 471 321
f 120 532 258
f 142 499 324
f 131 546 287
f 129 516 340
f 128 438 286
f 148 490 341
f 122 447 291
f 103 408 231
f 104 406 226
f 112 465 239
f 139 469 317
f 145 562 330
f 161 570 401
f 152 510 371
f 137 542 393
f 133 450 299
f 151 502 351
f 156 541 360
f 119 590 257
f 117 597 322
f 116 599 256
f 141 622 323
f 123 605 285
f 127 609 339
f 132 611 288
f 149 628 342
f 124 603 292
f 108 584 233
f 106 585 228
f 110 592 237
f 140 619 318
f 143 625 328
f 162 642 402
f 159 634 372
f 138 618 394
f 135 614 300
f 153 631 353
f 155 637 359
f 85 531 254
f 74 498 320
f 48 420 253
f 65 472 319
f 54 437 283
f 71 489 337
f 90 547 284
f 80 517 338
f 60 456 290
f 55 441 230
f 49 424 224
f 45 412 235
f 70 487 314
f 66 475 325
f 102 582 398
f 96 565 368
f 94 557 392
f 86 535 296
f 81 520 350
f 76 506 355
f 58 449 295
f 47 417 247
f 73 496 248
f 95 561 326
f 59 454 266
f 52 433 271
f 82 522 373
f 101 579 386
f 51 429 265
f 50 426 259
f 69 483 272
f 68 481 242
f 100 576 344
f 99 574 332
f 84 528 385
f 83 525 379
f 62 462 307
f 61 459 301
f 93 556 374
f 92 554 362
f 44 409 229
f 63 466 236
f 88 540 356
f 78 509 367
f 91 549 308
f 79 513 278
f 53 436 277
f 72 492 343
f 56 445 260
f 43 405 223
f 46 414 241
f 64 468 313
f 67 476 331
f 98 569 397
f 97 568 380
f 75 503 349
f 87 538 302
f 57 448 289
f 77 507 361
f 89 543 391
f 109 591 297
f 111 595 249
f 118 598 252
f 144 623 329
f 125 604 270
f 126 607 275
f 130 612 375
f 150 630 388
f 121 602 267
f 105 587 261
f 114 588 274
f 115 593 246
f 146 621 346
f 147 626 336
f 160 641 389
f 154 636 381
f 136 617 311
f 134 615 303
f 157 635 378
f 158 638 366
f 85 529 531
f 74 493 498
f 48 416 420
f 65 470 472
f 54 428 437
f 71 482 489
f 90 545 547
f 80 515 517
f 60 451 456
f 55 439 441
f 49 422 424
f 45 410 412
f 70 485 487
f 66 473 475
f 102 578 582
f 96 563 565
f 94 548 557
f 86 533 535
f 81 518 520
f 76 504 506
f 58 440 449
f 47 411 417
f 73 494 496
f 95 559 561
f 59 452 454
f 52 431 433
f 82 512 522
f 101 575 579
f 51 425 429
f 50 421 426
f 69 478 483
f 68 479 481
f 100 571 576
f 99 572 574
f 84 524 528
f 83 519 525
f 62 458 462
f 61 455 459
f 93 551 556
f 92 552 554
f 44 407 409
f 63 464 466
f 88 530 540
f 78 497 509
f 91 544 549
f 79 511 513
f 53 434 436
f 72 488 492
f 56 443 445
f 43 403 405
f 46 404 414
f 64 463 468
f 67 467 476
f 98 560 569
f 97 566 568
f 75 501 503
f 87 536 538
f 57 446 448
f 77 500 507
f 89 539 543
f 109 589 591
f 111 594 595
f 118 600 598
f 144 624 623
f 125 606 604
f 126 608 607
f 130 610 612
f 150 629 630
f 121 601 602
f 105 583 587
f 114 586 588
f 115 596 593
f 146 620 621
f 147 627 626
f 160 640 641
f 154 633 636
f 136 616 617
f 134 613 615
f 157 632 635
f 158 639 638
f 85 205 529
f 74 194 493
f 48 168 416
f 65 185 470
f 54 174 428
f 71 191 482
f 90 210 545
f 80 200 515
f 60 180 451
f 55 175 439
f 49 169 422
f 45 165 410
f 70 190 485
f 66 186 473
f 102 222 578
f 96 216 563
f 94 214 548
f 86 206 533
f 81 201 518
f 76 196 504
f 58 178 440
f 47 167 411
f 73 193 494
f 95 215 559
f 59 179 452
f 52 172 431
f 82 202 512
f 101 221 575
f 51 171 425
f 50 170 421
f 69 189 478
f 68 188 479
f 100 220 571
f 99 219 572
f 84 204 524
f 83 203 519
f 62 182 458
f 61 181 455
f 93 213 551
f 92 212 552
f 44 164 407
f 63 183 464
f 88 208 530
f 78 198 497
f 91 211 544
f 79 199 511
f 53 173 434
f 72 192 488
f 56 176 443
f 43 163 403
f 46 166 404
f 64 184 463
f 67 187 467
f 98 218 560
f 97 217 566
f 75 195 501
f 87 207 536
f 57 177 446
f 77 197 500
f 89 209 539
f 109 234 589
f 111 238 594
f 118 357 600
f 144 370 624
f 125 309 606
f 126 279 608
f 130 282 610
f 150 348 629
f 121 263 601
f 105 227 583
f 114 245 586
f 115 316 596
f 146 335 620
f 147 400 627
f 160 383 640
f 154 354 633
f 136 305 616
f 134 294 613
f 157 365 632
f 158 396 639
f 86 296 534
f 73 248 495
f 47 247 418
f 66 325 474
f 51 265 430
f 69 272 484
f 93 374 555
f 84 385 527
f 59 266 453
f 56 260 444
f 52 271 432
f 46 241 415
f 72 343 491
f 67 331 477
f 101 386 580
f 97 380 567
f 91 308 550
f 87 302 537
f 82 373 523
f 77 361 508
f 55 230 442
f 45 235 413
f 76 355 505
f 96 368 564
f 62 307 461
f 53 277 435
f 79 278 514
f 100 344 577
f 50 259 427
f 49 224 423
f 68 242 480
f 70 314 486
f 99 332 573
f 102 398 581
f 83 379 526
f 81 350 521
f 61 301 460
f 60 290 457
f 92 362 553
f 94 392 558
f 48 253 419
f 65 319 471
f 85 254 532
f 74 320 499
f 90 284 546
f 80 338 516
f 54 283 438
f 71 337 490
f 57 289 447
f 44 229 408
f 43 223 406
f 63 236 465
f 64 313 469
f 95 326 562
f 98 397 570
f 78 367 510
f 89 391 542
f 58 295 450
f 75 349 502
f 88 356 541
f 107 255 590
f 113 321 597
f 120 258 599
f 142 324 622
f 131 287 605
f 129 340 609
f 128 286 611
f 148 341 628
f 122 291 603
f 103 231 584
f 104 226 585
f 112 239 592
f 139 317 619
f 145 330 625
f 161 401 642
f 152 371 634
f 137 393 618
f 133 299 614
f 151 351 631
f 156 360 637
f 119 257 531
f 117 322 498
f 116 256 420
f 141 323 472
f 123 285 437
f 127 339 489
f 132 288 547
f 149 342 517
f 124 292 456
f 108 233 441
f 106 228 424
f 110 237 412
f 140 318 487
f 143 328 475
f 162 402 582
f 159 372 565
f 138 394 557
f 135 300 535
f 153 353 520
f 155 359 506
f 109 297 449
f 111 249 417
f 118 252 496
f 144 329 561
f 125 270 454
f 126 275 433
f 130 375 522
f 150 388 579
f 121 267 429
f 105 261 426
f 114 274 483
f 115 246 481
f 146 346 576
f 147 336 574
f 160 389 528
f 154 381 525
f 136 311 462
f 134 303 459
f 157 378 556
f 158 366 554
f 107 232 409
f 113 240 466
f 120 358 540
f 142 369 509
f 131 310 549
f 129 281 513
f 128 280 436
f 148 347 492
f 122 264 445
f 103 225 405
f 104 243 414
f 112 315 468
f 139 333 476
f 145 399 569
f 161 384 568
f 152 352 503
f 137 306 538
f 133 293 448
f 151 363 507
f 156 395 543
f 119 298 591
f 117 251 595
f 116 250 598
f 141 327 623
f 123 268 604
f 127 276 607
f 132 376 612
f 149 387 630
f 124 269 602
f 108 262 587
f 106 273 588
f 110 244 593
f 140 345 621
f 143 334 626
f 162 390 641
f 159 382 636
f 138 312 617
f 135 304 615
f 153 377 635
f 155 364 638
f 86 534 529
f 73 495 493
f 47 418 416
f 66 474 470
f 51 430 428
f 69 484 482
f 93 555 545
f 84 527 515
f 59 453 451
f 56 444 439
f 52 432 422
f 46 415 410
f 72 491 485
f 67 477 473
f 101 580 578
f 97 567 563
f 91 550 548
f 87 537 533
f 82 523 518
f 77 508 504
f 55 442 440
f 45 413 411
f 76 505 494
f 96 564 559
f 62 461 452
f 53 435 431
f 79 514 512
f 100 577 575
f 50 427 425
f 49 423 421
f 68 480 478
f 70 486 479
f 99 573 571
f 102 581 572
f 83 526 524
f 81 521 519
f 61 460 458
f 60 457 455
f 92 553 551
f 94 558 552
f 48 419 407
f 65 471 464
f 85 532 530
f 74 499 497
f 90 546 544
f 80 516 511
f 54 438 434
f 71 490 488
f 57 447 443
f 44 408 403
f 43 406 404
f 63 465 463
f 64 469 467
f 95 562 560
f 98 570 566
f 78 510 501
f 89 542 536
f 58 450 446
f 75 502 500
f 88 541 539
f 107 590 589
f 113 597 594
f 120 599 600
f 142 622 624
f 131 605 606
f 129 609 608
f 128 611 610
f 148 628 629
f 122 603 601
f 103 584 583
f 104 585 586
f 112 592 596
f 139 619 620
f 145 625 627
f 161 642 640
f 152 634 633
f 137 618 616
f 133 614 613
f 151 631 632
f 156 637 639
f 529 205 206
f 493 194 193
f 416 168 167
f 470 185 186
f 428 174 171
f 482 191 189
f 545 210 213
f 515 200 204
f 451 180 179
f 439 175 176
f 422 169 172
f 410 165 166
f 485 190 192
f 473 186 187
f 578 222 221
f 563 216 217
f 548 214 211
f 533 206 207
f 518 201 202
f 504 196 197
f 440 178 175
f 411 167 165
f 494 193 196
f 559 215 216
f 452 179 182
f 431 172 173
f 512 202 199
f 575 221 220
f 425 171 170
f 421 170 169
f 478 189 188
f 479 188 190
f 571 220 219
f 572 219 222
f 524 204 203
f 519 203 201
f 458 182 181
f 455 181 180
f 551 213 212
f 552 212 214
f 407 164 168
f 464 183 185
f 530 208 205
f 497 198 194
f 544 211 210
f 511 199 200
f 434 173 174
f 488 192 191
f 443 176 177
f 403 163 164
f 404 166 163
f 463 184 183
f 467 187 184
f 560 218 215
f 566 217 218
f 501 195 198
f 536 207 209
f 446 177 178
f 500 197 195
f 539 209 208
f 589 234 232
f 594 238 240
f 600 357 358
f 624 370 369
f 606 309 310
f 608 279 281
f 610 282 280
f 629 348 347
f 601 263 264
f 583 227 225
f 586 245 243
f 596 316 315
f 620 335 333
f 627 400 399
f 640 383 384
f 633 354 352
f 616 305 306
f 613 294 293
f 632 365 363
f 639 396 395
f 534 296 298
f 495 248 251
f 418 247 250
f 474 325 327
f 430 265 268
f 484 272 276
f 555 374 376
f 527 385 387
f 453 266 269
f 444 260 262
f 432 271 273
f 415 241 244
f 491 343 345
f 477 331 334
f 580 386 390
f 567 380 382
f 550 308 312
f 537 302 304
f 523 373 377
f 508 361 364
f 442 230 234
f 413 235 238
f 505 355 357
f 564 368 370
f 461 307 309
f 435 277 279
f 514 278 282
f 577 344 348
f 427 259 263
f 423 224 227
f 480 242 245
f 486 314 316
f 573 332 335
f 581 398 400
f 526 379 383
f 521 350 354
f 460 301 305
f 457 290 294
f 553 362 365
f 558 392 396
f 419 253 255
f 471 319 321
f 532 254 258
f 499 320 324
f 546 284 287
f 516 338 340
f 438 283 286
f 490 337 341
f 447 289 291
f 408 229 231
f 406 223 226
f 465 236 239
f 469 313 317
f 562 326 330
f 570 397 401
f 510 367 371
f 542 391 393
f 450 295 299
f 502 349 351
f 541 356 360
f 590 255 257
f 597 321 322
f 599 258 256
f 622 324 323
f 605 287 285
f 609 340 339
f 611 286 288
f 628 341 342
f 603 291 292
f 584 231 233
f 585 226 228
f 592 239 237
f 619 317 318
f 625 330 328
f 642 401 402
f 634 371 372
f 618 393 394
f 614 299 300
f 631 351 353
f 637 360 359
f 531 257 254
f 498 322 320
f 420 256 253
f 472 323 319
f 437 285 283
f 489 339 337
f 547 288 284
f 517 342 338
f 456 292 290
f 441 233 230
f 424 228 224
f 412 237 235
f 487 318 314
f 475 328 325
f 582 402 398
f 565 372 368
f 557 394 392
f 535 300 296
f 520 353 350
f 506 359 355
f 449 297 295
f 417 249 247
f 496 252 248
f 561 329 326
f 454 270 266
f 433 275 271
f 522 375 373
f 579 388 386
f 429 267 265
f 426 261 259
f 483 274 272
f 481 246 242
f 576 346 344
f 574 336 332
f 528 389 385
f 525 381 379
f 462 311 307
f 459 303 301
f 556 378 374
f 554 366 362
f 409 232 229
f 466 240 236
f 540 358 356
f 509 369 367
f 549 310 308
f 513 281 278
f 436 280 277
f 492 347 343
f 445 264 260
f 405 225 223
f 414 243 241
f 468 315 313
f 476 333 331
f 569 399 397
f 568 384 380
f 503 352 349
f 538 306 302
f 448 293 289
f 507 363 361
f 543 395 391
f 591 298 297
f 595 251 249
f 598 250 252
f 623 327 329
f 604 268 270
f 607 276 275
f 612 376 375
f 630 387 388
f 602 269 267
f 587 262 261
f 588 273 274
f 593 244 246
f 621 345 346
f 626 334 336
f 641 390 389
f 636 382 381
f 617 312 311
f 615 304 303
f 635 377 378
f 638 364 366
f 529 534 531
f 493 495 498
f 416 418 420
f 470 474 472
f 428 430 437
f 482 484 489
f 545 555 547
f 515 527 517
f 451 453 456
f 439 444 441
f 422 432 424
f 410 415 412
f 485 491 487
f 473 477 475
f 578 580 582
f 563 567 565
f 548 550 557
f 533 537 535
f 518 523 520
f 504 508 506
f 440 442 449
f 411 413 417
f 494 505 496
f 559 564 561
f 452 461 454
f 431 435 433
f 512 514 522
f 575 577 579
f 425 427 429
f 421 423 426
f 478 480 483
f 479 486 481
f 571 573 576
f 572 581 574
f 524 526 528
f 519 521 525
f 458 460 462
f 455 457 459
f 551 553 556
f 552 558 554
f 407 419 409
f 464 471 466
f 530 532 540
f 497 499 509
f 544 546 549
f 511 516 513
f 434 438 436
f 488 490 492
f 443 447 445
f 403 408 405
f 404 406 414
f 463 465 468
f 467 469 476
f 560 562 569
f 566 570 568
f 501 510 503
f 536 542 538
f 446 450 448
f 500 502 507
f 539 541 543
f 589 590 591
f 594 597 595
f 600 599 598
f 624 622 623
f 606 605 604
f 608 609 607
f 610 611 612
f 629 628 630
f 601 603 602
f 583 584 587
f 586 585 588
f 596 592 593
f 620 619 621
f 627 625 626
f 640 642 641
f 633 634 636
f 616 618 617
f 613 614 615
f 632 631 635
f 639 637 638