v -1.000000 -1.000000 -1.000000
v -1.000000 -1.000000 1.000000
v -1.000000 1.000000 -1.000000
v -1.000000 1.000000 1.000000
v 1.000000 -1.000000 -1.000000
v 1.000000 -1.000000 1.000000
v 1.000000 1.000000 -1.000000
v 1.000000 1.000000 1.000000
v -1.000000 -1.000000 0.000000
v -1.000000 0.000000 -1.000000
v -1.000000 0.000000 0.000000
v 0.000000 -1.000000 -1.000000
v -1.000000 0.000000 1.000000
v 0.000000 -1.000000 0.000000
v 0.000000 -1.000000 1.000000
v -1.000000 1.000000 0.000000
v 0.000000 0.000000 -1.000000
v 0.000000 1.000000 -1.000000
v 0.000000 1.000000 0.000000
v 0.000000 0.000000 1.000000
v 0.000000 1.000000 1.000000
v 1.000000 -1.000000 0.000000
v 1.000000 0.000000 -1.000000
v 1.000000 0.000000 0.000000
v 1.000000 0.000000 1.000000
v 1.000000 1.000000 0.000000
v -1.000000 -1.000000 -0.500000
v -1.000000 -0.500000 -1.000000
v -1.000000 -0.500000 -0.500000
v -0.500000 -1.000000 -1.000000
v -1.000000 -1.000000 0.500000
v -1.000000 -0.500000 1.000000
v -0.500000 -1.000000 0.500000
v -0.500000 -1.000000 1.000000
v -1.000000 0.500000 -1.000000
v -1.000000 1.000000 -0.500000
v -0.500000 0.500000 -1.000000
v -0.500000 1.000000 -1.000000
v -0.500000 1.000000 -0.500000
v -1.000000 0.500000 0.500000
v -1.000000 0.500000 1.000000
v -1.000000 1.000000 0.500000
v -0.500000 0.500000 1.000000
v -0.500000 1.000000 1.000000
v 0.500000 -1.000000 -1.000000
v 0.500000 -1.000000 -0.500000
v 0.500000 -0.500000 -1.000000
v 1.000000 -1.000000 -0.500000
v 1.000000 -0.500000 -1.000000
v 0.500000 -1.000000 1.000000
v 0.500000 -0.500000 1.000000
v 1.000000 -1.000000 0.500000
v 1.000000 -0.500000 0.500000
v 1.000000 -0.500000 1.000000
v 0.500000 1.000000 -1.000000
v 1.000000 0.500000 -1.000000
v 1.000000 0.500000 -0.500000
v 1.000000 1.000000 -0.500000
v 0.500000 1.000000 0.500000
v 0.500000 1.000000 1.000000
v 1.000000 0.500000 1.000000
v 1.000000 1.000000 0.500000
v -1.000000 -0.500000 0.000000
v -0.500000 -1.000000 -0.500000
v -1.000000 -0.500000 0.500000
v -0.500000 -1.000000 0.000000
v -1.000000 0.000000 -0.500000
v -0.500000 -0.500000 -1.000000
v -1.000000 0.500000 -0.500000
v -0.500000 0.000000 -1.000000
v -1.000000 0.000000 0.500000
v -1.000000 0.500000 0.000000
v 0.000000 -1.000000 -0.500000
v 0.000000 -0.500000 -1.000000
v -0.500000 -0.500000 1.000000
v -0.500000 0.000000 1.000000
v 0.000000 -1.000000 0.500000
v 0.500000 -1.000000 0.000000
v 0.000000 -0.500000 1.000000
v 0.500000 -1.000000 0.500000
v -0.500000 1.000000 0.000000
v -0.500000 1.000000 0.500000
v 0.000000 0.500000 -1.000000
v 0.500000 0.000000 -1.000000
v 0.000000 1.000000 -0.500000
v 0.500000 0.500000 -1.000000
v 0.500000 1.000000 -0.500000
v 0.000000 1.000000 0.500000
v 0.500000 1.000000 0.000000
v 0.000000 0.500000 1.000000
v 0.500000 0.000000 1.000000
v 0.500000 0.500000 1.000000
v 1.000000 -0.500000 -0.500000
v 1.000000 -0.500000 0.000000
v 1.000000 0.000000 -0.500000
v 1.000000 0.000000 0.500000
v 1.000000 0.500000 0.000000
v 1.000000 0.500000 0.500000
v -1.000000 -1.000000 -0.750000
v -1.000000 -0.750000 -1.000000
v -1.000000 -0.750000 -0.750000
v -0.750000 -1.000000 -1.000000
v -1.000000 -1.000000 0.750000
v -1.000000 -0.750000 1.000000
v -0.750000 -1.000000 0.750000
v -0.750000 -1.000000 1.000000
v -1.000000 0.750000 -1.000000
v -1.000000 1.000000 -0.750000
v -0.750000 0.750000 -1.000000
v -0.750000 1.000000 -1.000000
v -0.750000 1.000000 -0.750000
v -1.000000 0.750000 0.750000
v -1.000000 0.750000 1.000000
v -1.000000 1.000000 0.750000
v -0.750000 0.750000 1.000000
v -0.750000 1.000000 1.000000
v 0.750000 -1.000000 -1.000000
v 0.750000 -1.000000 -0.750000
v 0.750000 -0.750000 -1.000000
v 1.000000 -1.000000 -0.750000
v 1.000000 -0.750000 -1.000000
v 0.750000 -1.000000 1.000000
v 0.750000 -0.750000 1.000000
v 1.000000 -1.000000 0.750000
v 1.000000 -0.750000 0.750000
v 1.000000 -0.750000 1.000000
v 0.750000 1.000000 -1.000000
v 1.000000 0.750000 -1.000000
v 1.000000 0.750000 -0.750000
v 1.000000 1.000000 -0.750000
v 0.750000 1.000000 0.750000
v 0.750000 1.000000 1.000000
v 1.000000 0.750000 1.000000
v 1.000000 1.000000 0.750000
v -1.000000 -1.000000 -0.250000
v -1.000000 -1.000000 0.250000
v -1.000000 -0.750000 0.000000
v -0.750000 -1.000000 -0.250000
v -1.000000 -0.750000 0.250000
v -0.750000 -1.000000 0.000000
v -1.000000 -0.250000 -1.000000
v -1.000000 0.250000 -1.000000
v -1.000000 0.000000 -0.750000
v -0.750000 -0.250000 -1.000000
v -1.000000 0.250000 -0.750000
v -0.750000 0.000000 -1.000000
v -1.000000 -0.250000 -0.250000
v -1.000000 0.250000 0.250000
v -1.000000 -0.250000 0.000000
v -1.000000 0.000000 -0.250000
v -1.000000 0.000000 0.250000
v -1.000000 0.250000 0.000000
v -0.250000 -1.000000 -1.000000
v 0.250000 -1.000000 -1.000000
v -0.250000 -1.000000 -0.750000
v -0.250000 -0.750000 -1.000000
v 0.000000 -1.000000 -0.750000
v 0.000000 -0.750000 -1.000000
v -1.000000 -0.250000 1.000000
v -1.000000 0.250000 1.000000
v -1.000000 -0.250000 0.750000
v -1.000000 0.000000 0.750000
v -0.750000 -0.250000 1.000000
v -0.750000 0.000000 1.000000
v -0.250000 -1.000000 0.250000
v 0.250000 -1.000000 -0.250000
v -0.250000 -1.000000 0.000000
v 0.000000 -1.000000 -0.250000
v 0.000000 -1.000000 0.250000
v 0.250000 -1.000000 0.000000
v -0.250000 -1.000000 1.000000
v 0.250000 -1.000000 1.000000
v -0.250000 -0.750000 1.000000
v 0.000000 -1.000000 0.750000
v 0.000000 -0.750000 1.000000
v 0.250000 -1.000000 0.750000
v -1.000000 1.000000 -0.250000
v -1.000000 1.000000 0.250000
v -1.000000 0.750000 -0.250000
v -1.000000 0.750000 0.000000
v -0.750000 1.000000 0.000000
v -0.750000 1.000000 0.250000
v -0.250000 0.250000 -1.000000
v 0.250000 -0.250000 -1.000000
v -0.250000 0.000000 -1.000000
v 0.000000 -0.250000 -1.000000
v 0.000000 0.250000 -1.000000
v 0.250000 0.000000 -1.000000
v -0.250000 1.000000 -1.000000
v 0.250000 1.000000 -1.000000
v 0.000000 0.750000 -1.000000
v 0.000000 1.000000 -0.750000
v 0.250000 0.750000 -1.000000
v 0.250000 1.000000 -0.750000
v -0.250000 1.000000 -0.250000
v 0.250000 1.000000 0.250000
v -0.250000 1.000000 0.000000
v 0.000000 1.000000 -0.250000
v 0.000000 1.000000 0.250000
v 0.250000 1.000000 0.000000
v -0.250000 0.250000 1.000000
v 0.250000 -0.250000 1.000000
v -0.250000 0.000000 1.000000
v 0.000000 -0.250000 1.000000
v 0.000000 0.250000 1.000000
v 0.250000 0.000000 1.000000
v -0.250000 1.000000 1.000000
v 0.250000 1.000000 1.000000
v -0.250000 1.000000 0.750000
v 0.000000 1.000000 0.750000
v 0.000000 0.750000 1.000000
v 0.250000 0.750000 1.000000
v 1.000000 -1.000000 -0.250000
v 1.000000 -1.000000 0.250000
v 0.750000 -1.000000 0.000000
v 0.750000 -1.000000 0.250000
v 1.000000 -0.750000 -0.250000
v 1.000000 -0.750000 0.000000
v 1.000000 -0.250000 -1.000000
v 1.000000 0.250000 -1.000000
v 0.750000 0.000000 -1.000000
v 0.750000 0.250000 -1.000000
v 1.000000 -0.250000 -0.750000
v 1.000000 0.000000 -0.750000
v 1.000000 -0.250000 0.250000
v 1.000000 0.250000 -0.250000
v 1.000000 -0.250000 0.000000
v 1.000000 0.000000 -0.250000
v 1.000000 0.000000 0.250000
v 1.000000 0.250000 0.000000
v 1.000000 -0.250000 1.000000
v 1.000000 0.250000 1.000000
v 0.750000 0.000000 1.000000
v 0.750000 0.250000 1.000000
v 1.000000 0.000000 0.750000
v 1.000000 0.250000 0.750000
v 1.000000 1.000000 -0.250000
v 1.000000 1.000000 0.250000
v 0.750000 1.000000 -0.250000
v 0.750000 1.000000 0.000000
v 1.000000 0.750000 0.000000
v 1.000000 0.750000 0.250000
v -1.000000 -0.750000 -0.500000
v -0.750000 -1.000000 -0.750000
v -1.000000 -0.750000 -0.250000
v -0.750000 -1.000000 -0.500000
v -1.000000 -0.500000 -0.750000
v -0.750000 -0.750000 -1.000000
v -1.000000 -0.250000 -0.750000
v -0.750000 -0.500000 -1.000000
v -1.000000 -0.500000 -0.250000
v -1.000000 -0.250000 -0.500000
v -0.500000 -1.000000 -0.750000
v -0.500000 -0.750000 -1.000000
v -1.000000 -0.750000 0.750000
v -0.750000 -1.000000 0.500000
v -1.000000 -0.750000 0.500000
v -0.750000 -1.000000 0.250000
v -0.750000 -0.750000 1.000000
v -1.000000 -0.500000 0.750000
v -0.750000 -0.500000 1.000000
v -0.500000 -1.000000 0.750000
v -0.500000 -1.000000 0.250000
v -0.250000 -1.000000 0.500000
v -0.500000 -0.750000 1.000000
v -0.250000 -1.000000 0.750000
v -1.000000 0.750000 -0.750000
v -0.750000 0.500000 -1.000000
v -1.000000 0.500000 -0.750000
v -0.750000 0.250000 -1.000000
v -0.750000 1.000000 -0.500000
v -1.000000 0.750000 -0.500000
v -0.750000 1.000000 -0.250000
v -0.500000 0.750000 -1.000000
v -0.500000 0.250000 -1.000000
v -0.250000 0.500000 -1.000000
v -0.500000 1.000000 -0.750000
v -0.250000 0.750000 -1.000000
v -0.250000 1.000000 -0.750000
v -0.500000 1.000000 -0.250000
v -0.250000 1.000000 -0.500000
v -1.000000 0.500000 0.750000
v -1.000000 0.750000 0.500000
v -1.000000 0.250000 0.500000
v -1.000000 0.500000 0.250000
v -0.750000 0.500000 1.000000
v -1.000000 0.250000 0.750000
v -0.750000 0.250000 1.000000
v -0.750000 1.000000 0.750000
v -1.000000 0.750000 0.250000
v -0.750000 1.000000 0.500000
v -0.500000 0.750000 1.000000
v -0.500000 0.250000 1.000000
v -0.250000 0.500000 1.000000
v -0.500000 1.000000 0.750000
v -0.250000 0.750000 1.000000
v 0.500000 -1.000000 -0.750000
v 0.500000 -0.750000 -1.000000
v 0.250000 -1.000000 -0.750000
v 0.250000 -0.750000 -1.000000
v 0.750000 -1.000000 -0.500000
v 0.250000 -1.000000 -0.500000
v 0.500000 -1.000000 -0.250000
v 0.750000 -0.500000 -1.000000
v 0.250000 -0.500000 -1.000000
v 0.500000 -0.250000 -1.000000
v 1.000000 -0.750000 -0.750000
v 0.750000 -1.000000 -0.250000
v 1.000000 -0.750000 -0.500000
v 0.750000 -0.250000 -1.000000
v 1.000000 -0.500000 -0.750000
v 0.500000 -0.750000 1.000000
v 0.750000 -1.000000 0.750000
v 0.250000 -0.750000 1.000000
v 0.500000 -1.000000 0.750000
v 0.750000 -0.500000 1.000000
v 0.250000 -0.500000 1.000000
v 0.500000 -0.250000 1.000000
v 1.000000 -0.750000 0.500000
v 0.750000 -1.000000 0.500000
v 1.000000 -0.750000 0.250000
v 1.000000 -0.500000 0.750000
v 1.000000 -0.500000 0.250000
v 1.000000 -0.250000 0.500000
v 0.750000 -0.250000 1.000000
v 1.000000 -0.250000 0.750000
v 0.750000 0.750000 -1.000000
v 0.750000 1.000000 -0.750000
v 0.500000 0.750000 -1.000000
v 0.500000 1.000000 -0.750000
v 1.000000 0.500000 -0.750000
v 0.750000 0.500000 -1.000000
v 1.000000 0.250000 -0.750000
v 1.000000 0.750000 -0.500000
v 1.000000 0.250000 -0.500000
v 1.000000 0.500000 -0.250000
v 0.750000 1.000000 -0.500000
v 1.000000 0.750000 -0.250000
v 0.500000 1.000000 0.750000
v 0.750000 1.000000 0.500000
v 0.250000 1.000000 0.500000
v 0.500000 1.000000 0.250000
v 0.750000 0.750000 1.000000
v 0.250000 1.000000 0.750000
v 0.500000 0.750000 1.000000
v 1.000000 0.750000 0.750000
v 0.750000 0.500000 1.000000
v 1.000000 0.500000 0.750000
v 0.750000 1.000000 0.250000
v 1.000000 0.750000 0.500000
v -1.000000 -0.500000 0.250000
v -1.000000 -0.250000 0.250000
v -0.500000 -1.000000 -0.250000
v -0.250000 -1.000000 -0.500000
v -1.000000 -0.250000 0.500000
v -0.250000 -1.000000 -0.250000
v -1.000000 0.250000 -0.500000
v -1.000000 0.250000 -0.250000
v -0.500000 -0.250000 -1.000000
v -0.250000 -0.500000 -1.000000
v -1.000000 0.500000 -0.250000
v -0.250000 -0.250000 -1.000000
v -0.500000 -0.250000 1.000000
v -0.250000 -0.500000 1.000000
v -0.250000 -0.250000 1.000000
v 0.250000 -1.000000 0.250000
v 0.250000 -1.000000 0.500000
v 0.500000 -1.000000 0.250000
v -0.500000 1.000000 0.250000
v -0.250000 1.000000 0.250000
v -0.250000 1.000000 0.500000
v 0.250000 0.250000 -1.000000
v 0.250000 0.500000 -1.000000
v 0.500000 0.250000 -1.000000
v 0.250000 1.000000 -0.500000
v 0.250000 1.000000 -0.250000
v 0.500000 1.000000 -0.250000
v 0.250000 0.250000 1.000000
v 0.250000 0.500000 1.000000
v 0.500000 0.250000 1.000000
v 1.000000 -0.500000 -0.250000
v 1.000000 -0.250000 -0.500000
v 1.000000 -0.250000 -0.250000
v 1.000000 0.250000 0.250000
v 1.000000 0.250000 0.500000
v 1.000000 0.500000 0.250000
f 5 117 119
f 3 110 109
f 4 113 115
f 6 126 123
f 2 104 103
f 1 101 100
f 4 116 114
f 3 111 110
f 6 122 124
f 5 118 117
f 8 133 134
f 7 129 128
f 1 100 102
f 7 128 127
f 2 106 104
f 8 132 133
f 4 112 113
f 4 114 112
f 8 131 132
f 8 134 131
f 2 105 106
f 2 103 105
f 6 125 126
f 6 124 125
f 3 109 107
f 5 119 121
f 6 123 122
f 4 115 116
f 1 99 101
f 3 107 108
f 3 108 111
f 7 127 130
f 5 120 118
f 1 102 99
f 7 130 129
f 5 121 120
f 10 146 144
f 23 221 222
f 15 175 173
f 21 211 212
f 11 149 151
f 16 179 180
f 19 197 199
f 26 239 240
f 14 170 169
f 9 138 140
f 24 230 229
f 22 217 218
f 12 158 154
f 18 191 189
f 13 164 160
f 25 233 231
f 13 161 159
f 11 150 147
f 21 209 207
f 19 198 195
f 15 176 172
f 14 168 166
f 25 236 232
f 24 228 226
f 10 144 141
f 23 222 220
f 15 173 171
f 21 212 208
f 11 151 148
f 16 180 178
f 19 199 196
f 26 240 238
f 14 169 165
f 9 140 136
f 24 229 225
f 22 218 214
f 17 185 183
f 17 188 184
f 20 204 202
f 20 205 201
f 9 137 135
f 10 145 142
f 16 181 177
f 18 194 190
f 22 215 213
f 12 155 153
f 26 241 237
f 23 223 219
f 17 186 185
f 17 187 188
f 20 203 204
f 20 206 205
f 9 139 137
f 10 143 145
f 16 182 181
f 18 192 194
f 22 216 215
f 12 157 155
f 26 242 241
f 23 224 223
f 17 184 186
f 17 183 187
f 20 201 203
f 20 202 206
f 9 136 139
f 10 141 143
f 16 178 182
f 18 189 192
f 22 214 216
f 12 154 157
f 26 238 242
f 23 220 224
f 12 153 156
f 18 190 193
f 13 159 163
f 25 232 234
f 13 160 162
f 11 148 152
f 21 208 210
f 19 196 200
f 15 171 174
f 14 165 167
f 25 231 235
f 24 225 227
f 10 142 146
f 23 219 221
f 15 172 175
f 21 207 211
f 11 147 149
f 16 177 179
f 19 195 197
f 26 237 239
f 14 166 170
f 9 135 138
f 24 226 230
f 22 213 217
f 12 156 158
f 18 193 191
f 13 163 164
f 25 234 233
f 13 162 161
f 11 152 150
f 21 210 209
f 19 200 198
f 15 174 176
f 14 167 168
f 25 235 236
f 24 227 228
f 74 305 300
f 83 276 278
f 76 293 288
f 91 318 325
f 65 257 260
f 67 249 252
f 82 291 295
f 85 279 281
f 80 320 315
f 73 299 302
f 98 350 348
f 95 333 335
f 68 254 250
f 86 329 332
f 75 261 265
f 92 347 345
f 71 287 284
f 72 285 290
f 88 344 341
f 89 342 349
f 77 266 264
f 66 263 258
f 96 326 324
f 94 323 321
f 70 270 275
f 84 310 306
f 79 314 317
f 90 296 294
f 63 251 245
f 69 272 269
f 81 280 273
f 87 337 330
f 78 303 308
f 64 246 253
f 97 336 338
f 93 309 311
f 74 360 362
f 83 373 372
f 76 363 365
f 91 380 378
f 65 355 351
f 67 358 357
f 82 371 369
f 85 376 375
f 80 367 368
f 73 356 354
f 98 385 386
f 95 383 382
f 45 298 117
f 38 274 110
f 41 286 113
f 54 316 126
f 32 255 104
f 29 247 101
f 44 289 116
f 39 277 111
f 50 313 122
f 46 297 118
f 61 346 133
f 57 331 129
f 28 248 100
f 56 327 128
f 34 259 106
f 60 343 132
f 40 282 112
f 42 283 114
f 59 339 131
f 62 340 134
f 33 262 105
f 31 256 103
f 53 322 125
f 52 319 124
f 37 268 109
f 47 304 119
f 51 312 123
f 43 292 115
f 27 243 99
f 35 267 107
f 36 271 108
f 55 328 127
f 48 301 120
f 30 244 102
f 58 334 130
f 49 307 121
f 70 359 146
f 84 374 221
f 79 364 175
f 90 379 211
f 63 352 149
f 69 361 179
f 81 370 197
f 87 377 239
f 78 366 170
f 64 353 138
f 97 384 230
f 93 381 217
f 74 300 158
f 83 278 191
f 76 288 164
f 91 325 233
f 65 260 161
f 67 252 150
f 82 295 209
f 85 281 198
f 80 315 176
f 73 302 168
f 98 348 236
f 95 335 228
f 68 250 144
f 86 332 222
f 75 265 173
f 92 345 212
f 71 284 151
f 72 290 180
f 88 341 199
f 89 349 240
f 77 264 169
f 66 258 140
f 96 324 229
f 94 321 218
f 70 275 185
f 84 306 188
f 79 317 204
f 90 294 205
f 63 245 137
f 69 269 145
f 81 273 181
f 87 330 194
f 78 308 215
f 64 253 155
f 97 338 241
f 93 311 223
f 74 362 186
f 83 372 187
f 76 365 203
f 91 378 206
f 65 351 139
f 67 357 143
f 82 369 182
f 85 375 192
f 80 368 216
f 73 354 157
f 98 386 242
f 95 382 224
f 47 305 184
f 37 276 183
f 43 293 201
f 51 318 202
f 31 257 136
f 28 249 141
f 42 291 178
f 38 279 189
f 52 320 214
f 45 299 154
f 62 350 238
f 56 333 220
f 30 254 153
f 55 329 190
f 32 261 159
f 61 347 232
f 41 287 160
f 40 285 148
f 60 344 208
f 59 342 196
f 34 266 171
f 33 263 165
f 54 326 231
f 53 323 225
f 35 270 142
f 49 310 219
f 50 314 172
f 44 296 207
f 29 251 147
f 36 272 177
f 39 280 195
f 58 337 237
f 46 303 166
f 27 246 135
f 57 336 226
f 48 309 213
f 68 360 156
f 86 373 193
f 75 363 163
f 92 380 234
f 71 355 162
f 72 358 152
f 88 371 210
f 89 376 200
f 77 367 174
f 66 356 167
f 96 385 235
f 94 383 227
f 47 298 305
f 37 274 276
f 43 286 293
f 51 316 318
f 31 255 257
f 28 247 249
f 42 289 291
f 38 277 279
f 52 313 320
f 45 297 299
f 62 346 350
f 56 331 333
f 30 248 254
f 55 327 329
f 32 259 261
f 61 343 347
f 41 282 287
f 40 283 285
f 60 339 344
f 59 340 342
f 34 262 266
f 33 256 263
f 54 322 326
f 53 319 323
f 35 268 270
f 49 304 310
f 50 312 314
f 44 292 296
f 29 243 251
f 36 267 272
f 39 271 280
f 58 328 337
f 46 301 303
f 27 244 246
f 57 334 336
f 48 307 309
f 68 359 360
f 86 374 373
f 75 364 363
f 92 379 380
f 71 352 355
f 72 361 358
f 88 370 371
f 89 377 376
f 77 366 367
f 66 353 356
f 96 384 385
f 94 381 383
f 47 119 298
f 37 109 274
f 43 115 286
f 51 123 316
f 31 103 255
f 28 100 247
f 42 114 289
f 38 110 277
f 52 124 313
f 45 117 297
f 62 134 346
f 56 128 331
f 30 102 248
f 55 127 327
f 32 104 259
f 61 133 343
f 41 113 282
f 40 112 283
f 60 132 339
f 59 131 340
f 34 106 262
f 33 105 256
f 54 126 322
f 53 125 319
f 35 107 268
f 49 121 304
f 50 122 312
f 44 116 292
f 29 101 243
f 36 108 267
f 39 111 271
f 58 130 328
f 46 118 301
f 27 99 244
f 57 129 334
f 48 120 307
f 68 144 359
f 86 222 374
f 75 173 364
f 92 212 379
f 71 151 352
f 72 180 361
f 88 199 370
f 89 240 377
f 77 169 366
f 66 140 353
f 96 229 384
f 94 218 381
f 45 154 300
f 38 189 278
f 41 160 288
f 54 231 325
f 32 159 260
f 29 147 252
f 44 207 295
f 39 195 281
f 50 172 315
f 46 166 302
f 61 232 348
f 57 226 335
f 28 141 250
f 56 220 332
f 34 171 265
f 60 208 345
f 40 148 284
f 42 178 290
f 59 196 341
f 62 238 349
f 33 165 264
f 31 136 258
f 53 225 324
f 52 214 321
f 37 183 275
f 47 184 306
f 51 202 317
f 43 201 294
f 27 135 245
f 35 142 269
f 36 177 273
f 55 190 330
f 48 213 308
f 30 153 253
f 58 237 338
f 49 219 311
f 70 185 362
f 84 188 372
f 79 204 365
f 90 205 378
f 63 137 351
f 69 145 357
f 81 181 369
f 87 194 375
f 78 215 368
f 64 155 354
f 97 241 386
f 93 223 382
f 74 186 305
f 83 187 276
f 76 203 293
f 91 206 318
f 65 139 257
f 67 143 249
f 82 182 291
f 85 192 279
f 80 216 320
f 73 157 299
f 98 242 350
f 95 224 333
f 68 156 254
f 86 193 329
f 75 163 261
f 92 234 347
f 71 162 287
f 72 152 285
f 88 210 344
f 89 200 342
f 77 174 266
f 66 167 263
f 96 235 326
f 94 227 323
f 70 146 270
f 84 221 310
f 79 175 314
f 90 211 296
f 63 149 251
f 69 179 272
f 81 197 280
f 87 239 337
f 78 170 303
f 64 138 246
f 97 230 336
f 93 217 309
f 74 158 360
f 83 191 373
f 76 164 363
f 91 233 380
f 65 161 355
f 67 150 358
f 82 209 371
f 85 198 376
f 80 176 367
f 73 168 356
f 98 236 385
f 95 228 383
f 45 300 298
f 38 278 274
f 41 288 286
f 54 325 316
f 32 260 255
f 29 252 247
f 44 295 289
f 39 281 277
f 50 315 313
f 46 302 297
f 61 348 346
f 57 335 331
f 28 250 248
f 56 332 327
f 34 265 259
f 60 345 343
f 40 284 282
f 42 290 283
f 59 341 339
f 62 349 340
f 33 264 262
f 31 258 256
f 53 324 322
f 52 321 319
f 37 275 268
f 47 306 304
f 51 317 312
f 43 294 292
f 27 245 243
f 35 269 267
f 36 273 271
f 55 330 328
f 48 308 301
f 30 253 244
f 58 338 334
f 49 311 307
f 70 362 359
f 84 372 374
f 79 365 364
f 90 378 379
f 63 351 352
f 69 357 361
f 81 369 370
f 87 375 377
f 78 368 366
f 64 354 353
f 97 386 384
f 93 382 381
f 298 119 117
f 274 109 110
f 286 115 113
f 316 123 126
f 255 103 104
f 247 100 101
f 289 114 116
f 277 110 111
f 313 124 122
f 297 117 118
f 346 134 133
f 331 128 129
f 248 102 100
f 327 127 128
f 259 104 106
f 343 133 132
f 282 113 112
f 283 112 114
f 339 132 131
f 340 131 134
f 262 106 105
f 256 105 103
f 322 126 125
f 319 125 124
f 268 107 109
f 304 121 119
f 312 122 123
f 292 116 115
f 243 101 99
f 267 108 107
f 271 111 108
f 328 130 127
f 301 118 120
f 244 99 102
f 334 129 130
f 307 120 121
f 359 144 146
f 374 222 221
f 364 173 175
f 379 212 211
f 352 151 149
f 361 180 179
f 370 199 197
f 377 240 239
f 366 169 170
f 353 140 138
f 384 229 230
f 381 218 217
f 300 154 158
f 278 189 191
f 288 160 164
f 325 231 233
f 260 159 161
f 252 147 150
f 295 207 209
f 281 195 198
f 315 172 176
f 302 166 168
f 348 232 236
f 335 226 228
f 250 141 144
f 332 220 222
f 265 171 173
f 345 208 212
f 284 148 151
f 290 178 180
f 341 196 199
f 349 238 240
f 264 165 169
f 258 136 140
f 324 225 229
f 321 214 218
f 275 183 185
f 306 184 188
f 317 202 204
f 294 201 205
f 245 135 137
f 269 142 145
f 273 177 181
f 330 190 194
f 308 213 215
f 253 153 155
f 338 237 241
f 311 219 223
f 362 185 186
f 372 188 187
f 365 204 203
f 378 205 206
f 351 137 139
f 357 145 143
f 369 181 182
f 375 194 192
f 368 215 216
f 354 155 157
f 386 241 242
f 382 223 224
f 305 186 184
f 276 187 183
f 293 203 201
f 318 206 202
f 257 139 136
f 249 143 141
f 291 182 178
f 279 192 189
f 320 216 214
f 299 157 154
f 350 242 238
f 333 224 220
f 254 156 153
f 329 193 190
f 261 163 159
f 347 234 232
f 287 162 160
f 285 152 148
f 344 210 208
f 342 200 196
f 266 174 171
f 263 167 165
f 326 235 231
f 323 227 225
f 270 146 142
f 310 221 219
f 314 175 172
f 296 211 207
f 251 149 147
f 272 179 177
f 280 197 195
f 337 239 237
f 303 170 166
f 246 138 135
f 336 230 226
f 309 217 213
f 360 158 156
f 373 191 193
f 363 164 163
f 380 233 234
f 355 161 162
f 358 150 152
f 371 209 210
f 376 198 200
f 367 176 174
f 356 168 167
f 385 236 235
f 383 228 227
f 298 300 305
f 274 278 276
f 286 288 293
f 316 325 318
f 255 260 257
f 247 252 249
f 289 295 291
f 277 281 279
f 313 315 320
f 297 302 299
f 346 348 350
f 331 335 333
f 248 250 254
f 327 332 329
f 259 265 261
f 343 345 347
f 282 284 287
f 283 290 285
f 339 341 344
f 340 349 342
f 262 264 266
f 256 258 263
f 322 324 326
f 319 321 323
f 268 275 270
f 304 306 310
f 312 317 314
f 292 294 296
f 243 245 251
f 267 269 272
f 271 273 280
f 328 330 337
f 301 308 303
f 244 253 246
f 334 338 336
f 307 311 309
f 359 362 360
f 374 372 373
f 364 365 363
f 379 378 380
f 352 351 355
f 361 357 358
f 370 369 371
f 377 375 376
f 366 368 367
f 353 354 356
f 384 386 385
f 381 382 383